<?xml version="1.0" encoding="UTF-8" standalone="no"?>
<!-- Created with Inkscape (http://www.inkscape.org/) -->

<svg
   width="220.00002mm"
   height="198mm"
   viewBox="0 0 220.00001 198"
   version="1.1"
   id="svg1"
   xml:space="preserve"
   xmlns:xlink="http://www.w3.org/1999/xlink"
   xmlns="http://www.w3.org/2000/svg"
   xmlns:svg="http://www.w3.org/2000/svg"><defs
     id="defs1"><linearGradient
       id="linearGradient28"><stop
         style="stop-color:#d32f2f;stop-opacity:1;"
         offset="0"
         id="stop28" /><stop
         style="stop-color:#931d1d;stop-opacity:1;"
         offset="1"
         id="stop29" /></linearGradient><linearGradient
       xlink:href="#linearGradient28"
       id="linearGradient29"
       x1="145.96104"
       y1="88.468063"
       x2="206.87547"
       y2="89.531326"
       gradientUnits="userSpaceOnUse"
       gradientTransform="matrix(2.4073043,0,0,2.4073043,-345.72224,-115.55023)" /></defs><g
     id="layer1"><rect
       style="display:none;opacity:1;fill:#0e0e0e;fill-opacity:1;fill-rule:nonzero;stroke:none;stroke-width:0.1;stroke-linejoin:miter;stroke-dasharray:none;stroke-opacity:1;paint-order:normal"
       id="rect31"
       width="159.41145"
       height="128.58749"
       x="110.99271"
       y="28.574999" /><path
       d="M 148.27447,127.18853 V 50.521615 h 38.77743 l 7.04061,24.081142 0,0 c 0.72728,2.524619 1.41967,5.059167 2.10167,7.596396 l 0,1.5e-5 v 0 c 0.84613,3.111672 1.66721,6.230133 2.46946,9.353405 v 0 c 0,5e-6 0,1e-5 0,1.5e-5 0.28631,1.070047 0.5296,2.151067 0.78885,3.227987 0,5e-6 0,1e-5 0,1.5e-5 0.10928,0.453952 0.21805,0.908143 0.34177,1.358374 0,5e-6 0,1e-5 0,1.5e-5 0.0379,0.138068 0.0763,0.276196 0.12407,0.411166 0,5e-6 1e-5,1e-5 1e-5,1.5e-5 0.0136,0.03839 0.0276,0.0768 0.0461,0.113059 l 0,0 c 0.008,0.01637 0.0157,0.03932 0.0339,0.04168 -0.003,0.0088 -0.006,0.02145 -0.009,0.02939 -0.002,0.0079 -0.005,0.02086 -0.01,0.02796 -0.001,-0.0045 -1e-4,-0.0084 6.7e-4,-0.01269 0.002,-0.01063 0.004,-0.0212 0.006,-0.03176 0,-5e-6 0,-1e-5 0,-1.5e-5 0.0101,-0.04693 0.0211,-0.09363 0.0322,-0.140325 1e-5,-5e-6 1e-5,-1.1e-5 1e-5,-1.6e-5 0.0573,-0.241633 0.11755,-0.482539 0.1777,-0.723472 0,-5e-6 0,-1.1e-5 0,-1.6e-5 l 0,0 c 0,-5e-6 0,-1e-5 0,-1.5e-5 0.35831,-1.435367 0.72644,-2.868258 1.09379,-4.301335 l 1e-5,-1.5e-5 0,-1.6e-5 c 0.80115,-3.11896 1.60632,-6.236886 2.41691,-9.353405 0.682,-2.537234 1.37439,-5.071786 2.10168,-7.596411 l 6.93551,-24.081142 h 32.73356 l 0,1.6e-5 v 57.287809 c 0.0177,0.0532 0.0756,0.083 0.13166,0.0816 0.086,-0.002 0.16841,-0.0333 0.24954,-0.0619 0.2326,-0.0819 0.46397,-0.17769 0.70925,-0.203 1e-5,0 1e-5,0 2e-5,-1e-5 0.27634,-0.0285 0.56458,0.0701 0.75044,0.27655 0.34896,0.38769 0.43989,0.94079 0.5048,1.45835 l -0.47857,1.46473 c -0.0687,0.19868 -0.12135,0.40263 -0.1523,0.6099 l 0,0 c -0.0199,0.13341 -0.0347,0.27138 -0.002,0.40233 l 0,0 c 0.0237,0.0959 0.10402,0.18049 0.2028,0.17923 l 0,0 c 0.35541,-0.005 0.76115,-0.041 0.99503,0.22665 0,0 1e-5,1e-5 1e-5,1e-5 0.36628,0.41921 0.25273,1.0585 0.0807,1.58795 0,0 -10e-6,1e-5 -10e-6,1e-5 -0.18802,0.57882 -0.46801,1.16186 -0.3983,1.76644 0,1e-5 0,1e-5 0,2e-5 0.0163,0.14201 0.0672,0.27773 0.11728,0.41162 l 0,0 c 0.0224,0.0598 0.046,0.11923 0.0706,0.1782 0.0114,0.0273 0.025,0.0593 0.037,0.0863 l -2.81759,2.73841 v 2e-5 8.50635 h 0 -21.43707 0 c 0.0255,-2.83535 0.004,-5.67094 0.001,-8.5064 v 0 c -8e-5,-0.0695 -0.0487,-0.13575 -0.11797,-0.13055 l 0,0 c -0.0977,0.007 -0.19,0.0473 -0.28595,0.0673 l 0,0 c -0.28955,0.0604 -0.56476,-0.14921 -0.67266,-0.42462 l 0,0 c -0.087,-0.22194 -0.2728,-0.38525 -0.45307,-0.54119 l 0,0 -3e-5,-2e-5 c -0.18581,-0.16074 -0.30969,-0.38918 -0.32759,-0.63422 -0.024,-0.32778 -0.004,-0.73539 -0.29954,-0.87973 l 0,0 c -1e-5,0 -2e-5,-1e-5 -3e-5,-1e-5 -0.595,-0.29092 -1.07358,-0.87306 -1.072,-1.53537 0.002,-0.80518 0.43514,-1.54557 0.89276,-2.20807 0.15133,-0.21908 0.0379,-0.51299 -0.0191,-0.77309 -0.06,-0.27422 0.0611,-0.56174 0.25652,-0.76325 1e-5,0 1e-5,-1e-5 2e-5,-2e-5 0.23005,-0.23718 0.5247,-0.4007 0.81963,-0.54969 1e-5,0 2e-5,0 3e-5,-1e-5 0.28665,-0.1448 0.58397,-0.26793 0.86867,-0.41652 1e-5,0 1e-5,-1e-5 2e-5,-1e-5 0.16707,-0.0872 0.40381,-0.1754 0.40383,-0.36385 7.5e-4,-6.30936 -0.028,-12.619687 0.1104,-18.927532 0.1148,-3.048543 0.21836,-6.097503 0.31525,-9.146668 0,-1.1e-5 0,-2.1e-5 0,-3.2e-5 0.10616,-3.34121 0.19336,-6.683019 0.26271,-10.025196 0.005,-0.01 0.008,-0.02579 0.0186,-0.02682 0.008,-7.91e-4 0.004,0.01522 0.004,0.02376 0,1.1e-5 0,2.1e-5 0,3.2e-5 -0.004,0.06346 -0.0198,0.125612 -0.033,0.187831 0,1.1e-5 0,2.1e-5 0,3.2e-5 -0.0608,0.287 -0.13331,0.571391 -0.20464,0.85596 0,1.1e-5 -1e-5,2.1e-5 -1e-5,3.2e-5 -0.24994,0.997124 -0.51178,1.991226 -0.77007,2.986222 0,1e-5 0,2.1e-5 0,3.1e-5 -0.2985,1.149865 -0.59652,2.299884 -0.88169,3.453127 -0.20029,0.810022 -0.41511,1.618195 -0.55002,2.441635 -0.78043,3.038305 -1.5819,6.071264 -2.41691,9.095024 l 0,0 c -0.64388,2.331562 -1.29887,4.660244 -1.99658,6.976265 0,1.1e-5 -1e-5,2.1e-5 -1e-5,3.1e-5 l -8.75654,29.530535 -17.79555,-0.20716 -15.8907,-29.323375 c -0.31525,-1.060134 -1.07286,-1.922033 -1.73412,-2.808604 -0.80098,-1.073905 -1.54845,-2.217787 -1.91563,-3.506203 0,-10e-6 -1e-5,-2.1e-5 -1e-5,-3.1e-5 -0.43209,-1.516199 -0.39763,-3.120827 -0.40527,-4.697374 0,-1.1e-5 0,-2.1e-5 0,-3.2e-5 -0.008,-1.697985 -0.0235,-3.417365 -0.45712,-5.059076 -0.86973,-3.327664 -1.75157,-6.65216 -2.64507,-9.97352 -0.81153,-3.169723 -1.62393,-6.339225 -2.43759,-9.508402 0,-10e-6 -1e-5,-2.1e-5 -1e-5,-3.1e-5 h 2.74878 c 0,3.186945 0.0391,6.373821 0.10374,9.56011 0.1028,3.346174 0.11265,6.694721 0.0719,10.042226 v 0 c -0.003,0.219759 -3e-4,0.439556 1.3e-4,0.659331 v 0 l 0,3.2e-5 v 0 c 0.001,0.518176 0.003,1.036351 0.004,1.554526 v 0 l 0,3.2e-5 v 0 c 0.005,1.759174 0.0115,3.518346 0.0178,5.277516 0,1.1e-5 0,2.2e-5 0,3.2e-5 0.0185,5.202235 0.0383,10.404466 0.0578,15.606693 0,1e-5 0,3e-5 0,4e-5 0.0193,5.14777 0.0388,10.29555 0.0568,15.44333 0,10e-6 0,2e-5 0,3e-5 0.006,1.69112 0.0118,3.38223 0.0165,5.07335 0,10e-6 0,2e-5 0,3e-5 0.001,0.47395 0.003,0.9479 0.003,1.42186 0,1e-5 0,2e-5 0,3e-5 1.6e-4,0.1252 3.3e-4,0.25041 1.3e-4,0.37561 -5e-5,0.0323 -1e-4,0.0646 -3.3e-4,0.0969 -6e-5,0.008 -1.3e-4,0.0166 -2.8e-4,0.0249 -9.5e-4,-0.005 -0.001,-0.0119 -0.001,-0.0186 -4.7e-4,-0.0269 -7.6e-4,-0.0538 -0.001,-0.0808 z"
       id="text7"
       style="font-weight:900;font-size:105.833px;font-family:'noto Sans Tamil UI';-inkscape-font-specification:'noto Sans Tamil UI Heavy';fill:#222222;fill-opacity:1;stroke:#9e9e9e;stroke-width:0.108228;stroke-linejoin:round;stroke-dasharray:none;stroke-opacity:1;paint-order:normal"
       aria-label="M"
       transform="matrix(2.0551701,0,0,2.4073043,-293.50972,-115.55023)" /><path
       style="font-weight:900;font-size:105.833px;font-family:'noto Sans Tamil UI';-inkscape-font-specification:'noto Sans Tamil UI Heavy';fill:url(#linearGradient29);fill-rule:nonzero;stroke:none;stroke-width:0.481;stroke-dasharray:none;paint-order:stroke markers fill"
       d="m 55.517431,161.52137 v -58.71704 h 5.722427 L 94.579197,60.01055 H 150.80823 L 95.076807,129.42603 H 81.143927 Z M 10.98206,191.37748 V 82.110008 c -2.0431035,0.07065 -2.4536455,0.323987 -3.3829855,-1.096583 l -0.642293,-1.352349 -0.694025,-2.602688 c 0,0 0.744675,-1.381605 0.563357,-2.150568 -0.107847,-0.457361 -0.835311,-1.129762 -0.835311,-1.129762 0,0 -1.146478,-5.512414 0.701946,-9.007505 0.309411,-0.585052 0.0072,-1.985477 0.0072,-1.985477 0,0 -0.76468,-0.611433 -0.795229,-0.99789 -0.396098,-5.012236 2.096136,-8.456083 0.855701,-12.414122 -0.479078,-1.52871 3.238161,-6.994105 1.125968,-9.289075 -0.66769,-0.725462 -0.476839,-1.773369 -0.476839,-1.773369 L 10.982736,33.469042 V 6.0207296 H 60.742944 V 28.267156 c 0,0 3.427111,-0.897332 4.219668,3.333943 0.110976,0.591797 0.142512,2.856257 -1.693635,5.56828 -0.04911,0.07251 -0.692774,1.724199 0.80741,2.600847 0.907024,0.530021 2.22288,0.400111 2.711683,1.595391 0.639597,1.563989 1.336102,4.713145 -0.167548,6.595725 -0.389213,0.487252 -3.339557,2.547686 -1.790601,4.58446 0.555798,0.730817 2.388311,5.652673 -0.524263,9.549136 -0.38358,0.513177 -1.250209,2.470667 -0.474504,2.490482 3.490784,0.08917 3.526123,6.347558 0.354765,9.525501 -0.622048,0.62332 -0.948454,1.284494 -0.594243,2.039656 0.562972,1.200241 -2.848636,7.479954 -2.848636,7.479954 V 191.37748 Z m 84.841127,0 -31.348923,-51.00421 32.095333,-34.83213 55.731423,85.83634 z"
       id="text5"
       aria-label="k" /><path
       style="fill:#222222;fill-opacity:1;stroke:#d32f2f;stroke-width:0.4;stroke-dasharray:none;stroke-opacity:1;paint-order:stroke fill markers"
       d="m 49.628009,83.449841 c 0.540415,-0.874398 4.37205,-6.137167 4.820723,-6.621276 0.304981,-0.329071 0.961501,-0.781842 1.458947,-1.006157 0.886514,-0.399762 0.924621,-0.398045 1.922304,0.08666 0.559819,0.271984 1.168626,0.494516 1.352881,0.494516 0.477345,0 0.442655,0.09323 -0.618147,1.661097 -2.222496,3.284849 -3.684837,4.67207 -5.645683,5.355619 -0.94063,0.327907 -3.489556,0.350778 -3.291025,0.02954 z m 6.535759,-0.221881 c -0.406474,-0.24783 -0.739019,-0.546088 -0.739019,-0.662791 0,-0.116706 0.332545,-0.418751 0.739019,-0.671212 0.987476,-0.613316 2.148086,-1.865916 3.454313,-3.728053 0.943832,-1.345529 1.165593,-1.534923 1.797269,-1.534923 0.396315,0 1.073923,-0.101348 1.505793,-0.225204 0.431871,-0.123855 0.871974,-0.138444 0.978016,-0.0324 0.105921,0.106042 0.252309,0.769331 0.325034,1.473978 0.22412,2.170835 -0.926018,4.493607 -2.663875,5.380198 -1.258081,0.641825 -4.344149,0.642049 -5.39655,3.92e-4 z M 44.108469,82.671093 c 2.457208,-3.730383 4.991931,-6.949698 5.471875,-6.949698 0.130476,0 0.435096,0.17908 0.676766,0.397944 0.272651,0.24692 0.956012,0.441093 1.800639,0.511642 1.361259,0.113697 1.361259,0.113697 -0.0804,2.150789 -2.187012,3.090126 -4.641499,4.671095 -7.25198,4.671095 -1.13177,0 -1.13177,0 -0.616824,-0.781772 z m -6.144764,0.305137 c 0.292006,-0.75183 4.364298,-6.382428 5.007433,-6.923604 0.593617,-0.499492 0.735408,-0.539354 0.89624,-0.251958 0.288997,0.516391 1.709041,0.899679 2.728968,0.736584 1.039691,-0.166248 1.087452,-0.32476 -0.656737,2.179114 -1.464411,2.102231 -2.327285,2.890777 -4.06028,3.710621 -1.520597,0.719363 -4.123495,1.084469 -3.915624,0.549243 z m -5.892094,-0.283917 c 0.226768,-0.590851 3.79225,-5.650668 4.54487,-6.449645 0.687117,-0.729406 0.687117,-0.729406 1.312294,-0.284245 0.456256,0.32489 0.999657,0.445161 2.011278,0.445161 0.762369,0 1.386126,0.06081 1.386126,0.135146 0,0.356289 -2.794712,3.920972 -3.517072,4.486082 -1.246261,0.974924 -3.277304,1.8197 -4.648625,1.933503 -1.063811,0.08828 -1.211018,0.05231 -1.088871,-0.266012 z m -5.828204,-0.516981 c 2.733927,-3.947745 3.866275,-5.524111 4.327851,-6.024953 0.54771,-0.594296 0.54771,-0.594296 1.387643,-0.155849 0.668893,0.34918 1.106156,0.410015 2.14746,0.298761 0.719134,-0.07684 1.307527,-0.08835 1.307527,-0.02561 0,0.298754 -2.223844,3.245694 -3.048586,4.039874 -1.332877,1.283471 -3.518468,2.301951 -5.201005,2.423654 -1.37474,0.09945 -1.37474,0.09945 -0.92089,-0.555894 z m -6.13321,0.06936 c 0.638056,-1.047746 3.875062,-5.606477 4.339527,-6.111433 0.533627,-0.580166 0.590416,-0.593059 1.110778,-0.252115 0.428452,0.28074 0.919374,0.331264 2.244739,0.231029 0.932975,-0.07056 1.693683,-0.05944 1.69041,0.02472 -0.0024,0.08416 -0.616391,0.962587 -1.362535,1.952066 -1.551411,2.057408 -3.087632,3.307562 -4.895638,3.984019 -1.455456,0.544559 -3.420033,0.65243 -3.127281,0.171714 z M 8.6190495,82.101019 c 0.04165,-0.118175 0.870939,-1.346121 1.8427685,-2.728754 1.766985,-2.513874 1.766985,-2.513874 2.976872,-2.513874 0.665427,0 1.712195,-0.152382 2.32613,-0.338633 1.346285,-0.408406 1.457382,-0.41513 1.457382,-0.08818 0,0.384461 -1.884028,2.926596 -2.877908,3.883225 -1.177702,1.13352 -3.194397,2.001103 -4.6516105,2.001103 -0.632182,0 -1.115328,-0.0967 -1.073634,-0.214876 z M 14.37258,81.721235 c 0.234471,-0.360809 1.08697,-1.523946 1.894307,-2.584749 0.807338,-1.060805 1.563352,-2.138249 1.68001,-2.394324 0.190177,-0.417436 0.37424,-0.456427 1.779503,-0.377025 1.052016,0.05944 1.920018,-0.03161 2.639971,-0.276919 0.589958,-0.20101 1.105313,-0.33281 1.145251,-0.292878 0.164659,0.164612 -2.245462,3.324411 -3.22261,4.225108 -1.378567,1.27072 -3.281132,2.131483 -4.989091,2.257175 -1.353771,0.09962 -1.353771,0.09962 -0.927341,-0.556388 z M 7.3562745,80.940737 c -0.594918,-0.70704 -1.276498,-2.60524 -1.276498,-3.555129 0,-0.458425 0.112181,-0.527217 0.860034,-0.527217 0.746072,0 1.897221,-0.252771 3.5741975,-0.784817 0.314948,-0.09993 0.540969,-0.0043 0.735094,0.310887 0.247688,0.402161 0.08883,0.733142 -1.3643635,2.84188 -0.904593,1.312689 -1.71234,2.391356 -1.795031,2.397037 -0.08257,0.0058 -0.412732,-0.301507 -0.733433,-0.682641 z m 6.7134905,-5.866055 c -0.242897,-0.16283 0.03948,-0.723931 1.304855,-2.592926 0.888151,-1.311822 1.769537,-2.513512 1.958607,-2.670428 0.188973,-0.156908 0.343763,-0.432937 0.343763,-0.613381 0,-0.603619 2.362143,-2.702909 3.884571,-3.45232 1.766672,-0.869626 4.248771,-1.267135 4.008884,-0.642023 -0.30982,0.807379 -4.153732,6.250623 -5.13868,7.27673 -1.672981,1.742883 -5.416411,3.328249 -6.362,2.694348 z M 6.7619585,74.852368 c 0,-0.196292 2.923334,-4.642932 4.2236645,-6.424556 1.418889,-1.944103 4.864945,-3.848801 6.963344,-3.848801 0.522096,0 0.654378,0.0831 0.552958,0.34736 -0.07342,0.191044 -1.166219,1.879662 -2.428705,3.752475 -1.960003,2.907583 -2.510337,3.558489 -3.76642,4.454808 -1.480685,1.056607 -3.6561185,1.905579 -4.8829045,1.905579 -0.364057,0 -0.661937,-0.08409 -0.661937,-0.186855 z M 45.969364,74.554594 c -0.213288,-0.345203 3.910978,-6.421138 5.137259,-7.568184 1.470839,-1.375782 3.624052,-2.428831 5.271876,-2.57825 0.726115,-0.06584 1.32019,-0.05828 1.32019,0.01685 0,0.236061 -4.105296,6.291818 -4.807555,7.091628 -0.870313,0.991246 -2.904967,2.335056 -4.122822,2.722976 -1.373776,0.437581 -2.635468,0.579597 -2.798948,0.315054 z m 6.044428,0.152671 c 0,-0.383375 4.23298,-6.46066 5.202618,-7.469372 0.630304,-0.655718 1.687737,-1.401171 2.642546,-1.862906 1.661425,-0.803436 3.979442,-1.276356 3.979442,-0.811881 0,0.527246 -4.551394,7.03333 -5.495153,7.855159 -1.33071,1.158802 -3.527736,2.168031 -5.065041,2.326694 -0.695422,0.07176 -1.264412,0.05481 -1.264412,-0.0377 z m 7.594684,-0.196989 c -0.387913,-0.146822 -0.927414,-0.420439 -1.198862,-0.60804 -0.487407,-0.336825 -0.478307,-0.352822 0.726139,-1.278478 0.902403,-0.69353 1.822956,-1.832284 3.538617,-4.377377 1.275414,-1.891995 2.399385,-3.43999 2.497723,-3.43999 0.280499,0 1.076234,0.947698 1.501219,1.787907 0.212806,0.420542 0.442222,1.301921 0.510012,1.958619 0.342198,3.315751 -2.326371,6.286541 -5.606684,6.241603 -0.69458,-0.0096 -1.580275,-0.137433 -1.968164,-0.284244 z M 33.367318,74.314369 c 0,-0.501567 4.423638,-6.816345 5.4154,-7.730509 1.280926,-1.180715 3.666252,-2.288501 5.201919,-2.41585 0.664007,-0.05505 1.207288,-0.03382 1.207288,0.04718 0,0.410019 -4.604909,6.957603 -5.395082,7.671145 -1.293421,1.167937 -2.688502,1.935908 -4.260183,2.345177 -1.624954,0.423134 -2.169342,0.443926 -2.169342,0.08286 z m 6.139685,0.179079 c 0,-0.08101 1.013138,-1.662132 2.251384,-3.5136 2.325817,-3.477572 3.682116,-4.919995 5.480083,-5.828026 1.513713,-0.764471 4.09314,-1.225674 4.09314,-0.731856 0,0.498824 -4.501996,6.869194 -5.457503,7.722442 -1.350378,1.205835 -3.645646,2.272651 -5.159817,2.398219 -0.664006,0.05505 -1.207287,0.03382 -1.207287,-0.04718 z M 20.86053,74.098369 c 0,-0.496586 4.60291,-7.030294 5.495153,-7.800208 1.469298,-1.267869 3.472224,-2.205432 5.009239,-2.344803 0.726116,-0.06584 1.320214,-0.05188 1.320214,0.03101 0,0.08291 -1.013138,1.665556 -2.251383,3.517021 -2.468522,3.690956 -3.741071,4.994338 -5.821199,5.962233 -1.350016,0.628181 -3.752024,1.034539 -3.752024,0.634751 z m 6.139685,0.171111 c 0,-0.472951 4.674431,-7.03442 5.577941,-7.829719 1.442336,-1.269607 3.212836,-2.101759 4.893279,-2.2999 1.207913,-0.142416 1.373367,-0.116585 1.290195,0.201444 -0.187289,0.71578 -4.490754,6.784703 -5.382324,7.590182 -1.346501,1.216481 -3.507177,2.228292 -5.058877,2.368994 -0.726116,0.06584 -1.320214,0.05188 -1.320214,-0.03101 z M 5.1623535,73.057359 c -1.161139,-1.830902 -1.359092,-3.073586 -0.793159,-4.979225 0.9862,-3.32091 4.869086,-5.008358 7.9681775,-3.462866 0.605221,0.301823 1.13555,0.65424 1.17852,0.783149 0.04309,0.128911 -0.442775,0.571915 -1.079435,0.984457 -1.325101,0.858633 -2.183979,1.889325 -4.4238075,5.308696 -0.875464,1.336519 -1.721945,2.431845 -1.881019,2.434052 -0.159123,0.0022 -0.595278,-0.47851 -0.969277,-1.068263 z M 13.843454,63.023356 c -0.240249,-0.161049 0.207028,-0.972351 2.010099,-3.645992 2.502225,-3.710602 3.451641,-4.684668 5.594311,-5.739572 1.661256,-0.817887 4.12648,-1.188872 3.895187,-0.586179 -0.30982,0.807379 -4.153732,6.250623 -5.13868,7.27673 -1.672018,1.741865 -5.416459,3.328329 -6.360917,2.695013 z M 6.5345645,62.800367 c 0,-0.196291 2.923334,-4.642931 4.2236405,-6.424556 1.418913,-1.9441 4.864945,-3.8488 6.963368,-3.8488 0.522096,0 0.654378,0.0831 0.552958,0.347362 -0.07342,0.191044 -1.166218,1.879662 -2.428705,3.752475 -1.960027,2.907583 -2.510337,3.558489 -3.76642,4.454808 -1.480709,1.056604 -3.6561185,1.905576 -4.8829045,1.905576 -0.364057,0 -0.661937,-0.08409 -0.661937,-0.186855 z M 45.74197,62.502596 c -0.213288,-0.345203 3.910978,-6.42114 5.137259,-7.568185 1.470839,-1.375781 3.624052,-2.42883 5.271876,-2.578249 0.726116,-0.06584 1.32019,-0.05828 1.32019,0.01685 0,0.23606 -4.105296,6.291817 -4.807555,7.091627 -0.870313,0.991246 -2.904966,2.335057 -4.122822,2.722975 -1.373776,0.437582 -2.635468,0.579599 -2.798948,0.315056 z m 6.044428,0.152671 c 0,-0.383378 4.23298,-6.460661 5.202618,-7.469372 0.630304,-0.65572 1.687737,-1.401174 2.642546,-1.862909 1.661425,-0.803433 3.979442,-1.276353 3.979442,-0.811878 0,0.527246 -4.551394,7.033327 -5.495153,7.855159 -1.33071,1.158802 -3.527736,2.168028 -5.065065,2.326694 -0.695398,0.07176 -1.264388,0.05481 -1.264388,-0.0377 z m 7.594684,-0.19699 c -0.387913,-0.146821 -0.927414,-0.420438 -1.198862,-0.608039 -0.487407,-0.336828 -0.478307,-0.352824 0.726139,-1.278481 0.902403,-0.693527 1.822956,-1.832281 3.538617,-4.377374 1.275414,-1.891995 2.399385,-3.43999 2.497723,-3.43999 0.280475,0 1.076234,0.947695 1.501219,1.787907 0.212806,0.420542 0.442222,1.301921 0.509988,1.958619 0.342222,3.315751 -2.326347,6.286538 -5.60666,6.241603 -0.69458,-0.0096 -1.580275,-0.137433 -1.968164,-0.284245 z M 33.139924,62.262371 c 0,-0.501567 4.423638,-6.816342 5.415376,-7.730507 1.280926,-1.180715 3.666276,-2.288503 5.201919,-2.415852 0.664031,-0.05505 1.207288,-0.03382 1.207288,0.04718 0,0.410019 -4.604885,6.957603 -5.395082,7.671145 -1.293397,1.167937 -2.688478,1.935908 -4.260159,2.345176 -1.624954,0.423132 -2.169342,0.443927 -2.169342,0.08286 z m 6.139685,0.179079 c 0,-0.08101 1.013138,-1.662133 2.251384,-3.513598 2.325817,-3.477572 3.682116,-4.919995 5.480083,-5.828028 1.513713,-0.764471 4.09314,-1.225672 4.09314,-0.731857 0,0.498828 -4.501996,6.869198 -5.457503,7.722443 -1.350378,1.205838 -3.645646,2.272654 -5.159816,2.398221 -0.664007,0.05505 -1.207288,0.03382 -1.207288,-0.04718 z M 20.633136,62.046373 c 0,-0.496586 4.60291,-7.030294 5.495153,-7.800207 1.469298,-1.26787 3.472224,-2.205435 5.009239,-2.344806 0.726116,-0.06584 1.320214,-0.05188 1.320214,0.03101 0,0.08291 -1.013138,1.665558 -2.251383,3.517023 -2.468522,3.690956 -3.741071,4.994338 -5.821199,5.962233 -1.350016,0.628182 -3.752024,1.034539 -3.752024,0.634751 z m 6.139685,0.171111 c 0,-0.472951 4.674431,-7.034422 5.577941,-7.829718 1.442336,-1.269608 3.212836,-2.10176 4.893279,-2.2999 1.207913,-0.142417 1.373367,-0.116586 1.290195,0.201443 -0.187289,0.71578 -4.490754,6.784701 -5.382324,7.590182 -1.346501,1.216478 -3.507177,2.22829 -5.058877,2.368995 -0.726116,0.06584 -1.320214,0.05188 -1.320214,-0.03101 z M 4.9349595,61.005361 c -1.161139,-1.830899 -1.359092,-3.073584 -0.793159,-4.979225 0.986201,-3.32091 4.869062,-5.008358 7.9681535,-3.462864 0.605245,0.301823 1.135574,0.654238 1.178544,0.783149 0.04309,0.128911 -0.442775,0.571915 -1.079435,0.984458 -1.325101,0.858632 -2.183979,1.889324 -4.4238075,5.308693 -0.875488,1.336521 -1.721945,2.431844 -1.881019,2.434054 -0.159123,0.0022 -0.595278,-0.478509 -0.969277,-1.068265 z M 14.626045,50.511055 c -0.08498,-0.137722 0.285145,-0.878955 0.822768,-1.647215 0.537624,-0.768258 1.3868,-2.067367 1.887086,-2.886909 1.976902,-3.238583 4.88678,-5.370263 7.731491,-5.663865 1.63403,-0.168656 1.677675,-0.333219 -0.930182,3.507893 -2.512431,3.700566 -3.658549,4.889858 -5.664339,5.87764 -1.703794,0.839069 -3.584837,1.236346 -3.846824,0.812456 z M 7.4441645,50.293579 c 0,-0.196292 2.9233105,-4.642932 4.2236405,-6.424556 1.418913,-1.944101 4.864945,-3.848801 6.963344,-3.848801 0.522096,0 0.654378,0.0831 0.552982,0.34736 -0.07342,0.191044 -1.166243,1.879664 -2.428705,3.752477 -1.960027,2.907583 -2.510361,3.558489 -3.766444,4.454808 -1.480685,1.056605 -3.6561185,1.905577 -4.8829045,1.905577 -0.364057,0 -0.661913,-0.08409 -0.661913,-0.186855 z M 46.651545,49.995805 c -0.213287,-0.345203 3.911003,-6.421138 5.137284,-7.568182 1.470815,-1.375782 3.624028,-2.42883 5.271852,-2.578249 0.726115,-0.06584 1.320214,-0.0583 1.320214,0.01685 0,0.23606 -4.10532,6.291819 -4.807555,7.091629 -0.870337,0.991246 -2.904991,2.335057 -4.122846,2.722974 -1.373776,0.437583 -2.635444,0.5796 -2.798949,0.315054 z m 6.044453,0.152671 c 0,-0.383377 4.23298,-6.46066 5.202594,-7.469374 0.630304,-0.655718 1.687737,-1.401171 2.64257,-1.862907 1.661401,-0.803433 3.979418,-1.276353 3.979418,-0.811878 0,0.527246 -4.551394,7.033327 -5.495153,7.855159 -1.33071,1.158802 -3.527736,2.168028 -5.065041,2.326694 -0.695422,0.07176 -1.264388,0.05481 -1.264388,-0.0377 z m 7.59466,-0.196989 c -0.387913,-0.146822 -0.92739,-0.420439 -1.198862,-0.60804 -0.487383,-0.336827 -0.478307,-0.352824 0.726139,-1.278481 0.902402,-0.693527 1.822956,-1.832281 3.538617,-4.377374 1.275414,-1.891995 2.399385,-3.43999 2.497723,-3.43999 0.280499,0 1.076233,0.947695 1.501243,1.787907 0.212806,0.420542 0.442198,1.301921 0.509987,1.958619 0.342223,3.315749 -2.32637,6.286538 -5.606683,6.241603 -0.69458,-0.0096 -1.580251,-0.137433 -1.968164,-0.284244 z M 34.0495,49.75558 c 0,-0.501567 4.423638,-6.816342 5.4154,-7.730506 1.280926,-1.180716 3.666252,-2.288504 5.201919,-2.415853 0.664007,-0.05505 1.207288,-0.03385 1.207288,0.04718 0,0.410019 -4.604885,6.957603 -5.395082,7.671145 -1.293421,1.167937 -2.688478,1.935908 -4.260183,2.345177 -1.624954,0.423131 -2.169342,0.443926 -2.169342,0.08286 z m 6.139709,0.179079 c 0,-0.081 1.013114,-1.662132 2.251383,-3.513597 2.325793,-3.477573 3.682093,-4.919998 5.480084,-5.828029 1.513713,-0.764471 4.093116,-1.225674 4.093116,-0.731856 0,0.498827 -4.501972,6.869197 -5.457504,7.722442 -1.350377,1.205838 -3.645645,2.272654 -5.159792,2.398219 -0.664006,0.05505 -1.207287,0.03382 -1.207287,-0.04718 z M 21.542712,49.539582 c 0,-0.496588 4.60291,-7.030294 5.495153,-7.800207 1.469298,-1.26787 3.472224,-2.205435 5.009239,-2.344806 0.726115,-0.06584 1.320214,-0.05188 1.320214,0.03101 0,0.08291 -1.013114,1.665556 -2.251383,3.517023 -2.468522,3.690956 -3.741047,4.994338 -5.821175,5.962234 -1.35004,0.628181 -3.752048,1.034539 -3.752048,0.63475 z m 6.139709,0.171112 c 0,-0.472952 4.674407,-7.034423 5.577916,-7.829719 1.442361,-1.269608 3.212837,-2.10176 4.893304,-2.2999 1.207889,-0.142416 1.373343,-0.116586 1.290171,0.201443 -0.187048,0.715781 -4.490754,6.784701 -5.382324,7.590182 -1.346501,1.216479 -3.507177,2.22829 -5.058853,2.368995 -0.726116,0.06584 -1.320214,0.05188 -1.320214,-0.03101 z M 5.8445355,48.49857 c -1.161115,-1.830902 -1.359068,-3.073584 -0.793159,-4.979225 0.9862,-3.32091 4.869086,-5.008358 7.9681775,-3.462864 0.605221,0.301821 1.135574,0.654238 1.178544,0.783149 0.04285,0.128911 -0.442799,0.571916 -1.079459,0.984458 -1.325077,0.85863 -2.183979,1.889324 -4.4238075,5.308693 -0.875464,1.336521 -1.721921,2.431845 -1.881019,2.434054 -0.159123,0.0022 -0.595254,-0.478509 -0.969277,-1.068265 z M 21.940663,39.091682 c -0.307581,-0.336883 -0.707723,-0.435843 -1.762315,-0.435843 -0.750405,0 -1.364388,-0.08276 -1.364388,-0.183918 0,-0.393223 1.662942,-2.929939 2.458748,-3.750691 1.602687,-1.652891 3.930719,-2.795544 5.344529,-2.623215 0.632062,0.07703 0.632062,0.07703 -1.223152,3.260588 -1.733114,2.974061 -2.612358,4.233073 -2.924561,4.187879 -0.07198,-0.01035 -0.309989,-0.215093 -0.528861,-0.454793 z M 14.087434,38.79443 c -0.971491,-0.495618 -0.971491,-0.495618 -0.284398,-1.532945 0.759889,-1.147203 2.886213,-2.924963 4.108883,-3.435322 0.990317,-0.413375 2.435325,-0.690821 2.710913,-0.520507 0.11507,0.07116 -0.240489,0.869169 -0.790149,1.77335 -0.549732,0.904182 -1.173441,1.98593 -1.38603,2.403884 -0.212565,0.417956 -0.523299,0.81241 -0.690487,0.876564 -0.167067,0.06415 -0.253248,0.198699 -0.19138,0.299007 0.06211,0.100288 -0.09076,0.129128 -0.339623,0.06408 -0.248795,-0.06507 -0.838007,0.03601 -1.309357,0.224626 -0.803028,0.32131 -0.91817,0.311693 -1.828492,-0.152719 z m 26.59183,-0.491099 c -0.293282,-0.291874 -0.488827,-0.613365 -0.43459,-0.714426 1.361186,-2.535729 3.250077,-5.423146 4.085821,-6.245698 1.377676,-1.355919 3.564784,-2.465402 4.860034,-2.465402 0.969831,0 0.969831,0 -0.889065,3.234459 -1.199271,2.086735 -2.302659,3.686339 -3.109539,4.507925 -1.139257,1.159998 -1.594141,1.422642 -3.638352,2.100681 -0.187529,0.06223 -0.581051,-0.125661 -0.874309,-0.417539 z M 24.845702,38.144208 c 0.264081,-0.90025 2.612815,-4.706846 3.371766,-5.46462 0.63666,-0.635694 3.10328,-1.715644 3.10328,-1.358704 0,0.178213 -1.93942,3.529188 -3.014859,5.209178 -0.706833,1.104137 -1.096022,1.47543 -1.847221,1.76232 -1.37173,0.523868 -1.798594,0.484653 -1.612966,-0.148169 z m 3.678986,0.209411 c -0.14853,-0.387094 2.382437,-4.813085 3.29625,-5.764261 0.938897,-0.977284 2.966449,-2.015554 4.577417,-2.344019 0.729052,-0.148651 1.362847,-0.233003 1.408393,-0.187433 0.169234,0.169162 -3.478915,6.136063 -4.217212,6.897808 -0.555076,0.572698 -0.963451,0.79054 -1.481912,0.79054 -0.393618,0 -1.310513,0.204645 -2.037542,0.454793 -1.568624,0.539684 -1.403122,0.523343 -1.545394,0.152575 z m 6.03581,-0.147062 c -0.244269,-0.391134 -0.116272,-0.722254 0.988054,-2.558206 2.000374,-3.325316 2.397146,-3.834376 3.788255,-4.860194 1.451147,-1.070095 3.208094,-1.751085 4.234304,-1.641215 0.672167,0.07198 0.672167,0.07198 -1.365833,3.482907 -2.639079,4.416951 -3.188667,4.971163 -5.520237,5.566626 -0.989282,0.252654 -1.808873,0.459372 -1.821318,0.459372 -0.01204,0 -0.148772,-0.20219 -0.303225,-0.44929 z m 12.109487,0.04531 c -0.375202,-0.21555 -0.712802,-0.405467 -0.75026,-0.422058 -0.03731,-0.01661 0.67691,-1.295693 1.587425,-2.842451 1.9328,-3.283421 3.273139,-4.731041 5.243469,-5.663162 1.268217,-0.599967 3.128918,-0.915266 3.128918,-0.530204 0,0.07896 -0.531436,1.07666 -1.180951,2.217113 -2.773311,4.869546 -3.686546,5.970666 -5.869176,7.076688 -1.320311,0.669059 -1.285019,0.66638 -2.159425,0.164082 z M 7.3640735,37.713856 c 0.353176,-1.850312 1.942262,-3.739468 3.6078995,-4.289176 1.123947,-0.370934 3.493071,-0.175757 4.404934,0.36289 0.389574,0.230114 0.705148,0.473085 0.701272,0.539922 -0.0048,0.06683 -0.469304,0.469843 -1.034298,0.895572 -0.564995,0.42573 -1.354615,1.229885 -1.754733,1.787012 -0.72597,1.010909 -0.72975,1.012705 -1.864986,0.886911 -1.055892,-0.116995 -2.0320785,-0.0046 -3.5812755,0.412287 -0.607868,0.163601 -0.620651,0.147688 -0.478813,-0.595418 z m 44.9563125,0.413041 c -0.716703,-0.266944 -0.716703,-0.266944 0.474119,-2.322613 2.670952,-4.610816 3.51943,-5.5794 5.927553,-6.766444 1.192049,-0.587608 2.706364,-0.953126 3.055303,-0.737475 0.352838,0.218078 -3.416543,6.491614 -4.666175,7.766101 -1.090605,1.1123 -3.140039,2.382754 -3.782308,2.344676 -0.160567,-0.0096 -0.61432,-0.137433 -1.008492,-0.284245 z m 5.61795,-0.176841 c -1.201028,-0.479679 -1.20772,-0.650198 -0.06572,-1.67739 0.703534,-0.632835 1.728204,-2.062737 2.955929,-4.124887 1.033528,-1.735958 1.974663,-3.307095 2.091442,-3.49142 0.178622,-0.282075 0.307725,-0.246074 0.81492,0.227394 1.04867,0.97896 1.549678,2.225291 1.55158,3.859776 0.0024,2.290182 -1.138992,4.111926 -3.15352,5.032063 -0.995806,0.454841 -3.257059,0.548892 -4.194584,0.174457 z"
       id="path22" /><path
       id="rect25"
       style="display:none;opacity:1;fill:#d32f2f;stroke-width:0.2;stroke-linejoin:round"
       d="m 166.33379,90.501202 1.18073,-0.818513 1.23122,0.82427 0.002,0.297764 0.44619,-0.0021 -0.22115,21.252807 -0.23179,0.31203 0.005,0.98509 -2.30647,2.31119 z" /><path
       id="rect26"
       style="display:none;opacity:1;fill:#d32f2f;stroke-width:0.2"
       d="m 169.77982,96.126434 13.87973,-4.718143 3.50678,5.140533 -0.27632,0.346129 0.40532,0.616201 2.63319,4.570266 -12.50239,0.0454 -5.23197,6.91697 -0.3488,-0.56866 -0.17694,0.20627 -2.69889,2.93973 z" /><path
       style="fill:#d32f2f;fill-opacity:1;stroke:#222222;stroke-width:0.244019;stroke-dasharray:none;stroke-opacity:1;paint-order:stroke markers fill"
       d="m 181.33571,170.98564 c 0.0951,-0.15888 0.99521,-1.47106 2.00011,-2.91575 1.74491,-2.50851 1.85069,-2.61775 2.35088,-2.42755 0.72313,0.27489 1.66008,0.24918 2.93106,-0.0806 0.5959,-0.15479 1.07806,-0.19427 1.07806,-0.0886 0,0.10495 -0.41754,0.77606 -0.92787,1.49118 -1.88386,2.64004 -3.93907,4.01605 -6.27878,4.20387 -1.09987,0.0883 -1.29693,0.0571 -1.15346,-0.18247 z m 5.86167,-0.13385 c 0.56083,-1.00403 4.1051,-5.7275 4.27027,-5.69103 0.10496,0.0243 0.4881,0.15792 0.85134,0.29939 0.50221,0.19572 0.97255,0.20438 1.96272,0.0368 0.71623,-0.12133 1.33134,-0.19596 1.36687,-0.16587 0.0356,0.0301 -0.45575,0.78478 -1.09181,1.67724 -1.84943,2.59491 -4.38899,4.20516 -6.6321,4.20516 -0.82419,0 -0.90639,-0.0409 -0.72729,-0.36158 z m -21.674,-0.0465 c 0,-0.33274 2.61631,-4.36456 3.05343,-4.70539 0.18223,-0.14203 0.755,-0.26131 1.27303,-0.26502 0.51803,-0.005 1.43035,-0.17549 2.02736,-0.38172 1.57789,-0.54509 1.70408,-0.22581 0.57544,1.45678 -1.0765,1.60468 -2.27148,2.67615 -3.78127,3.3904 -1.28993,0.61022 -3.14799,0.9083 -3.14799,0.50495 z m 5.37164,0.0217 c 0,-0.13024 0.71164,-1.30548 1.58138,-2.61142 1.58143,-2.37445 1.58143,-2.37445 2.63419,-2.38119 0.57903,-0.005 1.56412,-0.18656 2.18911,-0.40645 0.62496,-0.21978 1.20603,-0.40276 1.29125,-0.40647 0.6643,-0.0291 -0.87984,2.47002 -2.38174,3.85438 -0.51605,0.47571 -1.42428,1.11114 -2.01828,1.41218 -1.17763,0.59674 -3.29591,0.94315 -3.29591,0.53897 z m 5.42178,-0.0667 c 0.0655,-0.1702 0.79366,-1.34665 1.61857,-2.61434 1.4998,-2.30489 1.4998,-2.30489 2.44645,-2.30733 0.80469,-0.002 1.93066,-0.24073 3.58079,-0.75866 0.55428,-0.17405 0.44042,0.18248 -0.51591,1.61562 -1.74356,2.61255 -3.7778,4.05941 -5.98949,4.25996 -1.0629,0.0963 -1.24063,0.066 -1.14041,-0.19523 z m 16.82344,-0.29504 c 2.48393,-3.58674 3.51272,-5.01896 3.93207,-5.47401 0.49764,-0.53996 0.49764,-0.53996 1.26078,-0.14155 0.60772,0.31725 1.005,0.37253 1.95107,0.27142 0.65339,-0.0698 1.18796,-0.0802 1.18796,-0.0243 0,0.27144 -2.02048,2.9489 -2.7698,3.67046 -1.211,1.1661 -3.19673,2.09144 -4.72539,2.20201 -1.24903,0.0903 -1.24903,0.0903 -0.83669,-0.50505 z m 5.27689,0.31444 c 0.26528,-0.68307 3.96519,-5.79876 4.54954,-6.29047 0.53933,-0.45383 0.66814,-0.49003 0.81427,-0.22894 0.26256,0.46916 1.55276,0.81743 2.47942,0.66923 0.94461,-0.15118 0.98803,-0.29506 -0.59667,1.97984 -1.33052,1.91 -2.11448,2.62644 -3.689,3.37131 -1.38155,0.65358 -3.74644,0.98529 -3.55756,0.49901 z m 5.4178,0.0409 c 0.50236,-0.81285 3.98019,-5.59248 4.39471,-6.03973 0.2771,-0.29902 0.87358,-0.71038 1.32555,-0.91418 0.80542,-0.36319 0.84006,-0.36162 1.7465,0.0787 0.50864,0.24711 1.06174,0.44932 1.22917,0.44932 0.42309,0 0.39292,0.10424 -0.34814,1.20238 -1.85712,2.75203 -2.72825,3.71413 -4.078,4.50399 -1.18285,0.6922 -1.56699,0.80862 -2.8891,0.87554 -1.09658,0.0556 -1.48437,0.012 -1.38069,-0.15623 z m 5.79961,-0.26752 c -0.82474,-0.43464 -0.82474,-0.43464 -0.22003,-0.86892 1.31449,-0.94398 2.24546,-1.90887 3.33912,-3.46079 1.0195,-1.44669 1.21425,-1.62204 1.80165,-1.62204 0.36223,0 0.97963,-0.092 1.37202,-0.20438 0.39237,-0.11242 0.79222,-0.12566 0.88856,-0.0296 0.0963,0.0963 0.22918,0.69896 0.29533,1.33918 0.20342,1.97233 -0.84133,4.08269 -2.42028,4.88823 -1.15639,0.58993 -3.90082,0.56733 -5.05637,-0.0417 z m -45.5241,-1.12152 c -0.57997,-0.70363 -1.06629,-2.03995 -1.06629,-2.93007 0,-0.32853 0.19523,-0.41628 1.14407,-0.5142 0.62922,-0.065 1.55543,-0.27518 2.05822,-0.46721 1.01374,-0.38715 1.54956,-0.29574 1.54956,0.26432 0,0.42869 -2.5995,4.39518 -2.88046,4.39518 -0.10376,0 -0.46596,-0.33659 -0.8051,-0.74802 z m -1.6861,-4.61911 c 0,-0.52511 3.54822,-5.92912 4.58582,-6.98434 1.27715,-1.29879 3.2676,-2.33843 4.74966,-2.48084 1.31612,-0.12639 1.36848,-0.29837 -1.09747,3.60265 -2.08718,3.30183 -3.1144,4.36521 -5.0933,5.27269 -1.49597,0.68599 -3.14471,0.99523 -3.14471,0.58984 z m 5.57828,-0.0686 c 0,-0.40553 3.75051,-6.02194 4.62007,-6.91862 1.38856,-1.43184 3.51871,-2.52102 4.93038,-2.52102 1.02426,0 1.02426,0 0.64369,0.6232 -3.64873,5.97486 -4.57369,7.08443 -6.82279,8.18481 -1.02048,0.49928 -3.37135,0.93972 -3.37135,0.63163 z m 5.78482,-0.11459 c 0,-0.12999 0.83849,-1.56075 1.8633,-3.17944 2.09535,-3.30964 3.39478,-4.68026 5.26923,-5.55789 1.40604,-0.65833 3.1976,-0.99858 3.1976,-0.60732 0,0.49653 -3.59528,5.94682 -4.61957,7.00302 -0.58753,0.60585 -1.61665,1.36906 -2.30343,1.7083 -1.33557,0.65969 -3.40713,1.04477 -3.40713,0.63333 z m 5.57826,0.0616 c 0,-0.0936 0.89429,-1.59496 1.9873,-3.33631 2.19775,-3.50135 3.1657,-4.52096 5.20875,-5.48668 1.44761,-0.68423 3.13407,-0.99075 3.13407,-0.56964 0,0.51456 -3.02713,5.4785 -3.97609,6.41694 -0.5389,0.53295 -2.18085,1.8743 -2.8919,2.22389 -1.25461,0.61685 -3.46213,1.09621 -3.46213,0.7518 z m 6.83022,-0.42243 c 0.007,-0.10111 0.78567,-1.71896 1.95444,-3.42343 2.96999,-4.3312 5.20837,-5.74742 7.95621,-5.74742 1.02359,0 1.02359,0 -1.02154,3.06258 -2.22856,3.33731 -3.50559,4.66022 -5.33326,5.52486 -1.1453,0.54181 -3.57988,0.94125 -3.55585,0.58341 z m -25.08334,-0.66765 c -0.63799,-0.6659 -1.37407,-2.43525 -1.37407,-3.30287 0,-1.82047 1.29819,-3.97378 2.8832,-4.78242 1.57397,-0.80295 4.03342,-0.66487 5.27759,0.29634 0.40327,0.31155 0.39335,0.33519 -0.41322,0.98473 -1.46658,1.18107 -2.09158,1.95021 -3.81591,4.69581 -0.93115,1.48264 -1.76095,2.6957 -1.84395,2.6957 -0.083,0 -0.40416,-0.26427 -0.71364,-0.58729 z m 31.47567,0.30113 c 0,-0.4297 4.24696,-6.39115 5.06783,-7.11372 1.31047,-1.15351 2.91907,-1.90955 4.44583,-2.08959 1.09745,-0.12928 1.24778,-0.10592 1.17219,0.18295 -0.17019,0.65034 -4.08006,6.16427 -4.89012,6.89611 -1.22337,1.10522 -3.18645,2.02452 -4.59627,2.15237 -0.6597,0.0597 -1.19946,0.0472 -1.19946,-0.0282 z m 5.99144,-0.20967 c 0,-0.0737 0.92048,-1.51013 2.04551,-3.19228 2.11311,-3.15959 3.34541,-4.4701 4.97896,-5.29511 1.37529,-0.69455 3.71885,-1.11357 3.71885,-0.66492 0,0.45322 -4.09032,6.24106 -4.95845,7.01628 -1.2269,1.09557 -3.31228,2.06484 -4.68798,2.1789 -0.6033,0.0501 -1.09689,0.0308 -1.09689,-0.0429 z m 6.19806,-0.21883 c 0,-0.34831 3.84589,-5.86987 4.72684,-6.78633 0.5727,-0.59579 1.53343,-1.27306 2.40093,-1.69258 1.50947,-0.72994 3.61555,-1.15964 3.61555,-0.73762 0,0.47903 -4.13522,6.39017 -4.99268,7.13684 -1.20902,1.05283 -3.2051,1.96978 -4.60185,2.11393 -0.63184,0.0652 -1.14879,0.0498 -1.14879,-0.0342 z m 6.90018,-0.17886 c -0.35245,-0.13336 -0.84258,-0.38201 -1.08923,-0.55245 -0.44283,-0.30604 -0.43457,-0.32056 0.65972,-1.16155 0.8199,-0.63014 1.65627,-1.66475 3.21505,-3.97711 1.15878,-1.71896 2.17998,-3.12542 2.26932,-3.12542 0.25484,0 0.97782,0.86104 1.36395,1.62442 0.19331,0.38206 0.40178,1.18288 0.46336,1.7795 0.31093,3.01255 -2.11364,5.71167 -5.09398,5.67084 -0.63107,-0.01 -1.43576,-0.12494 -1.78819,-0.25823 z m -43.54149,-9.05958 c -0.41451,-0.21256 -0.75363,-0.51552 -0.75363,-0.67303 0,-0.39581 1.75656,-2.14517 2.58431,-2.77654 1.01133,-0.77139 2.59108,-1.67473 3.35547,-1.67702 0.36931,-0.001 0.67147,0.0424 0.67147,0.0965 0,0.0542 -0.54867,1.09323 -1.21932,2.3088 -1.21928,2.21012 -1.21928,2.21012 -2.55196,2.65896 -1.31487,0.44283 -1.34275,0.44367 -2.08634,0.0621 z m 5.77748,0.0169 c -0.27585,-0.2169 -0.6441,-0.39451 -0.81831,-0.39451 -0.61993,0 -0.57867,-0.45477 0.13938,-1.5363 0.80597,-1.21383 2.05555,-2.3144 3.39257,-2.98789 0.94335,-0.47521 2.74444,-0.81452 2.72829,-0.51401 -0.005,0.10086 -0.5992,1.25156 -1.31952,2.55752 -1.30418,2.36455 -1.31443,2.37632 -2.46527,2.82206 -1.14075,0.44186 -1.1621,0.44256 -1.65716,0.0532 z m 5.65839,-0.0847 c -0.14154,-0.17068 -0.56574,-0.30992 -0.94282,-0.30992 -0.37708,0 -0.74479,-0.0956 -0.81711,-0.2128 -0.20341,-0.32913 0.90178,-2.05575 2.00146,-3.12688 0.54489,-0.53076 1.4979,-1.21313 2.1178,-1.51643 1.13861,-0.55707 2.80574,-0.91851 2.80574,-0.6083 0,0.0924 -0.65751,1.36143 -1.46111,2.81977 -1.25549,2.27835 -1.56434,2.69464 -2.19455,2.95795 -0.92195,0.38522 -1.18736,0.38462 -1.50941,-0.002 z m 5.60703,-0.11026 c -0.32198,-0.26824 -0.79593,-0.40635 -1.39458,-0.40635 -0.49875,0 -0.90681,-0.0479 -0.90681,-0.1064 0,-0.0585 0.28825,-0.61723 0.64056,-1.2415 1.25267,-2.21953 3.73313,-4.10809 5.75117,-4.37879 0.46165,-0.0619 0.83933,-0.0424 0.83933,0.0429 0,0.0857 -0.71788,1.48683 -1.59525,3.11392 -1.84389,3.41941 -2.3066,3.83241 -3.33442,2.97613 z m -23.16239,-0.64176 c 0.01,-1.00743 0.82612,-2.45451 1.81316,-3.20889 1.45375,-1.11109 3.71803,-1.3529 5.25002,-0.56071 0.75088,0.38833 0.7264,0.56382 -0.17453,1.25091 -0.41233,0.31449 -1.10291,1.04997 -1.53468,1.63439 -0.785,1.06263 -0.785,1.06263 -1.8278,0.96244 -0.92512,-0.0888 -2.20379,0.10568 -3.1956,0.48628 -0.27036,0.10375 -0.33536,-0.007 -0.33071,-0.56442 z m 25.81945,0.4759 c 0,-0.10351 0.51574,-1.07356 1.14609,-2.15588 1.31793,-2.26294 2.87603,-3.85927 4.48327,-4.59333 1.2081,-0.55178 2.84132,-0.88483 2.84132,-0.57942 0,0.28621 -3.2826,5.87739 -3.75092,6.38889 -0.32535,0.35527 -0.71769,0.45614 -2.11345,0.54323 -0.94267,0.0587 -1.91474,0.21449 -2.16012,0.34569 -0.24542,0.1312 -0.44619,0.15431 -0.44619,0.0508 z m 5.51689,-0.30823 c -0.17838,-0.46459 2.39156,-4.70313 3.55465,-5.86282 1.24518,-1.24154 2.78388,-2.06227 4.23734,-2.26015 1.24566,-0.16947 1.28528,-0.32599 -0.84557,3.33629 -1.86506,3.20544 -2.76294,4.23533 -3.69232,4.23533 -0.35686,0 -1.18931,0.18585 -1.84982,0.41322 -1.4253,0.49037 -1.27479,0.47556 -1.40428,0.13818 z m 5.67166,-0.45842 c -0.26647,-0.26517 -0.44413,-0.55725 -0.39485,-0.64908 1.2367,-2.30384 2.95287,-4.9272 3.71221,-5.67457 1.25165,-1.23192 3.23879,-2.23993 4.4156,-2.23993 0.88112,0 0.88112,0 -0.80778,2.93867 -1.08959,1.8959 -2.09209,3.34926 -2.82518,4.09571 -1.0351,1.0539 -1.44838,1.29253 -3.30564,1.90859 -0.17044,0.0566 -0.52792,-0.11411 -0.79436,-0.37939 z m 5.41154,-0.57347 c -0.65115,-0.24256 -0.65115,-0.24256 0.43077,-2.11024 2.4267,-4.18917 3.19762,-5.06921 5.3855,-6.14768 1.08304,-0.53387 2.45889,-0.86598 2.77593,-0.67003 0.32056,0.19812 -3.10412,5.89799 -4.23948,7.05593 -0.99089,1.01056 -2.85289,2.16484 -3.43642,2.13025 -0.14589,-0.01 -0.55816,-0.12494 -0.9163,-0.25823 z m 5.10426,-0.16057 c -1.09123,-0.43582 -1.09732,-0.59075 -0.0597,-1.52399 0.63921,-0.57499 1.57019,-1.87414 2.68564,-3.74772 0.93901,-1.57721 1.79409,-3.00465 1.9002,-3.17213 0.16225,-0.2563 0.27956,-0.22339 0.74037,0.20655 0.95278,0.88945 1.40801,2.02182 1.40971,3.50684 0.002,2.08078 -1.03482,3.73592 -2.86512,4.57191 -0.90479,0.41323 -2.95925,0.49869 -3.811,0.15864 z"
       id="path27" /></g></svg>
