<?xml version="1.0" encoding="UTF-8" standalone="no"?>
<!-- Created with Inkscape (http://www.inkscape.org/) -->

<svg
   width="297mm"
   height="210mm"
   viewBox="0 0 297 210"
   version="1.1"
   id="svg1"
   xml:space="preserve"
   inkscape:export-filename="Logo.svg"
   inkscape:export-xdpi="96"
   inkscape:export-ydpi="96"
   xmlns:inkscape="http://www.inkscape.org/namespaces/inkscape"
   xmlns:sodipodi="http://sodipodi.sourceforge.net/DTD/sodipodi-0.dtd"
   xmlns:xlink="http://www.w3.org/1999/xlink"
   xmlns="http://www.w3.org/2000/svg"
   xmlns:svg="http://www.w3.org/2000/svg"><sodipodi:namedview
     id="namedview1"
     pagecolor="#ffffff"
     bordercolor="#000000"
     borderopacity="0.25"
     inkscape:showpageshadow="2"
     inkscape:pageopacity="0.0"
     inkscape:pagecheckerboard="0"
     inkscape:deskcolor="#d1d1d1"
     inkscape:document-units="mm"
     showguides="true"><inkscape:page
       x="0"
       y="0"
       width="297"
       height="210"
       id="page2"
       margin="0"
       bleed="0" /></sodipodi:namedview><defs
     id="defs1"><linearGradient
       id="linearGradient28"
       inkscape:collect="always"><stop
         style="stop-color:#d32f2f;stop-opacity:1;"
         offset="0"
         id="stop28" /><stop
         style="stop-color:#931d1d;stop-opacity:1;"
         offset="1"
         id="stop29" /></linearGradient><inkscape:path-effect
       effect="skeletal"
       id="path-effect7"
       is_visible="true"
       lpeversion="1"
       pattern="M 0,0 H 1"
       copytype="single_stretched"
       prop_scale="1"
       scale_y_rel="false"
       spacing="0"
       normal_offset="0"
       tang_offset="0"
       prop_units="false"
       vertical_pattern="false"
       hide_knot="false"
       fuse_tolerance="-0.1" /><linearGradient
       inkscape:collect="always"
       xlink:href="#linearGradient28"
       id="linearGradient29"
       x1="145.96104"
       y1="88.468063"
       x2="206.87547"
       y2="89.531326"
       gradientUnits="userSpaceOnUse" /></defs><g
     inkscape:label="Ebene 1"
     inkscape:groupmode="layer"
     id="layer1"><rect
       style="opacity:1;fill:#0e0e0e;fill-opacity:1;fill-rule:nonzero;stroke:none;stroke-width:0.1;stroke-linejoin:miter;stroke-dasharray:none;stroke-opacity:1;paint-order:normal"
       id="rect31"
       width="159.41145"
       height="128.58749"
       x="110.99271"
       y="28.574999" /><path
       d="M 148.27447,127.18853 V 50.521615 h 38.77743 l 7.04061,24.081142 0,0 c 0.72728,2.524619 1.41967,5.059167 2.10167,7.596396 l 0,1.5e-5 v 0 c 0.84613,3.111672 1.66721,6.230133 2.46946,9.353405 v 0 c 0,5e-6 0,1e-5 0,1.5e-5 0.28631,1.070047 0.5296,2.151067 0.78885,3.227987 0,5e-6 0,1e-5 0,1.5e-5 0.10928,0.453952 0.21805,0.908143 0.34177,1.358374 0,5e-6 0,1e-5 0,1.5e-5 0.0379,0.138068 0.0763,0.276196 0.12407,0.411166 0,5e-6 1e-5,1e-5 1e-5,1.5e-5 0.0136,0.03839 0.0276,0.0768 0.0461,0.113059 l 0,0 c 0.008,0.01637 0.0157,0.03932 0.0339,0.04168 -0.003,0.0088 -0.006,0.02145 -0.009,0.02939 -0.002,0.0079 -0.005,0.02086 -0.01,0.02796 -0.001,-0.0045 -1e-4,-0.0084 6.7e-4,-0.01269 0.002,-0.01063 0.004,-0.0212 0.006,-0.03176 0,-5e-6 0,-1e-5 0,-1.5e-5 0.0101,-0.04693 0.0211,-0.09363 0.0322,-0.140325 1e-5,-5e-6 1e-5,-1.1e-5 1e-5,-1.6e-5 0.0573,-0.241633 0.11755,-0.482539 0.1777,-0.723472 0,-5e-6 0,-1.1e-5 0,-1.6e-5 l 0,0 c 0,-5e-6 0,-1e-5 0,-1.5e-5 0.35831,-1.435367 0.72644,-2.868258 1.09379,-4.301335 l 1e-5,-1.5e-5 0,-1.6e-5 c 0.80115,-3.11896 1.60632,-6.236886 2.41691,-9.353405 0.682,-2.537234 1.37439,-5.071786 2.10168,-7.596411 l 6.93551,-24.081142 h 32.73356 l 0,1.6e-5 v 57.287809 c 0.0177,0.0532 0.0756,0.083 0.13166,0.0816 0.086,-0.002 0.16841,-0.0333 0.24954,-0.0619 0.2326,-0.0819 0.46397,-0.17769 0.70925,-0.203 1e-5,0 1e-5,0 2e-5,-1e-5 0.27634,-0.0285 0.56458,0.0701 0.75044,0.27655 0.34896,0.38769 0.43989,0.94079 0.5048,1.45835 l -0.47857,1.46473 c -0.0687,0.19868 -0.12135,0.40263 -0.1523,0.6099 l 0,0 c -0.0199,0.13341 -0.0347,0.27138 -0.002,0.40233 l 0,0 c 0.0237,0.0959 0.10402,0.18049 0.2028,0.17923 l 0,0 c 0.35541,-0.005 0.76115,-0.041 0.99503,0.22665 0,0 1e-5,1e-5 1e-5,1e-5 0.36628,0.41921 0.25273,1.0585 0.0807,1.58795 0,0 -10e-6,1e-5 -10e-6,1e-5 -0.18802,0.57882 -0.46801,1.16186 -0.3983,1.76644 0,1e-5 0,1e-5 0,2e-5 0.0163,0.14201 0.0672,0.27773 0.11728,0.41162 l 0,0 c 0.0224,0.0598 0.046,0.11923 0.0706,0.1782 0.0114,0.0273 0.025,0.0593 0.037,0.0863 l -2.81759,2.73841 v 2e-5 8.50635 h 0 -21.43707 0 c 0.0255,-2.83535 0.004,-5.67094 0.001,-8.5064 v 0 c -8e-5,-0.0695 -0.0487,-0.13575 -0.11797,-0.13055 l 0,0 c -0.0977,0.007 -0.19,0.0473 -0.28595,0.0673 l 0,0 c -0.28955,0.0604 -0.56476,-0.14921 -0.67266,-0.42462 l 0,0 c -0.087,-0.22194 -0.2728,-0.38525 -0.45307,-0.54119 l 0,0 -3e-5,-2e-5 c -0.18581,-0.16074 -0.30969,-0.38918 -0.32759,-0.63422 -0.024,-0.32778 -0.004,-0.73539 -0.29954,-0.87973 l 0,0 c -1e-5,0 -2e-5,-1e-5 -3e-5,-1e-5 -0.595,-0.29092 -1.07358,-0.87306 -1.072,-1.53537 0.002,-0.80518 0.43514,-1.54557 0.89276,-2.20807 0.15133,-0.21908 0.0379,-0.51299 -0.0191,-0.77309 -0.06,-0.27422 0.0611,-0.56174 0.25652,-0.76325 1e-5,0 1e-5,-1e-5 2e-5,-2e-5 0.23005,-0.23718 0.5247,-0.4007 0.81963,-0.54969 1e-5,0 2e-5,0 3e-5,-1e-5 0.28665,-0.1448 0.58397,-0.26793 0.86867,-0.41652 1e-5,0 1e-5,-1e-5 2e-5,-1e-5 0.16707,-0.0872 0.40381,-0.1754 0.40383,-0.36385 7.5e-4,-6.30936 -0.028,-12.619687 0.1104,-18.927532 0.1148,-3.048543 0.21836,-6.097503 0.31525,-9.146668 0,-1.1e-5 0,-2.1e-5 0,-3.2e-5 0.10616,-3.34121 0.19336,-6.683019 0.26271,-10.025196 0.005,-0.01 0.008,-0.02579 0.0186,-0.02682 0.008,-7.91e-4 0.004,0.01522 0.004,0.02376 0,1.1e-5 0,2.1e-5 0,3.2e-5 -0.004,0.06346 -0.0198,0.125612 -0.033,0.187831 0,1.1e-5 0,2.1e-5 0,3.2e-5 -0.0608,0.287 -0.13331,0.571391 -0.20464,0.85596 0,1.1e-5 -1e-5,2.1e-5 -1e-5,3.2e-5 -0.24994,0.997124 -0.51178,1.991226 -0.77007,2.986222 0,1e-5 0,2.1e-5 0,3.1e-5 -0.2985,1.149865 -0.59652,2.299884 -0.88169,3.453127 -0.20029,0.810022 -0.41511,1.618195 -0.55002,2.441635 -0.78043,3.038305 -1.5819,6.071264 -2.41691,9.095024 l 0,0 c -0.64388,2.331562 -1.29887,4.660244 -1.99658,6.976265 0,1.1e-5 -1e-5,2.1e-5 -1e-5,3.1e-5 l -8.75654,29.530535 -17.79555,-0.20716 -15.8907,-29.323375 c -0.31525,-1.060134 -1.07286,-1.922033 -1.73412,-2.808604 -0.80098,-1.073905 -1.54845,-2.217787 -1.91563,-3.506203 0,-10e-6 -1e-5,-2.1e-5 -1e-5,-3.1e-5 -0.43209,-1.516199 -0.39763,-3.120827 -0.40527,-4.697374 0,-1.1e-5 0,-2.1e-5 0,-3.2e-5 -0.008,-1.697985 -0.0235,-3.417365 -0.45712,-5.059076 -0.86973,-3.327664 -1.75157,-6.65216 -2.64507,-9.97352 -0.81153,-3.169723 -1.62393,-6.339225 -2.43759,-9.508402 0,-10e-6 -1e-5,-2.1e-5 -1e-5,-3.1e-5 h 2.74878 c 0,3.186945 0.0391,6.373821 0.10374,9.56011 0.1028,3.346174 0.11265,6.694721 0.0719,10.042226 v 0 c -0.003,0.219759 -3e-4,0.439556 1.3e-4,0.659331 v 0 l 0,3.2e-5 v 0 c 0.001,0.518176 0.003,1.036351 0.004,1.554526 v 0 l 0,3.2e-5 v 0 c 0.005,1.759174 0.0115,3.518346 0.0178,5.277516 0,1.1e-5 0,2.2e-5 0,3.2e-5 0.0185,5.202235 0.0383,10.404466 0.0578,15.606693 0,1e-5 0,3e-5 0,4e-5 0.0193,5.14777 0.0388,10.29555 0.0568,15.44333 0,10e-6 0,2e-5 0,3e-5 0.006,1.69112 0.0118,3.38223 0.0165,5.07335 0,10e-6 0,2e-5 0,3e-5 0.001,0.47395 0.003,0.9479 0.003,1.42186 0,1e-5 0,2e-5 0,3e-5 1.6e-4,0.1252 3.3e-4,0.25041 1.3e-4,0.37561 -5e-5,0.0323 -1e-4,0.0646 -3.3e-4,0.0969 -6e-5,0.008 -1.3e-4,0.0166 -2.8e-4,0.0249 -9.5e-4,-0.005 -0.001,-0.0119 -0.001,-0.0186 -4.7e-4,-0.0269 -7.6e-4,-0.0538 -0.001,-0.0808 z"
       id="text7"
       style="font-weight:900;font-size:105.833px;font-family:'noto Sans Tamil UI';-inkscape-font-specification:'noto Sans Tamil UI Heavy';fill:#222222;fill-opacity:1;stroke:#9e9e9e;stroke-width:0.108228;stroke-linejoin:round;stroke-dasharray:none;stroke-opacity:1"
       aria-label="M"
       sodipodi:nodetypes="cccccccscccccccsssccccssssssscsccsccccscccccscc"
       inkscape:original-d="M 148.27447,127.18853 V 50.521615 h 38.77743 l 7.04061,24.081142 c 0.59547,2.067051 1.29603,4.599188 2.10167,7.596411 0.80564,2.962773 1.62879,6.080574 2.46946,9.353405 0.47015,1.757164 1.18853,5.1334 1.33474,5.152323 0,0 -0.28061,0.984017 1.29236,-5.152323 0.84067,-3.272831 1.64631,-6.390632 2.41691,-9.353405 0.80564,-2.997223 1.50621,-5.52936 2.10168,-7.596411 l 6.93551,-24.081142 h 32.73356 v 57.287825 c 0.16207,0.48688 1.9639,-1.49284 2.34571,1.55161 l -0.47857,1.46473 c 0,0 -0.41733,1.19739 0.0481,1.19146 0.35759,-0.005 0.70009,-0.11091 0.99504,0.22666 0.76746,0.87837 -0.44628,2.23802 -0.31756,3.3544 0.0269,0.23375 0.22562,0.6778 0.22562,0.6778 l -2.81831,2.73679 v 8.50637 h -21.43707 c 0.0104,-1.15666 0.006,-4.37473 0.001,-8.5064 -5.2e-4,-0.43409 -0.71773,0.42811 -1.07658,-0.48784 -0.21675,-0.55324 -0.73121,-0.49813 -0.78069,-1.17543 -0.0169,-0.23119 0.0774,-0.69546 -0.29954,-0.87973 -1.49524,-0.73104 -1.30376,-2.11549 -0.17927,-3.74345 0.15331,-0.22195 0.0485,-0.46459 -0.0191,-0.77309 -0.26178,-1.19583 2.34866,-1.6076 2.34872,-2.09335 8.7e-4,-7.27576 0.0217,-14.884763 0.1104,-18.927532 0.10508,-2.790519 0.21016,-5.839419 0.31525,-9.1467 0.10508,-3.307281 0.19265,-6.649013 0.26271,-10.025196 0.2801,-0.566253 -2.1017,7.997772 -2.41693,9.921843 -0.84067,3.272831 -1.64631,6.304505 -2.41691,9.095024 -0.77062,2.790519 -1.43615,5.115951 -1.99659,6.976296 l -8.75654,29.530535 -17.79555,-0.20716 -15.8907,-29.323375 c -0.55321,-1.860345 -2.85451,-3.524319 -3.64976,-6.314838 -0.79525,-2.790519 0.002,-6.483651 -0.86239,-9.756482 -0.8644,-3.307281 -1.74609,-6.631787 -2.64507,-9.97352 -0.86439,-3.376183 -1.67693,-6.54566 -2.4376,-9.508433 h 2.74878 c 0,2.962773 0.0345,6.149476 0.10374,9.56011 0.10372,3.376183 0.11218,6.733573 0.0719,10.042226 -0.0112,0.924722 0.18242,48.091782 0.15367,45.434862 z"
       inkscape:path-effect="#path-effect7"
       transform="matrix(0.85372259,0,0,1,21.689205,0)" /><path
       style="font-weight:900;font-size:105.833px;font-family:'noto Sans Tamil UI';-inkscape-font-specification:'noto Sans Tamil UI Heavy';fill:url(#linearGradient29);fill-rule:nonzero;stroke:none;stroke-width:0.2"
       d="M 166.67592,115.09621 V 90.705008 h 2.37711 l 13.84924,-17.776636 h 23.35768 l -23.15097,28.835358 h -5.78775 z m -18.5001,12.4023 V 82.10854 c -0.84871,0.02935 -1.01925,0.134585 -1.4053,-0.455523 l -0.26681,-0.561769 -0.2883,-1.081163 c 0,0 0.30934,-0.573922 0.23402,-0.893351 -0.0448,-0.189989 -0.34699,-0.469306 -0.34699,-0.469306 0,0 -0.47625,-2.28987 0.29159,-3.741739 0.12853,-0.243032 0.003,-0.824772 0.003,-0.824772 0,0 -0.31765,-0.253991 -0.33034,-0.414526 -0.16454,-2.082095 0.87074,-3.512677 0.35546,-5.156856 -0.19901,-0.63503 1.34514,-2.905368 0.46773,-3.858704 -0.27736,-0.301359 -0.19808,-0.736662 -0.19808,-0.736662 l 1.48431,-2.011203 V 50.500871 h 20.67051 v 9.241219 c 0,0 1.42363,-0.372754 1.75286,1.384928 0.0461,0.245834 0.0592,1.186496 -0.70354,2.313077 -0.0204,0.03012 -0.28778,0.716236 0.3354,1.080398 0.37678,0.220172 0.92339,0.166207 1.12644,0.662729 0.26569,0.649685 0.55502,1.957852 -0.0696,2.73988 -0.16168,0.202406 -1.38726,1.058315 -0.74382,1.904396 0.23088,0.303583 0.99211,2.348134 -0.21778,3.966734 -0.15934,0.213175 -0.51934,1.026321 -0.19711,1.034552 1.45008,0.03704 1.46476,2.636791 0.14737,3.956916 -0.2584,0.258929 -0.39399,0.533582 -0.24685,0.847278 0.23386,0.498583 -1.18333,3.107191 -1.18333,3.107191 v 44.758341 z m 35.24321,0 -13.02242,-21.18727 13.33248,-14.469354 23.15097,35.656624 z"
       id="text5"
       aria-label="k"
       sodipodi:nodetypes="cccccccccccccscscssscccccsssssssssscccccccc" /><path
       style="fill:#222222;fill-opacity:1;stroke:#9e9e9e;stroke-width:0.1;stroke-dasharray:none;stroke-opacity:1"
       d="m 164.22944,82.66511 c 0.22449,-0.363227 1.81616,-2.549394 2.00254,-2.750494 0.12669,-0.136697 0.39941,-0.324779 0.60605,-0.41796 0.36826,-0.166062 0.38409,-0.165349 0.79853,0.036 0.23255,0.112983 0.48545,0.205423 0.56199,0.205423 0.19829,0 0.18388,0.03873 -0.25678,0.690024 -0.92323,1.364534 -1.53069,1.940789 -2.34523,2.224737 -0.39074,0.136213 -1.44957,0.145714 -1.3671,0.01227 z m 2.71497,-0.09217 c -0.16885,-0.102949 -0.30699,-0.226846 -0.30699,-0.275325 0,-0.04848 0.13814,-0.17395 0.30699,-0.278823 0.4102,-0.254773 0.89232,-0.775106 1.43493,-1.548642 0.39207,-0.558936 0.48419,-0.637611 0.74659,-0.637611 0.16463,0 0.44611,-0.0421 0.62551,-0.09355 0.1794,-0.05145 0.36222,-0.05751 0.40627,-0.01346 0.044,0.04405 0.10481,0.319582 0.13502,0.612294 0.0931,0.90177 -0.38467,1.866655 -1.10658,2.234947 -0.52261,0.266616 -1.80457,0.266709 -2.24174,1.63e-4 z m -5.0078,-0.231324 c 1.02073,-1.54961 2.07366,-2.886921 2.27303,-2.886921 0.0542,0 0.18074,0.07439 0.28113,0.165307 0.11326,0.102571 0.39713,0.183231 0.74799,0.212537 0.56547,0.04723 0.56547,0.04723 -0.0334,0.893443 -0.90849,1.283646 -1.92809,1.940384 -3.01249,1.940384 -0.47014,0 -0.47014,0 -0.25623,-0.32475 z m -2.55255,0.126755 c 0.1213,-0.312312 1.81294,-2.651276 2.0801,-2.876082 0.24659,-0.20749 0.30549,-0.224049 0.3723,-0.104664 0.12005,0.21451 0.70994,0.373729 1.13362,0.305979 0.43189,-0.06906 0.45173,-0.134906 -0.27281,0.905209 -0.60832,0.873272 -0.96676,1.200836 -1.68665,1.541401 -0.63166,0.298825 -1.71291,0.450491 -1.62656,0.228157 z m -2.44759,-0.11794 c 0.0942,-0.245441 1.57531,-2.347301 1.88795,-2.679198 0.28543,-0.302997 0.28543,-0.302997 0.54513,-0.118076 0.18953,0.13496 0.41526,0.184921 0.83549,0.184921 0.31669,0 0.5758,0.02526 0.5758,0.05614 0,0.148003 -1.16093,1.628781 -1.461,1.863529 -0.5177,0.404986 -1.3614,0.755908 -1.93105,0.803182 -0.44191,0.03667 -0.50306,0.02173 -0.45232,-0.110502 z m -2.42105,-0.214755 c 1.13568,-1.639903 1.60606,-2.294729 1.7978,-2.50278 0.22752,-0.246872 0.22752,-0.246872 0.57643,-0.06474 0.27786,0.14505 0.4595,0.170321 0.89206,0.124106 0.29873,-0.03192 0.54315,-0.0367 0.54315,-0.01064 0,0.124103 -0.92379,1.348269 -1.26639,1.678173 -0.55368,0.533157 -1.46158,0.956236 -2.16051,1.006792 -0.57107,0.04131 -0.57107,0.04131 -0.38254,-0.23092 z m -2.54775,0.02881 c 0.26505,-0.435236 1.60971,-2.328944 1.80265,-2.538704 0.22167,-0.241002 0.24526,-0.246358 0.46142,-0.104729 0.17798,0.11662 0.38191,0.137608 0.93247,0.09597 0.38756,-0.02931 0.70356,-0.02469 0.7022,0.01027 -0.001,0.03496 -0.25605,0.399861 -0.566,0.810893 -0.64446,0.854652 -1.28261,1.373969 -2.03366,1.654971 -0.6046,0.226211 -1.42069,0.271021 -1.29908,0.07133 z m -4.77345,-0.05968 c 0.0173,-0.04909 0.36179,-0.559182 0.76549,-1.133531 0.73401,-1.044269 0.73401,-1.044269 1.2366,-1.044269 0.27642,0 0.71125,-0.0633 0.96628,-0.140669 0.55925,-0.169653 0.6054,-0.172446 0.6054,-0.03663 0,0.159706 -0.78263,1.215715 -1.19549,1.613101 -0.48922,0.470867 -1.32696,0.831263 -1.93229,0.831263 -0.26261,0 -0.46331,-0.04017 -0.44599,-0.08926 z m 2.39003,-0.157763 c 0.0974,-0.149881 0.45153,-0.633051 0.7869,-1.073711 0.33537,-0.440661 0.64942,-0.888234 0.69788,-0.994608 0.079,-0.173404 0.15546,-0.189601 0.73921,-0.156617 0.43701,0.02469 0.79758,-0.01313 1.09665,-0.115033 0.24507,-0.0835 0.45915,-0.13825 0.47574,-0.121662 0.0684,0.06838 -0.93277,1.380968 -1.33868,1.75512 -0.57266,0.52786 -1.36299,0.885423 -2.07248,0.937636 -0.56236,0.04138 -0.56236,0.04138 -0.38522,-0.231125 z m -2.91459,-0.324221 c -0.24713,-0.293706 -0.53026,-1.082223 -0.53026,-1.476809 0,-0.190431 0.0466,-0.219007 0.35726,-0.219007 0.30992,0 0.78811,-0.105002 1.48473,-0.326015 0.13083,-0.04151 0.22472,-0.0018 0.30536,0.129143 0.10289,0.167059 0.0369,0.304549 -0.56676,1.180524 -0.37577,0.545294 -0.71131,0.993375 -0.74566,0.995735 -0.0343,0.0024 -0.17145,-0.125247 -0.30467,-0.283571 z m 2.7888,-2.436773 c -0.1009,-0.06764 0.0164,-0.300723 0.54204,-1.077108 0.36894,-0.544934 0.73507,-1.044119 0.81361,-1.109302 0.0785,-0.06518 0.1428,-0.179843 0.1428,-0.2548 0,-0.250745 0.98124,-1.122795 1.61366,-1.434102 0.73388,-0.361245 1.76495,-0.526371 1.6653,-0.266698 -0.1287,0.335387 -1.72547,2.596524 -2.13462,3.022771 -0.69496,0.723998 -2.24999,1.382563 -2.64279,1.119239 z m -3.03568,-0.09235 c 0,-0.08154 1.21436,-1.928685 1.75452,-2.668776 0.58941,-0.807585 2.02091,-1.598801 2.89259,-1.598801 0.21688,0 0.27183,0.03452 0.2297,0.144294 -0.0305,0.07936 -0.48445,0.780816 -1.00889,1.558787 -0.81419,1.207817 -1.0428,1.478205 -1.56458,1.850538 -0.61508,0.438917 -1.51876,0.791582 -2.02837,0.791582 -0.15123,0 -0.27497,-0.03493 -0.27497,-0.07762 z m 16.28685,-0.123696 c -0.0886,-0.143398 1.62463,-2.667356 2.13403,-3.143842 0.61099,-0.571503 1.50544,-1.008942 2.18995,-1.071011 0.30163,-0.02735 0.54841,-0.02421 0.54841,0.007 0,0.09806 -1.70535,2.613636 -1.99707,2.945879 -0.36153,0.411766 -1.20673,0.969988 -1.71263,1.131131 -0.57067,0.181772 -1.09478,0.240766 -1.16269,0.130874 z m 2.51087,0.06342 c 0,-0.159255 1.75839,-2.683774 2.16118,-3.102795 0.26183,-0.272387 0.70109,-0.58205 1.09772,-0.773856 0.69016,-0.333749 1.65307,-0.530201 1.65307,-0.337257 0,0.219019 -1.89066,2.921662 -2.2827,3.263052 -0.55278,0.481369 -1.46543,0.900605 -2.10403,0.966514 -0.28888,0.02981 -0.52524,0.02277 -0.52524,-0.01566 z m 3.15485,-0.08183 c -0.16114,-0.06099 -0.38525,-0.174651 -0.49801,-0.252581 -0.20247,-0.139918 -0.19869,-0.146563 0.30164,-0.531083 0.37486,-0.288094 0.75726,-0.761135 1.46995,-1.818373 0.52981,-0.785939 0.99671,-1.42898 1.03756,-1.42898 0.11652,0 0.44707,0.393676 0.62361,0.742701 0.0884,0.174694 0.1837,0.540821 0.21186,0.813615 0.14215,1.377371 -0.96638,2.611444 -2.32903,2.592777 -0.28853,-0.004 -0.65645,-0.05709 -0.81758,-0.118076 z m -10.90064,-0.08138 c 0,-0.208352 1.83759,-2.831526 2.24957,-3.211272 0.5321,-0.490472 1.52297,-0.950649 2.16089,-1.00355 0.27583,-0.02287 0.50151,-0.01405 0.50151,0.0196 0,0.170323 -1.91289,2.890205 -2.24113,3.186612 -0.53729,0.485164 -1.11681,0.804181 -1.76969,0.974192 -0.67501,0.175771 -0.90115,0.184408 -0.90115,0.03442 z m 2.55044,0.07439 c 0,-0.03365 0.42086,-0.690454 0.93523,-1.459558 0.96615,-1.444592 1.52956,-2.043778 2.27644,-2.420976 0.6288,-0.317563 1.7003,-0.509148 1.7003,-0.304015 0,0.207213 -1.87014,2.85348 -2.26706,3.207921 -0.56095,0.500907 -1.51441,0.944065 -2.1434,0.996226 -0.27583,0.02287 -0.50151,0.01405 -0.50151,-0.0196 z m -7.74579,-0.164117 c 0,-0.206283 1.91206,-2.920401 2.2827,-3.240225 0.61035,-0.526676 1.44237,-0.916142 2.08085,-0.974037 0.30163,-0.02735 0.54842,-0.02155 0.54842,0.01288 0,0.03444 -0.42086,0.691876 -0.93523,1.460979 -1.02543,1.533232 -1.55405,2.07466 -2.41814,2.476726 -0.5608,0.260948 -1.5586,0.42975 -1.5586,0.263677 z m 2.55044,0.07108 c 0,-0.196465 1.94177,-2.922115 2.31709,-3.252484 0.59915,-0.527398 1.33462,-0.873076 2.03268,-0.955384 0.50177,-0.05916 0.5705,-0.04843 0.53595,0.08368 -0.0778,0.297337 -1.86547,2.818382 -2.23583,3.15298 -0.55934,0.505329 -1.45689,0.925638 -2.10147,0.984086 -0.30163,0.02735 -0.54842,0.02155 -0.54842,-0.01288 z m -9.0715,-0.503518 c -0.48234,-0.760561 -0.56457,-1.276775 -0.32948,-2.068382 0.40967,-1.379514 2.02263,-2.080484 3.31,-1.438483 0.25141,0.125378 0.47171,0.271773 0.48956,0.325322 0.0179,0.05355 -0.18393,0.237575 -0.4484,0.408946 -0.55045,0.356678 -0.90723,0.78483 -1.83766,2.205245 -0.36367,0.555193 -0.7153,1.010194 -0.78138,1.011111 -0.0661,9.18e-4 -0.24728,-0.198774 -0.40264,-0.443759 z m 3.60615,-4.168149 c -0.0998,-0.0669 0.086,-0.403917 0.835,-1.514554 1.03943,-1.541393 1.43382,-1.946022 2.32389,-2.384232 0.69009,-0.339752 1.71415,-0.49386 1.61807,-0.2435 -0.1287,0.335387 -1.72547,2.596524 -2.13462,3.022771 -0.69456,0.723575 -2.25001,1.382596 -2.64234,1.119515 z m -3.03613,-0.09263 c 0,-0.08154 1.21436,-1.928685 1.75451,-2.668776 0.58942,-0.807584 2.02091,-1.598801 2.8926,-1.598801 0.21688,0 0.27183,0.03452 0.2297,0.144295 -0.0305,0.07936 -0.48445,0.780816 -1.00889,1.558787 -0.8142,1.207817 -1.0428,1.478205 -1.56458,1.850538 -0.61509,0.438916 -1.51876,0.791581 -2.02837,0.791581 -0.15123,0 -0.27497,-0.03493 -0.27497,-0.07762 z m 16.28685,-0.123695 c -0.0886,-0.143398 1.62463,-2.667357 2.13403,-3.143842 0.61099,-0.571503 1.50544,-1.008942 2.18995,-1.071011 0.30163,-0.02735 0.54841,-0.02421 0.54841,0.007 0,0.09806 -1.70535,2.613636 -1.99707,2.945879 -0.36153,0.411766 -1.20673,0.969988 -1.71263,1.13113 -0.57067,0.181773 -1.09478,0.240767 -1.16269,0.130875 z m 2.51087,0.06342 c 0,-0.159256 1.75839,-2.683774 2.16118,-3.102795 0.26183,-0.272388 0.70109,-0.582051 1.09772,-0.773857 0.69016,-0.333748 1.65307,-0.5302 1.65307,-0.337256 0,0.219019 -1.89066,2.921661 -2.2827,3.263052 -0.55278,0.481369 -1.46543,0.900604 -2.10404,0.966514 -0.28887,0.02981 -0.52523,0.02277 -0.52523,-0.01566 z m 3.15485,-0.08183 c -0.16114,-0.06099 -0.38525,-0.174651 -0.49801,-0.252581 -0.20247,-0.139919 -0.19869,-0.146564 0.30164,-0.531084 0.37486,-0.288093 0.75726,-0.761134 1.46995,-1.818372 0.52981,-0.785939 0.99671,-1.42898 1.03756,-1.42898 0.11651,0 0.44707,0.393675 0.62361,0.742701 0.0884,0.174694 0.1837,0.540821 0.21185,0.813615 0.14216,1.377371 -0.96637,2.611443 -2.32902,2.592777 -0.28853,-0.004 -0.65645,-0.05709 -0.81758,-0.118076 z m -10.90064,-0.08138 c 0,-0.208352 1.83759,-2.831525 2.24956,-3.211271 0.5321,-0.490472 1.52298,-0.95065 2.16089,-1.003551 0.27584,-0.02287 0.50151,-0.01405 0.50151,0.0196 0,0.170323 -1.91288,2.890205 -2.24113,3.186612 -0.53728,0.485164 -1.1168,0.804181 -1.76968,0.974192 -0.67501,0.17577 -0.90115,0.184408 -0.90115,0.03442 z m 2.55044,0.07439 c 0,-0.03365 0.42086,-0.690454 0.93523,-1.459557 0.96615,-1.444592 1.52956,-2.043778 2.27644,-2.420977 0.6288,-0.317563 1.7003,-0.509147 1.7003,-0.304015 0,0.207214 -1.87014,2.853481 -2.26706,3.207921 -0.56095,0.500908 -1.51441,0.944066 -2.1434,0.996227 -0.27583,0.02287 -0.50151,0.01405 -0.50151,-0.0196 z m -7.74579,-0.164116 c 0,-0.206283 1.91206,-2.920401 2.2827,-3.240225 0.61035,-0.526676 1.44237,-0.916143 2.08085,-0.974038 0.30163,-0.02735 0.54842,-0.02155 0.54842,0.01288 0,0.03444 -0.42086,0.691877 -0.93523,1.46098 -1.02543,1.533232 -1.55405,2.07466 -2.41814,2.476726 -0.5608,0.260948 -1.5586,0.42975 -1.5586,0.263677 z m 2.55044,0.07108 c 0,-0.196465 1.94177,-2.922116 2.31709,-3.252484 0.59915,-0.527398 1.33462,-0.873076 2.03268,-0.955384 0.50177,-0.05916 0.5705,-0.04843 0.53595,0.08368 -0.0778,0.297337 -1.86547,2.818381 -2.23583,3.15298 -0.55934,0.505328 -1.45689,0.925637 -2.10147,0.984086 -0.30163,0.02735 -0.54842,0.02155 -0.54842,-0.01288 z m -9.0715,-0.503519 c -0.48234,-0.76056 -0.56457,-1.276774 -0.32948,-2.068382 0.40967,-1.379514 2.02262,-2.080484 3.30999,-1.438482 0.25142,0.125378 0.47172,0.271772 0.48957,0.325322 0.0179,0.05355 -0.18393,0.237575 -0.4484,0.408946 -0.55045,0.356678 -0.90723,0.78483 -1.83766,2.205244 -0.36368,0.555194 -0.7153,1.010194 -0.78138,1.011112 -0.0661,9.18e-4 -0.24728,-0.198774 -0.40264,-0.44376 z m 4.0257,-4.35936 c -0.0353,-0.05721 0.11845,-0.36512 0.34178,-0.684257 0.22333,-0.319136 0.57608,-0.858789 0.7839,-1.199229 0.82121,-1.345315 2.02998,-2.23082 3.21168,-2.352783 0.67878,-0.07006 0.69691,-0.13842 -0.3864,1.457187 -1.04367,1.537224 -1.51977,2.031259 -2.35298,2.441586 -0.70776,0.348551 -1.48915,0.513581 -1.59798,0.337496 z m -2.98337,-0.09034 c 0,-0.08154 1.21435,-1.928685 1.75451,-2.668776 0.58942,-0.807584 2.02091,-1.598801 2.89259,-1.598801 0.21688,0 0.27183,0.03452 0.22971,0.144294 -0.0305,0.07936 -0.48446,0.780817 -1.00889,1.558788 -0.8142,1.207817 -1.04281,1.478205 -1.56459,1.850538 -0.61508,0.438916 -1.51876,0.791581 -2.02837,0.791581 -0.15123,0 -0.27496,-0.03493 -0.27496,-0.07762 z m 16.28684,-0.123696 c -0.0886,-0.143398 1.62464,-2.667356 2.13404,-3.143841 0.61098,-0.571503 1.50543,-1.008942 2.18994,-1.071011 0.30163,-0.02735 0.54842,-0.02422 0.54842,0.007 0,0.09806 -1.70536,2.613637 -1.99707,2.94588 -0.36154,0.411766 -1.20674,0.969988 -1.71264,1.13113 -0.57067,0.181773 -1.09477,0.240767 -1.16269,0.130874 z m 2.51088,0.06342 c 0,-0.159256 1.75839,-2.683774 2.16117,-3.102796 0.26183,-0.272387 0.70109,-0.58205 1.09773,-0.773856 0.69015,-0.333748 1.65306,-0.5302 1.65306,-0.337256 0,0.219019 -1.89066,2.921661 -2.2827,3.263052 -0.55278,0.481369 -1.46543,0.900604 -2.10403,0.966514 -0.28888,0.02981 -0.52523,0.02277 -0.52523,-0.01566 z m 3.15484,-0.08183 c -0.16114,-0.06099 -0.38524,-0.174651 -0.49801,-0.252581 -0.20246,-0.139919 -0.19869,-0.146564 0.30164,-0.531084 0.37486,-0.288093 0.75726,-0.761134 1.46995,-1.818372 0.52981,-0.785939 0.99671,-1.42898 1.03756,-1.42898 0.11652,0 0.44707,0.393675 0.62362,0.742701 0.0884,0.174694 0.18369,0.540821 0.21185,0.813615 0.14216,1.37737 -0.96638,2.611443 -2.32903,2.592777 -0.28853,-0.004 -0.65644,-0.05709 -0.81758,-0.118076 z m -10.90064,-0.08138 c 0,-0.208352 1.83759,-2.831525 2.24957,-3.211271 0.5321,-0.490472 1.52297,-0.95065 2.16089,-1.003551 0.27583,-0.02287 0.50151,-0.01406 0.50151,0.0196 0,0.170323 -1.91288,2.890205 -2.24113,3.186612 -0.53729,0.485164 -1.1168,0.804181 -1.76969,0.974192 -0.67501,0.17577 -0.90115,0.184408 -0.90115,0.03442 z m 2.55045,0.07439 c 0,-0.03365 0.42085,-0.690454 0.93523,-1.459557 0.96614,-1.444592 1.52955,-2.043779 2.27644,-2.420977 0.6288,-0.317563 1.70029,-0.509148 1.70029,-0.304015 0,0.207214 -1.87013,2.853481 -2.26706,3.207921 -0.56095,0.500908 -1.51441,0.944066 -2.14339,0.996226 -0.27583,0.02287 -0.50151,0.01405 -0.50151,-0.0196 z m -7.7458,-0.164116 c 0,-0.206284 1.91206,-2.920401 2.2827,-3.240225 0.61035,-0.526676 1.44237,-0.916143 2.08085,-0.974038 0.30163,-0.02735 0.54842,-0.02155 0.54842,0.01288 0,0.03444 -0.42085,0.691876 -0.93523,1.46098 -1.02543,1.533232 -1.55404,2.07466 -2.41813,2.476726 -0.56081,0.260948 -1.55861,0.42975 -1.55861,0.263677 z m 2.55045,0.07108 c 0,-0.196465 1.94176,-2.922116 2.31708,-3.252484 0.59916,-0.527398 1.33462,-0.873076 2.03269,-0.955384 0.50176,-0.05916 0.57049,-0.04843 0.53594,0.08368 -0.0777,0.297337 -1.86547,2.818381 -2.23583,3.15298 -0.55934,0.505328 -1.45689,0.925637 -2.10146,0.984086 -0.30163,0.02735 -0.54842,0.02155 -0.54842,-0.01288 z m -9.07151,-0.503519 c -0.48233,-0.760561 -0.56456,-1.276774 -0.32948,-2.068382 0.40967,-1.379514 2.02263,-2.080484 3.31,-1.438482 0.25141,0.125377 0.47172,0.271772 0.48957,0.325322 0.0178,0.05355 -0.18394,0.237575 -0.44841,0.408946 -0.55044,0.356677 -0.90723,0.78483 -1.83766,2.205244 -0.36367,0.555194 -0.71529,1.010194 -0.78138,1.011112 -0.0661,9.18e-4 -0.24727,-0.198774 -0.40264,-0.44376 z m 6.68637,-3.907644 c -0.12777,-0.139942 -0.29399,-0.18105 -0.73207,-0.18105 -0.31172,0 -0.56677,-0.03438 -0.56677,-0.0764 0,-0.163346 0.69079,-1.217104 1.02137,-1.558046 0.66576,-0.686615 1.63283,-1.161276 2.22013,-1.08969 0.26256,0.032 0.26256,0.032 -0.5081,1.354456 -0.71994,1.235432 -1.08518,1.758429 -1.21487,1.739655 -0.0299,-0.0043 -0.12877,-0.08935 -0.21969,-0.188922 z m -3.26225,-0.123479 c -0.40356,-0.205881 -0.40356,-0.205881 -0.11814,-0.636789 0.31566,-0.476551 1.19894,-1.215037 1.70684,-1.427041 0.41138,-0.171717 1.01164,-0.286969 1.12612,-0.21622 0.0478,0.02956 -0.0999,0.361055 -0.32823,0.736654 -0.22836,0.375599 -0.48745,0.82496 -0.57576,0.998579 -0.0883,0.17362 -0.21738,0.337477 -0.28683,0.364127 -0.0694,0.02665 -0.1052,0.08254 -0.0795,0.124208 0.0258,0.04166 -0.0377,0.05364 -0.14108,0.02662 -0.10335,-0.02703 -0.34811,0.01496 -0.54391,0.09331 -0.33358,0.133473 -0.38141,0.129478 -0.75956,-0.06344 z m 11.04631,-0.204004 c -0.12183,-0.121245 -0.20306,-0.254793 -0.18053,-0.296774 0.56544,-1.053348 1.35009,-2.252788 1.69726,-2.594478 0.57229,-0.563252 1.48082,-1.024134 2.01887,-1.024134 0.40287,0 0.40287,0 -0.36932,1.343602 -0.49818,0.866835 -0.95653,1.531314 -1.29171,1.872603 -0.47325,0.481866 -0.66221,0.590969 -1.51138,0.872628 -0.0779,0.02585 -0.24137,-0.0522 -0.36319,-0.173447 z m -6.5773,-0.0661 c 0.1097,-0.373966 1.08537,-1.955235 1.40064,-2.270016 0.26447,-0.264069 1.28911,-0.712683 1.28911,-0.564409 0,0.07403 -0.80564,1.466033 -1.25238,2.163905 -0.29362,0.458661 -0.45529,0.612897 -0.76734,0.732072 -0.56982,0.217616 -0.74714,0.201326 -0.67003,-0.06155 z m 1.52826,0.08699 c -0.0617,-0.1608 0.98967,-1.999367 1.36927,-2.394488 0.39002,-0.405966 1.23227,-0.837266 1.90147,-0.973711 0.30285,-0.06175 0.56613,-0.09679 0.58505,-0.07786 0.0703,0.07027 -1.44515,2.548935 -1.75184,2.865366 -0.23058,0.2379 -0.40022,0.328392 -0.61559,0.328392 -0.16351,0 -0.54439,0.08501 -0.8464,0.188922 -0.65161,0.224186 -0.58286,0.217398 -0.64196,0.06338 z m 2.50729,-0.06109 c -0.10147,-0.162478 -0.0483,-0.300026 0.41044,-1.062685 0.83096,-1.381344 0.99578,-1.592809 1.57365,-2.018936 0.60281,-0.44452 1.33265,-0.727405 1.75894,-0.681765 0.27922,0.0299 0.27922,0.0299 -0.56737,1.446808 -1.09628,1.834812 -1.32458,2.065033 -2.29312,2.31239 -0.41095,0.104953 -0.75141,0.190824 -0.75658,0.190824 -0.005,0 -0.0618,-0.08399 -0.12596,-0.186636 z m 5.03031,0.01882 c -0.15586,-0.08954 -0.2961,-0.168432 -0.31166,-0.175324 -0.0155,-0.0069 0.28119,-0.538234 0.65942,-1.180761 0.80289,-1.363941 1.35967,-1.965286 2.17815,-2.352491 0.52682,-0.249228 1.29976,-0.380204 1.29976,-0.220248 0,0.0328 -0.22076,0.447247 -0.49057,0.920994 -1.15204,2.022821 -1.5314,2.480229 -2.43807,2.939673 -0.54846,0.277929 -0.5338,0.276816 -0.89703,0.06816 z M 146.6729,63.666272 c 0.14671,-0.768624 0.80682,-1.553384 1.49873,-1.781734 0.46689,-0.154087 1.45103,-0.07301 1.82982,0.150745 0.16183,0.09559 0.29292,0.196521 0.29131,0.224285 -0.002,0.02776 -0.19495,0.195174 -0.42965,0.372023 -0.2347,0.176849 -0.56271,0.510897 -0.72892,0.742329 -0.30157,0.419934 -0.30314,0.42068 -0.77472,0.368425 -0.43862,-0.0486 -0.84413,-0.0019 -1.48767,0.171265 -0.25251,0.06796 -0.25782,0.06135 -0.1989,-0.247338 z m 18.67496,0.171578 c -0.29772,-0.110889 -0.29772,-0.110889 0.19695,-0.964819 1.10952,-1.915344 1.46198,-2.317696 2.46232,-2.810797 0.49518,-0.244094 1.12423,-0.395931 1.26918,-0.306349 0.14657,0.09059 -1.41924,2.696632 -1.93834,3.226057 -0.45304,0.462052 -1.30438,0.989802 -1.57118,0.973984 -0.0667,-0.004 -0.25519,-0.05709 -0.41893,-0.118076 z m 2.33371,-0.07346 c -0.49891,-0.19926 -0.50169,-0.270094 -0.0273,-0.696792 0.29225,-0.262881 0.7179,-0.856866 1.2279,-1.713488 0.42933,-0.721121 0.82028,-1.373775 0.86879,-1.450344 0.0742,-0.117175 0.12783,-0.10222 0.33852,0.09446 0.43562,0.406662 0.64374,0.924391 0.64453,1.60336 10e-4,0.951347 -0.47314,1.708104 -1.30998,2.090331 -0.41366,0.188942 -1.35299,0.228011 -1.74244,0.07247 z"
       id="path22" /><path
       id="rect25"
       style="display:none;opacity:1;fill:#d32f2f;stroke-width:0.2;stroke-linejoin:round"
       d="m 166.33379,90.501202 1.18073,-0.818513 1.23122,0.82427 0.002,0.297764 0.44619,-0.0021 -0.22115,21.252807 -0.23179,0.31203 0.005,0.98509 -2.30647,2.31119 z"
       sodipodi:nodetypes="cccccccccc" /><path
       id="rect26"
       style="display:none;opacity:1;fill:#d32f2f;stroke-width:0.2"
       d="m 169.77982,96.126434 13.87973,-4.718143 3.50678,5.140533 -0.27632,0.346129 0.40532,0.616201 2.63319,4.570266 -12.50239,0.0454 -5.23197,6.91697 -0.3488,-0.56866 -0.17694,0.20627 -2.69889,2.93973 z"
       sodipodi:nodetypes="cccccccccccc" /><path
       style="fill:#d32f2f;fill-opacity:1;stroke:#9e9e9e;stroke-width:0.101366;stroke-dasharray:none;stroke-opacity:1"
       d="m 218.94114,119.02769 c 0.0395,-0.066 0.41341,-0.61108 0.83085,-1.21121 0.72484,-1.04204 0.76878,-1.08742 0.97656,-1.00841 0.30039,0.11419 0.6896,0.10351 1.21757,-0.0335 0.24754,-0.0643 0.44783,-0.0807 0.44783,-0.0368 0,0.0436 -0.17345,0.32238 -0.38544,0.61944 -0.78256,1.09668 -1.6363,1.66828 -2.60822,1.7463 -0.45689,0.0367 -0.53875,0.0237 -0.47915,-0.0758 z m 2.43495,-0.0556 c 0.23297,-0.41708 1.70527,-2.37922 1.77388,-2.36407 0.0436,0.0101 0.20276,0.0656 0.35365,0.12437 0.20862,0.0813 0.404,0.0849 0.81532,0.0153 0.29752,-0.0504 0.55304,-0.0814 0.5678,-0.0689 0.0148,0.0125 -0.18932,0.326 -0.45354,0.69673 -0.76826,1.07793 -1.8232,1.74683 -2.75499,1.74683 -0.34237,0 -0.37652,-0.017 -0.30212,-0.1502 z m -9.00343,-0.0193 c 0,-0.13822 1.08682,-1.81305 1.2684,-1.95463 0.0757,-0.059 0.31363,-0.10855 0.52882,-0.11009 0.21519,-0.002 0.59417,-0.0729 0.84217,-0.15857 0.65546,-0.22643 0.70788,-0.0938 0.23904,0.60515 -0.44718,0.66659 -0.94358,1.11168 -1.57075,1.40838 -0.53584,0.25349 -1.30768,0.37731 -1.30768,0.20976 z m 2.23139,0.009 c 0,-0.0541 0.29562,-0.5423 0.65691,-1.08479 0.65693,-0.98635 0.65693,-0.98635 1.09425,-0.98915 0.24053,-0.002 0.64974,-0.0775 0.90936,-0.16884 0.25961,-0.0913 0.50099,-0.16731 0.53639,-0.16885 0.27595,-0.0121 -0.36549,1.02605 -0.98938,1.60112 -0.21437,0.19761 -0.59165,0.46157 -0.8384,0.58662 -0.48919,0.24789 -1.36913,0.39179 -1.36913,0.22389 z m 2.25222,-0.0277 c 0.0272,-0.0707 0.32969,-0.5594 0.67236,-1.086 0.62302,-0.95746 0.62302,-0.95746 1.01626,-0.95847 0.33427,-8.7e-4 0.802,-0.1 1.48747,-0.31515 0.23025,-0.0723 0.18295,0.0758 -0.21431,0.67113 -0.72428,1.08526 -1.56931,1.68629 -2.48805,1.7696 -0.44153,0.04 -0.51536,0.0274 -0.47373,-0.0811 z m 6.9885,-0.12257 c 1.03183,-1.48994 1.45919,-2.08489 1.63339,-2.27392 0.20672,-0.2243 0.20672,-0.2243 0.52373,-0.0588 0.25245,0.13179 0.41748,0.15475 0.81048,0.11275 0.27142,-0.029 0.49348,-0.0333 0.49348,-0.0101 0,0.11276 -0.83931,1.22498 -1.15058,1.52472 -0.50305,0.4844 -1.32793,0.86879 -1.96294,0.91472 -0.51885,0.0375 -0.51885,0.0375 -0.34756,-0.2098 z m 2.19203,0.13062 c 0.1102,-0.28375 1.64715,-2.40882 1.88989,-2.61308 0.22404,-0.18852 0.27755,-0.20356 0.33825,-0.0951 0.10907,0.19489 0.64502,0.33956 1.02996,0.278 0.39239,-0.0628 0.41043,-0.12257 -0.24786,0.82243 -0.5527,0.79342 -0.87836,1.09103 -1.53242,1.40045 -0.5739,0.2715 -1.55628,0.40929 -1.47782,0.20729 z m 2.25057,0.017 c 0.20868,-0.33766 1.65338,-2.32313 1.82557,-2.50892 0.11511,-0.12421 0.36289,-0.29509 0.55064,-0.37975 0.33457,-0.15087 0.34896,-0.15022 0.7255,0.0327 0.21129,0.10265 0.44105,0.18665 0.5106,0.18665 0.17575,0 0.16322,0.0433 -0.14462,0.49947 -0.77145,1.1432 -1.13332,1.54286 -1.69401,1.87097 -0.49136,0.28754 -0.65093,0.3359 -1.20014,0.3637 -0.45552,0.0231 -0.61661,0.005 -0.57354,-0.0649 z m 2.40917,-0.11113 c -0.3426,-0.18055 -0.3426,-0.18055 -0.0914,-0.36095 0.54604,-0.39213 0.93277,-0.79295 1.38708,-1.43762 0.4235,-0.60096 0.5044,-0.6738 0.74841,-0.6738 0.15047,0 0.40694,-0.0382 0.56994,-0.0849 0.16299,-0.0467 0.32909,-0.0522 0.36911,-0.0123 0.04,0.04 0.0952,0.29035 0.12268,0.5563 0.0845,0.81931 -0.34949,1.69596 -1.00539,2.03058 -0.48037,0.24506 -1.62041,0.23567 -2.10043,-0.0173 z m -18.91082,-0.46588 c -0.24092,-0.29229 -0.44294,-0.8474 -0.44294,-1.21716 0,-0.13647 0.0811,-0.17292 0.47525,-0.2136 0.26138,-0.027 0.64613,-0.11431 0.85499,-0.19408 0.42111,-0.16082 0.64369,-0.12285 0.64369,0.1098 0,0.17808 -1.07984,1.82577 -1.19655,1.82577 -0.0431,0 -0.19356,-0.13982 -0.33444,-0.31073 z m -0.70041,-1.91879 c 0,-0.21813 1.47394,-2.46297 1.90496,-2.90131 0.53053,-0.53952 1.35737,-0.97139 1.97302,-1.03055 0.54672,-0.0525 0.56847,-0.12394 -0.45589,1.49655 -0.86702,1.37159 -1.29373,1.81332 -2.11577,2.19029 -0.62143,0.28496 -1.30632,0.41342 -1.30632,0.24502 z m 2.31723,-0.0285 c 0,-0.16846 1.55797,-2.50153 1.91919,-2.87401 0.57681,-0.59479 1.46168,-1.04724 2.04809,-1.04724 0.42548,0 0.42548,0 0.26739,0.25888 -1.51569,2.48197 -1.89992,2.94289 -2.8342,3.39999 -0.42391,0.2074 -1.40047,0.39036 -1.40047,0.26238 z m 2.40303,-0.0476 c 0,-0.054 0.34831,-0.64834 0.77402,-1.32075 0.87041,-1.37483 1.4102,-1.94419 2.18885,-2.30876 0.58407,-0.27347 1.32829,-0.41481 1.32829,-0.25228 0,0.20626 -1.49349,2.47032 -1.91898,2.90907 -0.24406,0.25167 -0.67156,0.56871 -0.95685,0.70963 -0.5548,0.27404 -1.41533,0.434 -1.41533,0.26309 z m 2.31722,0.0256 c 0,-0.0389 0.37149,-0.66255 0.82553,-1.38591 0.91295,-1.45447 1.31504,-1.87802 2.16373,-2.27918 0.60134,-0.28423 1.3019,-0.41156 1.3019,-0.23663 0,0.21375 -1.25748,2.27578 -1.65168,2.66561 -0.22386,0.22139 -0.90593,0.77859 -1.2013,0.92381 -0.52117,0.25624 -1.43818,0.45537 -1.43818,0.3123 z m 2.83729,-0.17548 c 0.003,-0.042 0.32637,-0.71406 0.81188,-1.4221 1.23374,-1.79919 2.16357,-2.38749 3.30503,-2.38749 0.4252,0 0.4252,0 -0.42435,1.2722 -0.92575,1.38633 -1.45623,1.93587 -2.21545,2.29504 -0.47576,0.22507 -1.48709,0.391 -1.47711,0.24235 z m -10.41968,-0.27734 c -0.26502,-0.27662 -0.57079,-1.01161 -0.57079,-1.37202 0,-0.75623 0.53927,-1.65072 1.19769,-1.98663 0.65383,-0.33355 1.67549,-0.27619 2.19232,0.1231 0.16752,0.12942 0.1634,0.13924 -0.17165,0.40906 -0.60922,0.49062 -0.86885,0.81012 -1.58514,1.95065 -0.3868,0.61589 -0.7315,1.1198 -0.76598,1.1198 -0.0345,0 -0.16789,-0.10978 -0.29645,-0.24396 z m 13.07507,0.12509 c 0,-0.1785 1.7642,-2.6549 2.10519,-2.95506 0.54437,-0.47917 1.21259,-0.79323 1.84681,-0.86802 0.45588,-0.0537 0.51833,-0.044 0.48693,0.076 -0.0707,0.27015 -1.69487,2.56065 -2.03137,2.86466 -0.50819,0.45911 -1.32366,0.84099 -1.9093,0.8941 -0.27404,0.0248 -0.49826,0.0196 -0.49826,-0.0117 z m 2.48886,-0.0871 c 0,-0.0306 0.38237,-0.62731 0.84971,-1.32608 0.87779,-1.3125 1.38969,-1.85689 2.06827,-2.1996 0.5713,-0.28852 1.54482,-0.46258 1.54482,-0.27621 0,0.18827 -1.69913,2.59255 -2.05975,2.91458 -0.50966,0.4551 -1.37593,0.85774 -1.9474,0.90512 -0.25061,0.0208 -0.45565,0.0128 -0.45565,-0.0178 z m 2.57469,-0.0909 c 0,-0.14469 1.59759,-2.43836 1.96354,-2.81906 0.2379,-0.24749 0.63699,-0.52883 0.99735,-0.7031 0.62704,-0.30322 1.50191,-0.48172 1.50191,-0.30641 0,0.19899 -1.71778,2.65449 -2.07397,2.96466 -0.50223,0.43735 -1.33141,0.81825 -1.91162,0.87813 -0.26247,0.0271 -0.47721,0.0207 -0.47721,-0.0142 z m 2.86635,-0.0743 c -0.14641,-0.0554 -0.35001,-0.15869 -0.45247,-0.22949 -0.18395,-0.12713 -0.18052,-0.13316 0.27405,-0.48251 0.34059,-0.26176 0.68802,-0.69154 1.33554,-1.6521 0.48136,-0.71406 0.90557,-1.29831 0.94268,-1.29831 0.10586,0 0.40619,0.35768 0.56659,0.67479 0.0803,0.15871 0.1669,0.49137 0.19248,0.73921 0.12916,1.25142 -0.87801,2.37264 -2.11605,2.35568 -0.26215,-0.004 -0.59642,-0.0519 -0.74282,-0.10727 z m -18.08724,-3.76337 c -0.17219,-0.0883 -0.31306,-0.21415 -0.31306,-0.27958 0,-0.16442 0.72968,-0.89111 1.07353,-1.15338 0.42011,-0.32044 1.07634,-0.69569 1.39387,-0.69664 0.15341,-4.6e-4 0.27893,0.0176 0.27893,0.0401 0,0.0225 -0.22792,0.45413 -0.50651,0.95908 -0.50649,0.91809 -0.50649,0.91809 -1.06009,1.10454 -0.5462,0.18395 -0.55778,0.1843 -0.86667,0.0258 z m 2.39998,0.007 c -0.11459,-0.0901 -0.26756,-0.16388 -0.33993,-0.16388 -0.25752,0 -0.24038,-0.18891 0.0579,-0.63818 0.3348,-0.50423 0.85388,-0.96141 1.40928,-1.24118 0.39187,-0.1974 1.14005,-0.33835 1.13334,-0.21352 -0.002,0.0419 -0.24891,0.5199 -0.54813,1.0624 -0.54176,0.98224 -0.54602,0.98713 -1.02408,1.17229 -0.47387,0.18355 -0.48274,0.18384 -0.68839,0.0221 z m 2.35051,-0.0352 c -0.0588,-0.0709 -0.23501,-0.12874 -0.39165,-0.12874 -0.15664,0 -0.30939,-0.0397 -0.33943,-0.0884 -0.0845,-0.13672 0.3746,-0.85396 0.83141,-1.29891 0.22635,-0.22048 0.62223,-0.50394 0.87974,-0.62993 0.47298,-0.23141 1.16551,-0.38155 1.16551,-0.25269 0,0.0384 -0.27313,0.56554 -0.60695,1.17134 -0.52153,0.94643 -0.64983,1.11936 -0.91162,1.22874 -0.38298,0.16002 -0.49323,0.15977 -0.62701,-10e-4 z m 2.32917,-0.0458 c -0.13375,-0.11143 -0.33063,-0.1688 -0.57931,-0.1688 -0.20718,0 -0.37669,-0.0199 -0.37669,-0.0442 0,-0.0243 0.11974,-0.2564 0.26609,-0.51572 0.52036,-0.922 1.55075,-1.70651 2.38905,-1.81896 0.19177,-0.0257 0.34866,-0.0176 0.34866,0.0178 0,0.0356 -0.29821,0.61763 -0.66267,1.29353 -0.76596,1.42043 -0.95817,1.59199 -1.38513,1.23629 z m -9.62171,-0.26659 c 0.004,-0.41849 0.34317,-1.01961 0.75319,-1.33298 0.60389,-0.46155 1.54448,-0.562 2.18087,-0.23292 0.31192,0.16131 0.30175,0.23421 -0.0725,0.51963 -0.17128,0.13064 -0.45815,0.43616 -0.63751,0.67893 -0.32609,0.44142 -0.32609,0.44142 -0.75927,0.3998 -0.3843,-0.0369 -0.91546,0.0439 -1.32746,0.202 -0.11231,0.0431 -0.13931,-0.003 -0.13738,-0.23446 z m 10.72546,0.19769 c 0,-0.043 0.21424,-0.44596 0.47609,-0.89556 0.54747,-0.94003 1.19471,-1.60315 1.86236,-1.90808 0.50185,-0.22921 1.18029,-0.36756 1.18029,-0.24069 0,0.11889 -1.3636,2.44148 -1.55814,2.65396 -0.13515,0.14758 -0.29813,0.18948 -0.87793,0.22566 -0.39159,0.0244 -0.79539,0.0891 -0.89732,0.1436 -0.10195,0.0545 -0.18535,0.0641 -0.18535,0.0211 z m 2.29173,-0.12804 c -0.0741,-0.19299 0.99346,-1.95369 1.47661,-2.43543 0.51725,-0.51574 1.15643,-0.85667 1.7602,-0.93887 0.51745,-0.0704 0.53391,-0.13542 -0.35125,1.3859 -0.77475,1.33155 -1.14773,1.75937 -1.5338,1.75937 -0.14824,0 -0.49404,0.0772 -0.76842,0.17165 -0.59207,0.2037 -0.52955,0.19755 -0.58334,0.0574 z m 2.35602,-0.19043 c -0.11069,-0.11015 -0.18449,-0.23148 -0.16402,-0.26963 0.51373,-0.95702 1.22663,-2.04677 1.54206,-2.35723 0.51994,-0.51174 1.3454,-0.93047 1.83425,-0.93047 0.36602,0 0.36602,0 -0.33555,1.22073 -0.45262,0.78756 -0.86906,1.39129 -1.17359,1.70137 -0.42998,0.43779 -0.60166,0.53692 -1.37317,0.79283 -0.0708,0.0235 -0.2193,-0.0474 -0.32998,-0.1576 z m 2.24797,-0.23822 c -0.27049,-0.10076 -0.27049,-0.10076 0.17894,-0.8766 1.00806,-1.74019 1.3283,-2.10576 2.23715,-2.55376 0.4499,-0.22177 1.02143,-0.35973 1.15313,-0.27833 0.13316,0.0823 -1.28946,2.45004 -1.76109,2.93105 -0.41162,0.41979 -1.1851,0.89928 -1.4275,0.88491 -0.0606,-0.004 -0.23186,-0.0519 -0.38063,-0.10727 z m 2.12032,-0.0667 c -0.4533,-0.18104 -0.45583,-0.2454 -0.0248,-0.63307 0.26553,-0.23885 0.65226,-0.77852 1.11562,-1.55681 0.39007,-0.65518 0.74527,-1.24814 0.78935,-1.31771 0.0674,-0.10647 0.11613,-0.0928 0.30755,0.0858 0.39579,0.36948 0.58489,0.83987 0.5856,1.45675 0.001,0.86436 -0.42987,1.55191 -1.19018,1.89918 -0.37585,0.17166 -1.22928,0.20716 -1.5831,0.0659 z"
       id="path27"
       sodipodi:nodetypes="ssscsssssscscssssssscsssssscscssssssscssscssssssccsssssssscsssssssccsssssccsssssssssssssssssssssssssssssssssssscsssscsssssssssscsscssssssssssssssssssssssssscscssssssccsssscsssscscssssscccsssssscccssssssccsssssssssssssscssscsssssscssssccsssscssss" /></g></svg>
