<?xml version="1.0" encoding="UTF-8" standalone="no"?>
<!-- Created with Inkscape (http://www.inkscape.org/) -->

<svg
   version="1.1"
   id="svg1"
   width="512"
   height="512"
   viewBox="0 0 512 512"
   sodipodi:docname="bademantel.png"
   xmlns:inkscape="http://www.inkscape.org/namespaces/inkscape"
   xmlns:sodipodi="http://sodipodi.sourceforge.net/DTD/sodipodi-0.dtd"
   xmlns="http://www.w3.org/2000/svg"
   xmlns:svg="http://www.w3.org/2000/svg">
  <defs
     id="defs1" />
  <sodipodi:namedview
     id="namedview1"
     pagecolor="#ffffff"
     bordercolor="#000000"
     borderopacity="0.25"
     inkscape:showpageshadow="2"
     inkscape:pageopacity="0.0"
     inkscape:pagecheckerboard="0"
     inkscape:deskcolor="#d1d1d1">
    <inkscape:page
       x="0"
       y="0"
       width="512"
       height="512"
       id="page2"
       margin="0"
       bleed="0" />
  </sodipodi:namedview>
  <g
     inkscape:groupmode="layer"
     inkscape:label="Image"
     id="g1">
    <path
       style="fill:#000000"
       d="M 126.76578,509.08224 123.5,506.16448 123,402.86443 122.5,299.56438 109.10543,356.53219 c -7.36702,31.3323 -14.034404,58.24076 -14.816419,59.79659 -0.782016,1.55583 -2.987968,3.48314 -4.902117,4.28293 -3.400123,1.42066 -4.230135,1.20582 -36.041201,-9.32878 C 17.824166,399.51956 16,398.58022 16,392.05195 16,384.3886 60.97504,110.63618 63.596026,102.34622 67.886074,88.777146 74.117133,78.859414 85.48902,67.5 95.074982,57.924552 97.173411,56.459848 134.91593,33 156.5947,19.525 177.49917,6.5875 181.37032,4.25 L 188.40878,0 h 67.636 67.636 l 7.90961,4.7610177 C 335.94067,7.3795775 356.825,20.317077 378,33.511018 414.71444,56.387437 416.96429,57.963781 426.51098,67.5 437.88252,78.859064 444.11335,88.776239 448.40441,102.34622 451.00883,110.5824 496,384.41342 496,392.0286 c 0,6.49002 -2.34551,7.6966 -37.69628,19.39166 -31.42442,10.39611 -32.27955,10.61668 -35.66951,9.20026 -1.91028,-0.79816 -4.04457,-2.5018 -4.74289,-3.78586 C 417.19301,415.5506 410.44233,388.4 402.88982,356.5 l -13.73184,-58 -0.32899,103.83219 L 388.5,506.16438 385.23422,509.08219 381.96845,512 H 256 130.03155 Z M 226,426.5 V 361 H 184.5 143 v 65.5 65.5 h 41.5 41.5 z m 40,0 V 361 h -10 -10 v 65.5 65.5 h 10 10 z m 103,-0.0199 V 360.96022 L 347.75,361.23011 326.5,361.5 326,378.67291 c -0.46471,15.9608 -0.65539,17.33716 -2.70157,19.5 -1.21087,1.2799 -10.08151,8.17709 -19.71253,15.32709 l -17.51096,13 -0.0375,32.75 L 286,492 H 327.5 369 Z M 296.52502,393.87816 306,386.75631 V 343.87816 301 h -10 -10 v 50 c 0,27.5 0.23626,50 0.52502,50 0.28876,0 4.78876,-3.20483 10,-7.12184 z M 82.242725,383.75 c 1.883565,-7.8375 3.134256,-14.59274 2.779314,-15.01166 -1.306611,-1.54209 -42.427458,-14.70039 -43.007423,-13.76199 -0.839894,1.35898 -5.26606,29.10554 -4.728675,29.64292 0.757099,0.7571 38.115343,13.22141 39.87309,13.30337 1.321143,0.0616 2.356517,-2.82488 5.083694,-14.17264 z m 373.006675,7.66687 c 10.86283,-3.62072 19.74541,-7.10822 19.73907,-7.75 -0.0208,-2.1053 -4.67532,-28.6882 -5.08683,-29.05198 -0.75818,-0.67023 -43.40168,14.113 -43.2665,14.9992 1.13235,7.42302 6.81901,28.38591 7.70032,28.38591 0.63984,0 10.05112,-2.96241 20.91394,-6.58313 z M 107.39319,277.06556 c 13.11903,-55.64871 17.05115,-70.90964 18.73135,-72.69813 2.75368,-2.93115 7.23157,-3.87678 10.98867,-2.32054 5.75486,2.38374 5.88679,3.34525 5.88679,42.90345 V 281 h 40.06739 c 37.68134,0 40.0379,-0.10421 39.57233,-1.75 -0.27228,-0.9625 -0.79933,-4.225 -1.17123,-7.25 -3.04955,-24.80492 -14.33648,-64.31914 -26.42192,-92.5 C 178.39114,140.66283 151.96419,99.918264 124.79996,71.19515 l -5.01694,-5.304851 -7.95039,5.219585 C 98.370771,79.947845 87.640058,93.478918 82.425648,108.19111 80.96598,112.30948 44.734607,333.06794 45.407861,333.74119 c 1.018707,1.01871 44.20251,14.90512 44.736364,14.38566 0.354324,-0.34477 8.116356,-32.32235 17.248965,-71.06129 z m 359.18177,54.07966 c -0.29585,-1.45487 -8.21256,-50.11821 -17.59269,-108.14076 -9.38012,-58.02255 -17.75231,-108.19755 -18.60487,-111.5 C 426.74454,97.432307 415.28536,81.342827 402.91073,72.939375 399.72018,70.772719 396.74622,69 396.30192,69 c -0.44431,0 -29.33315,28.527976 -64.19743,63.3955 l -63.38961,63.3955 3.19232,11.83569 c 4.3334,16.06632 8.69207,38.17836 10.61937,53.87331 0.878,7.15 1.81409,14.4625 2.08021,16.25 l 0.48385,3.25 H 327.04531 369 v -37.07692 -37.07693 l 2.92308,-2.92307 c 4.35405,-4.35405 11.86733,-3.69084 14.99915,1.324 0.72294,1.15762 8.6905,33.41309 17.70568,71.67884 9.01518,38.26574 16.58747,70.10963 16.8273,70.76419 0.29838,0.81437 7.57481,-1.19199 23.04687,-6.35478 22.53329,-7.51902 22.60896,-7.55396 22.07288,-10.19011 z M 266,321 V 301 H 204.5 143 v 20 20 h 61.5 61.5 z m 103,0 V 301 H 347.5 326 v 20 20 H 347.5 369 Z M 264.57752,277.75 c -0.28221,-1.7875 -0.9923,-7.3 -1.57796,-12.25 -9.16622,-77.47195 -46.07047,-156.47368 -98.91553,-211.750579 l -9.21568,-9.639763 -8.42541,5.195171 c -4.63398,2.857344 -8.42936,5.566329 -8.43418,6.019967 -0.005,0.453637 3.12225,4.278637 6.94905,8.5 C 167.52577,88.71966 192.3737,126.17574 206.76916,157 c 15.84678,33.9319 27.84468,71.74601 33.15643,104.5 1.15952,7.15 2.34601,14.4625 2.63663,16.25 l 0.52841,3.25 h 11 11 z m 55.26543,-162.09294 58.33654,-58.342931 -8.12285,-5.157064 C 365.58908,49.320679 361.61274,47 361.22034,47 c -0.3924,0 -24.82738,24.110824 -54.29996,53.57961 l -53.5865,53.57961 4.03816,9.92039 c 2.22099,5.45621 4.05981,9.92039 4.08626,9.92039 0.0265,0 26.29955,-26.25432 58.38465,-58.34294 z M 294.47692,85.023088 c 30.67606,-30.680852 48.60575,-49.317566 47.99617,-49.888814 -0.5352,-0.501546 -6.13221,-4.111936 -12.43781,-8.023088 L 318.57057,20 H 256.13939 193.7082 l -9.84878,6.086881 c -5.41683,3.347785 -10.07572,6.454082 -10.35309,6.902884 -0.27738,0.448802 3.14872,4.797205 7.61356,9.663119 21.55366,23.489854 40.55255,50.178339 56.55831,79.449686 3.57808,6.54358 6.80346,11.89743 7.16752,11.89743 0.36407,0 22.6981,-22.03961 49.6312,-48.976912 z"
       id="path1" />
  </g>
</svg>
