<?xml version="1.0" encoding="UTF-8" standalone="no"?>
<!-- Created with Inkscape (http://www.inkscape.org/) -->

<svg
   version="1.1"
   id="svg6260"
   width="512"
   height="512"
   viewBox="0 0 512 512"
   sodipodi:docname="bar.png"
   xmlns:inkscape="http://www.inkscape.org/namespaces/inkscape"
   xmlns:sodipodi="http://sodipodi.sourceforge.net/DTD/sodipodi-0.dtd"
   xmlns="http://www.w3.org/2000/svg"
   xmlns:svg="http://www.w3.org/2000/svg">
  <defs
     id="defs6264" />
  <sodipodi:namedview
     id="namedview6262"
     pagecolor="#ffffff"
     bordercolor="#000000"
     borderopacity="0.25"
     inkscape:showpageshadow="2"
     inkscape:pageopacity="0.0"
     inkscape:pagecheckerboard="0"
     inkscape:deskcolor="#d1d1d1"
     showgrid="false" />
  <g
     inkscape:groupmode="layer"
     inkscape:label="Image"
     id="g6266">
    <path
       style="fill:#000000"
       d="M 3.4,508.6 C -0.3414888,504.85851 -0.89716282,501.6356 1.4250045,497.14503 3.335275,493.45097 6.8948701,492 14.047053,492 H 20 V 371.5 251 h -6.6 c -6.172549,0 -6.820202,-0.2202 -10,-3.4 -3.7414888,-3.74149 -4.29716282,-6.9644 -1.9749955,-11.45497 0.7837524,-1.51561 2.6049263,-3.29327 4.047053,-3.95034 C 7.4140731,231.30984 24.032036,231 69.547053,231 H 131 v -10.53138 c 0,-9.1497 -0.2296,-10.60493 -1.75,-11.0919 -0.9625,-0.30828 -4.93359,-2.07974 -8.82464,-3.93657 C 107.41903,199.23345 98.18969,186.38401 96.047225,171.5 94.740171,162.4197 94.726552,142.52464 96.024193,137.85281 97.950071,130.91918 97.425185,131 140.53056,131 c 25.73866,0 39.27365,0.36003 40.61984,1.08049 3.68322,1.9712 4.85014,6.94474 4.84205,20.63739 -0.004,7.03017 -0.47401,15.70712 -1.04411,19.28212 -2.61507,16.39851 -14.39839,30.87567 -29.23527,35.91888 L 150.5,209.69085 V 220.09543 230.5 l 45.25,0.26019 45.25,0.26019 V 220.2176 209.41481 l -4.25,-1.14072 c -5.91896,-1.58867 -15.69308,-8.14766 -20.03178,-13.44248 -2.00334,-2.44481 -5.12198,-7.56957 -6.93032,-11.38836 L 206.5,176.5 l -0.34023,-19.73669 -0.34023,-19.73669 3.0133,-3.01331 L 211.84615,131 H 251 290.15385 l 2.92307,2.92308 2.92308,2.92307 -0.0119,17.32693 c -0.008,11.27196 -0.4793,19.07419 -1.34948,22.32692 -2.14345,8.0122 -6.48195,15.52026 -12.18671,21.08988 C 277.20213,202.71534 266.40008,209 262.84028,209 261.16477,209 261,209.98491 261,220 v 11 h 27.44525 27.44525 l 0.3071,-54.75 c 0.3051,-54.39423 0.32221,-54.79224 2.63255,-61.25 2.90555,-8.1215 6.76062,-14.21857 12.61923,-19.958208 L 336,90.583584 336.002,50.041792 c 10e-4,-36.599696 0.17157,-40.8807631 1.75,-44.0278805 2.92362,-5.82916426 4.17069,-6.06860639 30.0867,-5.77674376 L 391.1765,0.5 393.58825,3.3057637 396,6.1115274 V 47.720833 89.330138 l 6.0162,6.265244 c 7.66362,7.980868 12.60479,18.045528 13.95029,28.415288 0.53447,4.11913 0.98565,29.87683 1.00263,57.23933 L 417,231 h 43.45295 c 46.68352,0 47.50506,0.0843 50.12205,5.14503 2.32216,4.49057 1.76649,7.71348 -1.975,11.45497 -3.1798,3.1798 -3.82745,3.4 -10,3.4 H 492 V 371.5 492 h 6.6 c 6.17255,0 6.8202,0.2202 10,3.4 4.61342,4.61342 4.61342,8.58658 0,13.2 l -3.4,3.4 H 256 6.8 Z M 141,477 v -15 h -31.04966 c -26.228967,0 -31.519953,-0.2432 -34.078778,-1.56642 -6.03669,-3.12169 -5.871919,-0.60424 -5.867824,-89.65146 0.0037,-79.47411 0.04815,-81.35497 2.00046,-84.55705 1.098197,-1.8012 3.150809,-3.7137 4.561361,-4.25 4.151018,-1.57821 356.263541,-1.28081 359.434441,0.30358 1.375,0.68705 3.2868,2.81791 4.24845,4.73526 1.62135,3.23269 1.74855,9.35794 1.75,84.26821 0.002,88.49968 0.16424,86.03103 -5.87001,89.15146 C 433.56961,461.7568 428.27863,462 402.04966,462 H 371 v 15 15 H 421.5 472 V 371.5 251 H 256 40 V 371.5 492 H 90.5 141 Z m 40,-25 v -40 h -10 -10 v 40 40 h 10 10 z m 130,25 v -15 h -55 -55 v 15 15 h 55 55 z m 40,-25 v -40 h -10 -10 v 40 40 h 10 10 z M 141,427 v -15 l -9.75,-0.006 c -11.86194,-0.007 -16.69242,-1.21382 -19.00946,-4.75006 C 110.71345,404.91372 110.5,401.75662 110.5,381.5 c 0,-26.14921 0.3391,-27.52821 7.24054,-29.44481 5.15095,-1.43047 100.40607,-1.41986 105.56148,0.0118 2.55477,0.70944 4.43982,2.10182 5.74626,4.24443 1.77012,2.90306 1.94424,5.15896 1.94424,25.18863 0,20.02967 -0.17412,22.28557 -1.94424,25.18863 -2.492,4.08698 -6.78455,5.29855 -18.79828,5.30579 L 201,412 v 15 15 h 55 55 v -15 -15 l -9.25,-0.006 c -12.01373,-0.007 -16.30628,-1.21881 -18.79828,-5.30579 -1.77012,-2.90306 -1.94424,-5.15896 -1.94424,-25.18863 0,-20.02967 0.17412,-22.28557 1.94424,-25.18863 1.30644,-2.14261 3.19149,-3.53499 5.74626,-4.24443 5.15541,-1.43161 100.41053,-1.44222 105.56148,-0.0118 6.90144,1.9166 7.24054,3.2956 7.24054,29.44481 0,20.25662 -0.21345,23.41372 -1.74054,25.74436 -2.31704,3.53624 -7.14752,4.74328 -19.00946,4.75006 L 371,412 v 15 15 H 396.5 422 V 371.5 301 H 256 90 v 70.5 70.5 h 25.5 25.5 z m 70,-45.51134 v -10.51135 l -40.25,0.26135 -40.25,0.26134 -0.29142,8.92086 c -0.16029,4.90647 -0.0619,9.51897 0.21861,10.25 0.41248,1.07489 8.16753,1.32914 40.54143,1.32914 H 211 Z m 170.5,0.0113 v -10 L 341.25,371.23862 301,370.97727 v 10.52269 10.52269 l 40.25,-0.26135 40.25,-0.26134 z M 397,216 V 201 H 366.5 336 v 15 15 H 366.5 397 Z M 148.0685,189.38908 c 3.90864,-1.15927 6.73582,-2.91419 10.08356,-6.25921 5.9939,-5.98903 8.0511,-12.52697 7.63999,-24.28043 L 165.5,150.5 h -25 -25 l 0.0384,10.5 c 0.0319,8.72493 0.41043,11.26807 2.23916,15.04332 3.04348,6.28303 8.1208,10.88445 14.40507,13.05489 6.6014,2.27997 9.02941,2.32442 15.88589,0.29087 z m 114.91352,-1.97581 c 9.67848,-5.26769 12.90929,-12.03189 12.97409,-27.16327 L 276,150 h -25.10533 -25.10532 l 0.35532,11.75 c 0.3236,10.70062 0.60303,12.17137 3.12879,16.4681 6.93,11.78904 21.59349,15.78902 33.70856,9.19517 z M 396.5,165.5 v -15 h -30 -30 l -0.27613,15.2647 -0.27612,15.2647 30.27612,-0.2647 L 396.5,180.5 Z m -0.31096,-39 c -0.4753,-6.11393 -4.73593,-13.99088 -9.86596,-18.23992 -2.49683,-2.06804 -5.61595,-4.75213 -6.93139,-5.96463 L 377,100.09091 V 60.045455 20 H 366.5 356 v 39.853977 39.853978 l -2.36877,2.396025 c -1.30283,1.31781 -4.2198,3.87719 -6.48216,5.68751 -2.26236,1.81031 -5.22103,5.18531 -6.57482,7.5 -2.62377,4.48609 -4.99883,13.21251 -4.02491,14.78834 0.35529,0.57487 12.30209,0.84522 30.26881,0.68495 L 396.5,130.5 Z"
       id="path6387" />
  </g>
</svg>
