<?xml version="1.0" encoding="UTF-8" standalone="no"?>
<!-- Created with Inkscape (http://www.inkscape.org/) -->

<svg
   version="1.1"
   id="svg2"
   width="512"
   height="512"
   viewBox="0 0 512 512"
   xmlns="http://www.w3.org/2000/svg"
   xmlns:svg="http://www.w3.org/2000/svg">
  <defs
     id="defs6" />
  <g
     id="g8">
    <path
       style="fill:#000000"
       d="m 359.92098,509.51814 c -27.96176,-4.71063 -53.79659,-18.27413 -73.25564,-38.45981 -4.53954,-4.70906 -10.14886,-11.35265 -12.46515,-14.76353 l -4.21144,-6.20162 -26.46826,-0.29659 c -26.01391,-0.2915 -26.50733,-0.33566 -28.74437,-2.57258 -2.22965,-2.22953 -2.28633,-2.83174 -2.77612,-29.5 L 211.5,390.5 179,390 c -31.23052,-0.48047 -32.69531,-0.58971 -37.5,-2.79661 -6.84297,-3.14312 -13.78351,-10.25212 -17.17609,-17.593 L 121.5,363.5 121.1865,331.75 120.873,300 H 94.452277 68.031553 L 64.765777,297.0836 61.5,294.1672 61.189232,268.17591 60.878463,242.18462 53.689232,236.89323 C 27.61174,217.6998 9.2768758,188.81282 2.3454619,156 -0.14223959,144.2234 -0.14469155,118.79688 2.3407367,107 13.933497,51.975898 55.989021,11.402523 110.76316,2.3986737 125.88855,-0.0876585 148.04345,0.92805059 163,4.7935135 c 23.80601,6.1525705 43.26586,17.2630485 60.60465,34.6018355 20.81929,20.819293 33.28863,45.947011 37.48295,75.534161 1.4489,10.22071 0.64092,32.5527 -1.54022,42.57049 -6.8545,31.48212 -24.68905,59.54607 -49.72007,78.23813 L 201,242.32998 v 24.90075 c 0,25.83626 -0.25817,27.66872 -4.36704,30.99703 -1.90069,1.53962 -5.0505,1.73019 -28.92445,1.75 L 140.91702,300 l 0.29149,30.42859 c 0.27908,29.13272 0.38112,30.54875 2.39602,33.25 1.15749,1.55178 3.63249,3.72141 5.5,4.82141 3.18846,1.87807 5.19396,2 32.89547,2 h 29.5 l 0.5,-27.22401 c 0.48979,-26.66826 0.54647,-27.27047 2.77612,-29.5 2.23704,-2.23692 2.73046,-2.28108 28.74437,-2.57258 l 26.46826,-0.29659 4.16698,-6.20341 c 5.60817,-8.34891 22.61056,-25.0992 31.84427,-31.3721 14.40902,-9.78873 31.36017,-17.09784 48.5,-20.91255 10.84551,-2.41382 35.01017,-2.93926 46.73684,-1.01624 26.82794,4.39942 52.00181,17.02842 70.76459,35.50054 19.73839,19.43262 31.89301,41.73468 37.65783,69.09694 2.48255,11.78323 2.48255,37.21677 0,49 -11.54505,54.79766 -53.80116,95.71629 -107.90678,104.49135 -11.03182,1.78919 -31.29311,1.80216 -41.8315,0.0268 z M 402.5,489.08845 c 43.49173,-9.11043 75.87924,-40.39487 86.70147,-83.74854 3.17384,-12.71432 3.17384,-36.9655 0,-49.67982 -9.36561,-37.51846 -35.27897,-66.57501 -70.64678,-79.21596 -28.2521,-10.09769 -60.94129,-8.28674 -87.05469,4.82274 -16.81056,8.43926 -33.53246,23.32315 -43.85391,39.03367 -3.49419,5.31859 -6.7698,9.17619 -8.27902,9.75 C 277.99357,330.57274 266.7741,331 254.4349,331 H 232 v 49.5 49.5 h 22.4349 c 12.3392,0 23.55867,0.42726 24.93217,0.94946 1.50922,0.57381 4.78483,4.43141 8.27902,9.75 13.11629,19.96461 34.36533,36.65808 56.35391,44.27223 17.87217,6.18874 40.87953,7.80781 58.5,4.11676 z m -39.0905,-28.57261 c -25.58564,-5.56688 -48.12492,-24.44783 -58.25035,-48.79578 -4.72107,-11.35244 -6.52101,-22.17434 -5.84934,-35.16829 0.69054,-13.35877 2.43895,-20.21314 8.17575,-32.05177 9.73504,-20.08953 26.35641,-34.35593 49.01444,-42.06993 11.52978,-3.92534 30.12381,-4.57468 43,-1.50164 30.17503,7.20161 52.61487,29.26175 61.10791,60.07393 2.48846,9.02798 2.48846,29.9673 0,38.99528 -8.43412,30.59842 -30.93494,52.85685 -60.60791,59.95503 -9.97507,2.38617 -27.00707,2.64832 -36.5905,0.56317 z m 32.85957,-20.08556 c 17.24859,-4.46956 32.27819,-16.75373 40.28997,-32.93028 17.26581,-34.86133 -2.44137,-77.06608 -40.639,-87.03216 -10.08291,-2.63072 -27.25511,-1.68193 -36.42004,2.01227 -19.87546,8.01139 -34.40275,24.27935 -38.96511,43.63393 -7.68635,32.6073 12.16332,65.44691 44.96511,74.39099 6.9428,1.89309 23.32853,1.85328 30.76907,-0.0747 z M 261.5,404.09249 c -1.1,-0.47104 -2.9,-1.85679 -4,-3.07945 -1.84676,-2.05269 -2,-3.63069 -2,-20.5953 v -18.37229 l 2.75,-2.75 c 4.09166,-4.09166 9.94195,-3.88343 13.85234,0.49305 L 275,363.03155 V 380.5 397.96845 l -2.75,3.01826 c -2.92247,3.20754 -7.45459,4.51692 -10.75,3.10578 z M 181,256.93426 c 0,-13.85131 0.40979,-23.83143 1.02578,-24.98243 0.56418,-1.05419 4.95168,-4.49587 9.75,-7.64819 15.6351,-10.27168 30.53312,-27.02301 38.95735,-43.80364 11.29663,-22.50229 14.31673,-52.09117 7.85689,-76.97652 C 228.67754,65.337451 198.0209,34.720579 159.20581,24.242248 150.48289,21.887449 147.67718,21.61632 131.5,21.564891 c -15.37737,-0.04889 -19.25556,0.262722 -26.61731,2.138677 -40.208216,10.246033 -70.749777,40.59716 -81.635915,81.126892 -2.291022,8.52961 -2.600923,11.6147 -2.628764,26.16954 -0.02629,13.74272 0.336335,17.97172 2.169994,25.30698 7.205041,28.82263 24.022827,52.57585 48.420362,68.38826 C 81.447402,231.33131 81,229.86791 81,256.72251 V 280 h 50 50 z m -68.88993,-1.29582 c -4.74235,-2.69584 -6.30666,-8.4238 -3.68507,-13.49341 2.32012,-4.48661 5.22145,-5.14503 22.67171,-5.14503 16.90919,0 20.66148,0.81113 22.87365,4.94461 1.82973,3.41889 1.2039,8.74109 -1.38161,11.74963 l -2.41126,2.80576 -17.83874,0.24851 c -13.56437,0.18896 -18.41141,-0.077 -20.22868,-1.11007 z M 114,211.45513 C 83.650801,204.98433 59.969697,182.11661 51.392093,150.99764 48.644249,141.02865 48.86337,120.97122 51.834517,110.5 60.202067,81.010227 83.118929,58.878896 112.5,51.913975 c 11.91428,-2.824335 31.25379,-2.331682 42,1.069906 27.41866,8.679058 48.64922,30.610445 56.16218,58.016119 2.48855,9.07771 2.49326,31.89275 0.008,41 -6.0082,22.02112 -21.74843,41.5637 -41.94681,52.07986 -15.60241,8.1233 -37.42268,11.06407 -54.72383,7.37527 z m 37,-21.36208 c 19.77158,-6.90162 35.79862,-24.41075 40.46511,-44.20709 7.05737,-29.93905 -9.12149,-60.640239 -37.96511,-72.043029 -6.91188,-2.732484 -9.56417,-3.223007 -19.5,-3.606395 -13.34592,-0.51497 -20.44389,0.922783 -30.91342,6.261775 -26.90484,13.720269 -40.115546,44.866199 -31.182597,73.516969 6.079785,19.49978 24.06538,36.506 43.868677,41.47988 8.76755,2.2021 26.97856,1.47727 35.22734,-1.40211 z m 172.5,0.49531 c -3.82738,-1.7011 -7.00406,-5.15717 -8.89079,-9.67273 -1.28682,-3.0798 -1.35899,-9.04887 -0.53788,-44.48635 0.99307,-42.858686 1.5148,-47.777379 6.00039,-56.569868 2.75752,-5.405173 9.93009,-13.015935 15.77667,-16.740506 15.51914,-9.886481 37.45796,-9.660096 52.83285,0.545179 9.39547,6.236358 15.84046,16.95603 17.12537,28.483878 l 0.69339,6.2209 7.1738,1.207376 c 9.6976,1.632141 17.31084,5.313161 23.22892,11.231241 20.27565,20.27565 16.16523,56.74658 -8.15458,72.35388 -9.9481,6.38422 -13.48003,6.89663 -54.24814,7.87028 -47.45184,1.13327 -47.45285,1.13326 -51,-0.44328 z m 83.84284,-20.64122 c 13.6606,-2.0245 22.63431,-12.74918 22.65158,-27.07141 0.0116,-9.60931 -4.54443,-17.47595 -12.38382,-21.38248 C 413.42505,119.4075 411.17908,119 403.86876,119 c -15.02051,0 -16.83731,-1.75237 -17.28304,-16.67018 -0.32304,-10.811221 -1.99285,-15.542767 -7.24414,-20.526772 -9.13024,-8.665531 -28.05487,-7.894756 -37.15862,1.513423 -6.24557,6.454428 -7.11522,10.223738 -7.68598,33.313179 -0.28375,11.47869 -0.73801,28.63359 -1.00948,38.12199 l -0.49357,17.25163 34.25303,-0.59511 c 18.83917,-0.32731 36.88232,-0.98477 40.09588,-1.46102 z"
       id="path239" />
  </g>
</svg>
