<?xml version="1.0" encoding="UTF-8" standalone="no"?>
<!-- Created with Inkscape (http://www.inkscape.org/) -->

<svg
   version="1.1"
   id="svg1"
   width="512"
   height="512"
   viewBox="0 0 512 512"
   xmlns="http://www.w3.org/2000/svg"
   xmlns:svg="http://www.w3.org/2000/svg">
  <defs
     id="defs1" />
  <g
     id="g1">
    <path
       style="fill:#000000"
       d="M 3.4,508.6 C -0.3414888,504.85851 -0.89716282,501.6356 1.4250045,497.14503 2.9133429,494.2669 6.7122142,492 10.047053,492 11.121174,492 12,491.84521 12,491.65602 c 0,-0.18919 1.364867,-7.05169 3.033038,-15.25 12.189265,-59.90475 21.597287,-141.40468 24.538139,-212.5693 l 0.688604,-16.66329 -12.21429,-0.33671 C 9.7581379,246.33258 11.64786,250.36683 5.1033066,197.85889 0.08084428,157.56291 -0.11625217,155.12549 1.4092346,152.17552 2.2955411,150.46159 3.8864595,148.59595 4.944609,148.02964 6.0809681,147.42148 15.090579,147 26.954241,147 h 20.085723 l 9.230018,-4.62823 C 102.80383,119.03817 198.48712,50.422712 243.20809,8.3165439 c 7.85846,-7.39897973 10.92839,-9.0010733 15.19561,-7.93006892 1.32204,0.33181007 7.50954,5.28535132 13.75,11.00786902 46.65327,42.781145 138.72291,108.469206 183.57632,130.974476 L 464.96004,147 h 20.08572 c 11.86366,0 20.87327,0.42148 22.00963,1.02964 1.05815,0.56631 2.64907,2.43195 3.53538,4.14588 1.52548,2.94997 1.32839,5.38739 -3.69408,45.68337 -6.54025,52.47342 -4.67734,48.474 -22.81229,48.97486 L 472,247.1675 v 4.76964 c 0,10.07767 2.11823,46.61381 4.06198,70.06286 4.68662,56.53837 11.72609,108.86736 20.51438,152.49661 1.883,9.34814 3.42364,17.11064 3.42364,17.25 0,0.13937 1.17,0.25339 2.6,0.25339 1.62353,0 3.87692,1.27692 6,3.4 4.61342,4.61342 4.61342,8.58658 0,13.2 l -3.4,3.4 H 256 6.8 Z M 137,491.60906 c 0,-0.21502 1.55,-16.30252 3.44444,-35.75 7.53797,-77.3815 12.39545,-146.52631 13.84707,-197.10906 L 154.6287,247 H 107.42758 60.226447 l -0.662331,15.25 C 56.754373,326.94353 50.447173,388.37116 40.491878,448 37.258727,467.36548 33.62432,486.36995 32.412008,490.25 31.89603,491.90141 34.826802,492 84.432612,492 113.34468,492 137,491.82408 137,491.60906 Z M 196.01736,439.25 c 0.014,-42.51156 0.30262,-54.10866 1.48704,-59.75 5.64992,-26.91045 30.98143,-47.46527 58.4956,-47.46527 27.51417,0 52.84568,20.55482 58.4956,47.46527 1.18442,5.64134 1.47304,17.23844 1.48704,59.75 L 316,492 h 19.62883 19.62883 l -0.60414,-4.75 c -1.42677,-11.21795 -7.81189,-81.38476 -10.12365,-111.25 -3.93985,-50.8982 -5.52533,-77.50411 -6.2124,-104.25 L 337.68167,247 h -81.68136 -81.68136 l -0.64127,24.25 c -1.1489,43.44655 -8.15094,137.79435 -15.22204,205.10681 C 157.65504,483.97805 157,490.61555 157,491.10681 157,491.60053 165.72122,492 176.5,492 H 196 Z m 99.77283,-2 L 295.5,382.5 292.33548,375.82039 C 287.93099,366.52347 282.26176,360.73285 273.16042,356.23472 266.01969,352.70558 265.07508,352.5 256,352.5 c -9.07508,0 -10.01969,0.20558 -17.16042,3.73472 -9.10134,4.49813 -14.77057,10.28875 -19.17506,19.58567 L 216.5,382.5 216.20981,437.25 215.91962,492 H 256 296.08038 Z m 182.04969,45.5 C 465.26689,421.58176 455.79375,339.43451 452.41206,262.25 L 451.74391,247 h -47.2289 -47.22891 l 0.38175,12.25 c 1.64049,52.64102 7.02712,128.28738 14.36623,201.75 1.62093,16.225 2.95136,29.8375 2.95653,30.25 0.005,0.4125 23.57616,0.75 52.37999,0.75 h 52.37059 z m 5.61038,-258 c 0.2686,-1.2375 1.86598,-13.725 3.54974,-27.75 1.68376,-14.025 3.28114,-26.5125 3.54974,-27.75 L 491.0381,167 H 256 20.961896 l 0.488364,2.25 c 0.2686,1.2375 1.865983,13.725 3.54974,27.75 1.683757,14.025 3.28114,26.5125 3.54974,27.75 L 29.038104,227 H 256 482.9619 Z m -318.77427,-84 c 8.64263,-10.7491 15.97904,-21.10431 28.6914,-40.49739 C 205.28995,82.064397 222,54.834107 222,53.593606 c 0,-0.336074 -5.2875,3.584502 -11.75,8.712391 C 178.23367,87.710435 132.47441,120.02858 101,139.4654 c -5.225,3.22667 -9.9275,6.24195 -10.45,6.70063 C 90.0275,146.62472 105.36143,147 124.62539,147 h 35.0254 z M 326,146.54637 c 0,-0.2495 -2.99973,-4.61547 -6.66607,-9.70217 C 302.85259,113.97791 276.41615,71.471684 263,46.266858 c -3.575,-6.716327 -6.725,-12.211503 -7,-12.211503 -0.275,0 -3.425,5.495176 -7,12.211503 -13.50432,25.370465 -40.04782,68.020502 -56.3077,90.475072 -3.68077,5.08305 -6.6923,9.47055 -6.6923,9.75 0,0.27944 31.5,0.50807 70,0.50807 38.5,0 70,-0.20413 70,-0.45363 z m 95.45,-0.36844 c -0.5225,-0.45213 -5.9,-3.91647 -11.95,-7.69852 C 375.11256,116.98272 326.24917,82.277024 297.25,58.752762 293.2625,55.518084 290,53.171481 290,53.538089 c 0,1.288775 16.47269,28.164204 28.63261,46.714521 12.71236,19.39308 20.04877,29.74829 28.6914,40.49739 l 5.0252,6.25 h 35.0254 c 19.26396,0 34.59789,-0.36993 34.07539,-0.82207 z"
       id="path1" />
  </g>
</svg>
