<?xml version="1.0" encoding="UTF-8" standalone="no"?>
<!-- Created with Inkscape (http://www.inkscape.org/) -->

<svg
   version="1.1"
   id="svg1"
   width="512"
   height="512"
   viewBox="0 0 512 512"
   xmlns="http://www.w3.org/2000/svg"
   xmlns:svg="http://www.w3.org/2000/svg">
  <defs
     id="defs1" />
  <g
     id="g1">
    <path
       style="fill:#000000"
       d="M 6.0139115,504.24845 C 0.88285146,501.67497 0.03095829,499.08191 0.01876312,486 -0.01051853,454.58921 10.239416,428.75554 30.942655,408.06025 43.341685,395.66597 58.3204,386.87895 76.5,381.33476 c 8.462702,-2.58085 10.134296,-2.74471 28,-2.74471 17.8657,0 19.5373,0.16386 28,2.74471 16.37501,4.99385 28.60131,11.6652 41.01032,22.37752 l 7.01032,6.05179 5.35147,-4.92068 c 14.17228,-13.03146 33.00231,-22.26637 52.56155,-25.77806 8.59668,-1.54345 28.07374,-1.30656 37.35654,0.45436 18.39762,3.48997 36.30055,12.48773 50.30485,25.28252 l 5.40495,4.93815 7.90286,-6.7793 C 351.95957,392.18955 366.74654,384.53984 383,380.40704 c 6.07075,-1.54362 10.93019,-1.89511 25.5,-1.84446 16.63323,0.0578 18.68339,0.26966 27,2.78973 17.89624,5.42287 32.7516,14.05641 44.9912,26.14769 21.09271,20.83712 31.51956,46.8297 31.49004,78.5 -0.0122,13.08191 -0.86409,15.67497 -5.99515,18.24845 -3.29068,1.65043 -17.30353,1.74844 -249.98609,1.74844 -232.682563,0 -246.695411,-0.098 -249.9860885,-1.74844 z M 152.11804,475.33116 c 0.8502,-13.98873 4.12483,-26.35154 10.30487,-38.90422 l 5.19273,-10.54727 -6.73059,-6.34929 C 152.36851,411.4963 142.97252,405.92685 131.45369,402.085 78.558122,384.44287 23.86014,421.18811 20.298603,476.75724 l -0.593315,9.25724 65.897356,-0.25724 L 151.5,485.5 Z M 339.99299,478.25 C 339.97456,457.85931 329.06606,434.13468 313.11468,419.79302 296.79993,405.12465 277.76599,397.79295 256,397.79295 c -21.76599,0 -40.79993,7.3317 -57.11468,22.00007 -15.95138,14.34166 -26.85988,38.06629 -26.87831,58.45698 L 172,486 h 84 84 z M 492,480.18366 c 0,-20.6602 -9.39128,-42.34028 -25.13366,-58.02188 C 450.69089,406.04877 430.51365,397.7585 407.5,397.76979 c -22.44294,0.011 -41.60866,7.52608 -57.07863,22.38111 l -6.13756,5.89359 3.86969,7.3849 c 7.14965,13.64434 10.62852,25.82728 11.44226,40.07061 0.31422,5.5 0.7446,10.5625 0.95639,11.25 0.30294,0.98337 14.3634,1.25 65.91647,1.25 H 492 Z M 93.041682,353.47 C 75.422318,350.28198 57.407184,336.78352 49.677424,320.97783 44.141729,309.65853 42.682121,302.53889 43.228015,289.51902 43.61981,280.17448 44.169882,277.2843 46.8478,270.5 54.369837,251.44349 70.009041,237.66266 90,232.47547 c 8.923607,-2.31547 24.99361,-1.62073 34,1.46989 19.66499,6.74821 35.79422,24.35368 40.46511,44.16868 8.08207,34.28604 -14.64429,69.27687 -48.96618,75.3912 -9.65835,1.7206 -12.78025,1.71571 -22.457248,-0.0352 z m 20.963048,-20.03927 c 12.57565,-2.86027 22.83205,-11.43185 28.71813,-24.0006 2.50847,-5.35644 2.77714,-6.99429 2.77714,-16.93013 0,-10.35834 -0.18767,-11.38351 -3.21729,-17.57444 -4.10941,-8.39743 -11.7494,-16.04539 -20.16964,-20.19066 -6.20227,-3.05337 -7.18947,-3.2349 -17.59204,-3.2349 -10.319711,0 -11.449975,0.20319 -17.761782,3.19313 -8.724425,4.13281 -15.933305,11.34169 -20.066115,20.06612 C 63.704343,281.06863 63.5,282.20394 63.5,292.5 c 0,10.25617 0.212209,11.44788 3.138207,17.62338 5.635569,11.89421 15.066489,19.85411 27.310865,23.05096 8.284288,2.16293 11.492918,2.20395 20.055658,0.25639 z M 247,353.97522 c -36.77316,-5.84489 -60.76402,-43.08866 -50.3513,-78.1661 3.20881,-10.80955 7.52566,-17.99746 15.84386,-26.38132 C 224.9779,236.84391 238.77518,231 256,231 c 17.28282,0 31.11232,5.84862 43.5,18.39652 14.98444,15.17826 21.09573,34.68697 17.07778,54.51637 -3.60626,17.79765 -12.90672,31.50819 -27.99937,41.27608 -11.00688,7.12361 -28.62095,10.84577 -41.57841,8.78625 z m 16.04035,-19.98287 c 21.17241,-4.01527 36.77448,-24.35493 34.60486,-45.1127 C 295.35152,266.93478 277.76678,251 255.84334,251 c -37.75366,0 -55.76717,45.97524 -28.22094,72.02732 9.9899,9.44803 22.68796,13.37922 35.41795,10.96503 z m 133.24038,19.51793 c -28.69209,-5.20333 -50.20929,-31.19174 -50.26595,-60.71106 -0.0205,-10.69103 1.44535,-16.82288 6.58019,-27.52549 5.73998,-11.96391 14.45801,-20.9974 26.11897,-27.0641 10.89636,-5.6689 19.22895,-7.49943 31.78606,-6.98285 25.41096,1.04536 46.63825,16.75918 55.24022,40.89238 3.42848,9.61875 4.26493,25.33227 1.86039,34.94902 -5.88273,23.5274 -25.69855,42.26787 -49.10168,46.43706 -9.61645,1.71314 -12.79546,1.71386 -22.2182,0.005 z m 20.724,-20.07955 c 12.56807,-2.85854 22.5698,-11.09568 28.39263,-23.38336 2.8866,-6.09146 3.10264,-7.31498 3.10264,-17.57109 0,-10.45792 -0.1699,-11.3687 -3.31035,-17.7453 -4.40256,-8.93928 -11.4267,-16.00128 -19.91439,-20.0217 -6.35118,-3.0084 -7.46509,-3.20928 -17.79629,-3.20928 -10.40257,0 -11.38977,0.18153 -17.59204,3.2349 -8.42024,4.14527 -16.06023,11.79323 -20.16964,20.19066 -3.02962,6.19093 -3.21729,7.2161 -3.21729,17.57444 0,9.93584 0.26867,11.57369 2.77714,16.93013 5.7069,12.18613 15.42977,20.55062 27.57061,23.71871 8.38975,2.18926 11.57507,2.23381 20.15698,0.28189 z M 240.97397,201.38621 C 213.90002,185.78033 184.05853,164.51 168.04701,149.40554 154.57979,136.70124 145.62048,121.75072 140.8371,104 137.81258,92.776274 137.50176,68.199179 140.25534,58 147.84324,29.894665 170.11922,10.711672 199.47856,6.9998445 218.59988,4.5823843 238.10115,10.092731 250.78592,21.497432 L 256,26.185339 261.00708,21.68354 c 9.60655,-8.637109 20.1172,-13.1057394 34.73195,-14.766382 29.38756,-3.3392439 58.07806,11.584419 70.32991,36.582842 6.22749,12.706423 7.43409,18.651832 7.40755,36.5 -0.0193,12.965544 -0.39758,16.889863 -2.31359,24 -2.90963,10.7974 -9.53816,24.75719 -15.4733,32.58699 C 346.27522,149.00671 328.74735,163.8989 303.5,180.92881 279.51932,197.10432 260.41749,208 256.04,208 c -2.6041,0 -6.74787,-1.81906 -15.06603,-6.61379 z m 24.87515,-20.04276 C 290.69883,166.77859 317.19681,147.60522 330.58771,134.5 347.742,117.71168 354.83448,99.811487 353.78003,75.966633 352.55813,48.335193 337.40815,31.029414 310.83074,26.905789 292.40504,24.046943 274.79973,31.525644 266.86713,45.581442 262.9184,52.578207 260.6204,54.454545 256,54.454545 c -4.6204,0 -6.9184,-1.876338 -10.86713,-8.873103 -14.5203,-25.728569 -57.75425,-25.681856 -77.25205,0.08347 -6.6135,8.739399 -9.00393,16.293314 -9.61324,30.378454 -0.66974,15.482066 1.14696,24.275464 7.80956,37.800844 4.32866,8.78738 6.39946,11.65564 13.75921,19.05784 9.83356,9.89029 22.2153,19.70206 39.66365,31.43102 10.73258,7.21456 35.45454,22.62241 36.34912,22.65443 0.19201,0.007 4.69201,-2.53295 10,-5.64405 z"
       id="path1" />
  </g>
</svg>
