<?xml version="1.0" encoding="UTF-8" standalone="no"?>
<!-- Created with Inkscape (http://www.inkscape.org/) -->

<svg
   version="1.1"
   id="svg1"
   width="512"
   height="512"
   viewBox="0 0 512 512"
   xmlns="http://www.w3.org/2000/svg"
   xmlns:svg="http://www.w3.org/2000/svg">
  <defs
     id="defs1" />
  <g
     id="g1">
    <path
       style="fill:#000000"
       d="m 460.38812,507.05778 c -1.16154,-0.49013 -3.1159,-2.16614 -4.34302,-3.72446 -1.96598,-2.4966 -2.18897,-3.76586 -1.87631,-10.68006 0.32268,-7.13585 0.60795,-8.06447 3.14878,-10.25 C 459.2319,480.75663 461.33575,480 464,480 c 2.66425,0 4.7681,0.75663 6.68243,2.40326 2.54754,2.1913 2.82587,3.10609 3.15584,10.37221 0.34505,7.59801 0.22923,8.11466 -2.48819,11.09922 -3.04111,3.34008 -7.51275,4.63853 -10.96196,3.18309 z M 242,473.94717 C 187.28425,469.89219 136.18144,439.7257 105.72042,393.5 67.812439,335.97325 66.347961,261.52376 101.96446,202.55883 111.90282,186.10538 126.83334,168.97628 142.5,156.05428 168.73138,134.4184 204.32081,119.77157 238.75,116.44259 L 246,115.74158 V 94.404957 73.068336 L 180.25,72.784168 114.5,72.5 108.82485,69.839593 C 101.22931,66.278938 94.986142,60.32551 91.470332,53.290479 88.935493,48.218341 88.571896,46.3835 88.539415,38.5 88.507056,30.64613 88.855185,28.781394 91.273102,23.85714 94.647605,16.984736 101.23468,10.718545 108.82485,7.1604071 L 114.5,4.5 H 256 397.5 l 5.67515,2.6604071 c 7.59086,3.5584609 13.83524,9.5104279 17.36214,16.5491139 2.5581,5.105231 2.90146,6.855543 2.90146,14.790479 0,7.934936 -0.34336,9.685248 -2.90146,14.790479 -3.5269,7.038686 -9.77128,12.990653 -17.36214,16.549114 L 397.5,72.5 331.75,72.784168 266,73.068336 v 21.336621 21.336623 l 7.25,0.70101 c 11.52496,1.11435 27.1298,4.39493 38.62857,8.12081 13.95668,4.52231 36.25898,15.73656 48.08737,24.17975 11.58139,8.26688 29.12841,24.97836 37.58568,35.79596 42.23272,54.01938 50.12009,126.51486 20.4554,188.01266 C 385.71251,439.50144 316.3547,479.4576 242,473.94717 Z m 24.10261,-21.99952 c 12.15343,-6.20022 24.4653,-24.36646 33.9525,-50.09711 3.11185,-8.4398 8.34161,-27.96425 9.53585,-35.60054 l 0.66466,-4.25 h -54.24136 -54.24135 l 0.70946,4.75 c 3.06222,20.50227 14.60711,51.65611 24.59045,66.35724 13.25012,19.51165 25.82017,25.57946 39.02979,18.84041 z m -55.88792,-8.13561 C 200.10256,429.11456 189.76452,402.32148 184.0496,376 c -1.13445,-5.225 -2.29328,-10.5125 -2.57517,-11.75 L 180.9619,362 H 145.98095 C 126.74143,362 111,362.29426 111,362.6539 c 0,1.31035 7.45935,14.06969 13.35626,22.8461 8.27275,12.31238 29.19203,33.0861 41.64374,41.35397 11.34666,7.53413 26.50606,15.12551 38.07483,19.06676 4.63384,1.57866 8.58105,2.72393 8.77156,2.54505 0.19052,-0.17887 -0.99375,-2.27306 -2.6317,-4.65374 z M 314.5,443.55771 c 9.40354,-3.56223 24.22876,-11.55761 34,-18.33652 C 359.45274,417.6226 380.10231,396.65778 387.62389,385.5 393.51757,376.75711 401,363.97727 401,362.6539 401,362.29426 385.25857,362 366.01905,362 H 331.0381 l -0.51253,2.25 c -0.28189,1.2375 -1.44072,6.525 -2.57517,11.75 -5.6627,26.08094 -16.07885,53.11121 -26.08065,67.68018 -1.57836,2.29909 -2.86975,4.39255 -2.86975,4.65213 0,0.61865 6.75943,-1.46351 15.5,-4.7746 z M 177.29578,331.75 c -1.01618,-13.08883 -1.03272,-60.25052 -0.0256,-73 L 178.04037,249 H 140.49543 102.9505 l -0.93953,2.47115 c -0.51674,1.35913 -1.95801,7.54663 -3.202822,13.75 -1.865595,9.29697 -2.262002,14.5296 -2.255948,29.77885 0.0074,18.54513 1.158323,28.12303 5.01704,41.75 l 1.48663,5.25 h 37.51785 37.51785 z m 137.06709,4.75 c 1.15048,-6.48248 1.38957,-69.65793 0.30181,-79.75 L 313.82936,249 h -57.80964 -57.80965 l -0.59113,4.25 c -1.37294,9.87103 -1.85327,60.6388 -0.69739,73.71166 0.65171,7.37089 1.41481,13.77356 1.69575,14.22814 0.28095,0.45459 26.23898,0.71035 57.68451,0.56836 L 313.4755,341.5 Z m 96.0644,0.25 c 6.73628,-23.8451 7.20439,-52.85885 1.25599,-77.84793 l -2.23807,-9.40207 -37.74362,-0.26205 -37.74363,-0.26204 0.77103,9.76204 c 1.00781,12.75997 0.99182,59.91813 -0.0247,73.01205 L 333.90843,342 h 37.51785 37.51785 z m -229.0308,-110 c 2.06407,-10.68681 7.5174,-32.19097 10.33395,-40.75 3.88271,-11.79891 12.1424,-29.77076 17.61208,-38.32124 4.23169,-6.6152 3.87318,-6.7837 -6.5329,-3.07042 -29.10184,10.38465 -56.12027,30.30715 -74.74844,55.11702 C 121.63051,208.29001 111,226.13849 111,228.37082 111,228.71687 126.74143,229 145.98095,229 H 180.9619 Z M 310,226.72491 C 310,223.2871 304.5551,201.7419 300.9716,191 c -1.74306,-5.225 -5.1121,-13.55 -7.48675,-18.5 -17.52673,-36.53468 -37.90751,-46.1336 -57.1725,-26.92705 -9.4653,9.43659 -18.54375,25.66191 -25.13774,44.92705 -3.52552,10.30024 -7.8679,26.98316 -8.80725,33.83647 L 201.72815,229 H 255.86408 310 Z m 91,1.64591 c 0,-2.2405 -10.6429,-20.09732 -17.11897,-28.72245 -18.51434,-24.65828 -45.70918,-44.69834 -74.69063,-55.04003 -10.41521,-3.71654 -10.76633,-3.5475 -6.49629,3.12765 11.36593,17.76781 21.53149,46.55465 27.90238,79.01401 l 0.44161,2.25 h 34.98095 C 385.25857,229 401,228.71687 401,228.37082 Z M 395.92892,51.248446 c 4.76489,-2.429679 7.27242,-6.263056 7.79983,-11.923954 0.54397,-5.838685 -2.3121,-10.841502 -7.74868,-13.572938 C 392.71772,24.112495 383.9602,24.003108 256,24.003108 c -127.9602,0 -136.71772,0.109387 -139.98007,1.748446 -10.57561,5.31337 -10.57561,20.183522 0,25.496892 3.26235,1.639059 12.01987,1.748446 139.98007,1.748446 127.9797,0 136.71403,-0.109138 139.92892,-1.748446 z M 419.4,466.6 c -3.74149,-3.74149 -4.29716,-6.9644 -1.975,-11.45497 1.97605,-3.82126 5.50067,-5.14503 13.69898,-5.14503 6.43652,0 7.27658,0.24672 9.95294,2.92308 C 443.23775,455.08391 444,456.79605 444,459.48882 444,466.99385 439.83866,470 429.44966,470 c -6.22903,0 -6.86473,-0.21507 -10.04966,-3.4 z m 69.37514,1.89525 c -5.71557,-3.21511 -6.61837,-10.80587 -1.85206,-15.57217 2.68388,-2.68389 3.50624,-2.92308 10.04966,-2.92308 8.08988,0 12.05381,1.5681 13.83257,5.47206 1.89956,4.16907 1.41069,7.25464 -1.70122,10.73747 -2.70451,3.02687 -3.38198,3.26017 -10.25,3.5298 -5.2019,0.20421 -8.15152,-0.15987 -10.07895,-1.24408 z m -31.42988,-30.87469 c -2.44292,-2.10132 -2.81341,-3.21383 -3.16962,-9.518 -0.47105,-8.33637 0.75489,-12.03959 4.77104,-14.41199 4.45098,-2.62926 7.80691,-2.13698 11.65332,1.70943 3.18493,3.18493 3.4,3.82063 3.4,10.04966 0,7.12266 -1.70593,11.78741 -4.94461,13.5207 -3.40033,1.8198 -8.74092,1.2042 -11.71013,-1.3498 z M 43.110071,176.60449 c -3.625465,-2.00944 -5.035588,-5.46073 -5.074636,-12.42023 -0.03812,-6.7944 0.972867,-9.69134 4.331605,-12.41202 4.366122,-3.5367 11.720167,-1.55479 14.51592,3.91202 1.478084,2.89024 1.429005,13.53695 -0.07764,16.84368 -2.189737,4.80595 -8.819021,6.77924 -13.695244,4.07655 z M 4.749978,138.91989 C 2.4526748,137.58183 0,132.75162 0,129.56544 c 0,-1.39364 1.2642257,-3.9488 2.8093905,-5.67814 2.2760559,-2.54735 3.7841101,-3.23791 7.9438175,-3.63761 C 21.858483,119.18262 28,122.73405 28,130.22295 c 0,3.01134 -0.683795,4.61469 -2.923077,6.85397 -2.739904,2.73991 -3.413546,2.92117 -10.75,2.89267 -4.304808,-0.0167 -8.6144329,-0.48909 -9.576945,-1.0497 z m 66.173099,-1.84297 c -5.820727,-5.82072 -2.744792,-15.08173 5.524475,-16.63306 6.132299,-1.15042 13.33415,0.002 16.069771,2.57241 3.261582,3.0641 4.101466,7.88644 2.060827,11.8326 C 92.343116,139.17095 90.236456,140 81.488818,140 c -7.113822,0 -7.84493,-0.20227 -10.565741,-2.92308 z m -26.53496,-27.01914 c -4.424747,-1.86709 -6.389167,-5.85631 -6.373375,-12.942639 0.01807,-8.110027 1.393608,-11.072875 6.243151,-13.447499 3.627985,-1.776477 3.856229,-1.776477 7.484214,0 4.865117,2.38225 6.225137,5.337621 6.243151,13.566581 0.01304,5.958887 -0.301875,7.081727 -2.735258,9.752487 -2.951769,3.23971 -7.448912,4.51122 -10.861883,3.07107 z"
       id="path1" />
  </g>
</svg>
