<?xml version="1.0" encoding="UTF-8" standalone="no"?>
<!-- Created with Inkscape (http://www.inkscape.org/) -->

<svg
   version="1.1"
   id="svg1"
   width="512"
   height="512"
   viewBox="0 0 512 512"
   xmlns="http://www.w3.org/2000/svg"
   xmlns:svg="http://www.w3.org/2000/svg">
  <defs
     id="defs1" />
  <g
     id="g1">
    <path
       style="fill:#000000"
       d="m 245.15628,422.98189 c -17.23846,-2.39459 -34.80813,-11.4863 -46.85296,-24.24481 -5.37928,-5.69802 -12.07886,-15.36676 -14.20577,-20.50156 l -1.22044,-2.94642 -16.68856,-0.61897 c -14.63331,-0.54274 -25.49894,-1.8525 -34.26491,-4.13032 -2.44254,-0.63469 -2.63939,-0.38784 -3.78972,4.75236 -1.6261,7.26618 -5.98687,12.95733 -12.36299,16.13469 C 110.95762,393.82543 109.65024,394 96.5,394 83.307305,394 82.053982,393.83122 77.168383,391.39662 68.400061,387.02718 64,378.85243 64,366.93146 v -5.75069 l -7.25,-4.00041 C 39.8558,347.85845 22.02803,332.6053 12.932944,319.69119 7.1447553,311.47254 2.5415206,300.77519 1.0128612,291.99039 0.24876937,287.59935 -0.00500916,270.9445 0.22827555,240.5 0.56468623,196.59719 0.62897409,195.34152 2.8649778,189 9.3327695,170.65673 24.308599,153.03424 45.420606,138.92356 56.007067,131.84787 80.361905,119.68467 94.043628,114.64045 183.95965,81.489935 310.79034,79.46028 403.5,109.68827 460.98401,128.43093 497.4259,155.79183 509.13502,189 c 2.23601,6.34152 2.30029,7.59719 2.6367,51.5 0.37588,49.05296 0.0605,53.23775 -4.91169,65.18157 -7.57644,18.19943 -26.90036,37.51487 -51.61003,51.58738 l -7.25,4.12898 v 5.6421 c 0,11.80969 -4.42891,20.00153 -13.16838,24.35659 C 429.94602,393.83122 428.6927,394 415.5,394 c -13.23616,0 -14.43385,-0.16272 -19.39524,-2.63509 -6.47487,-3.22656 -10.56112,-8.5766 -12.22321,-16.00359 -1.16633,-5.21171 -1.35986,-5.45693 -3.80519,-4.82151 -8.76597,2.27782 -19.6316,3.58758 -34.26491,4.13032 l -16.68856,0.61897 -1.22044,2.94642 c -2.12691,5.1348 -8.82649,14.80354 -14.20577,20.50156 -17.19187,18.21053 -43.91951,27.66491 -68.5404,24.24481 z m 22.40804,-20.52693 c 13.46997,-2.7823 24.28556,-8.97812 33.27114,-19.05971 21.01877,-23.58253 19.83949,-58.77058 -2.72682,-81.36404 -8.733,-8.74351 -16.33123,-13.14693 -27.70465,-16.05577 -14.09899,-3.60591 -29.42232,-1.73821 -42.71794,5.20671 -14.16168,7.39731 -26.82013,24.30697 -30.18165,40.31785 -5.90647,28.13236 8.86525,56.26387 35.40036,67.41703 11.76901,4.94672 22.52415,6.04457 34.65956,3.53793 z M 107.8,372.8 c 1.72889,-1.72889 1.72889,-97.87111 0,-99.6 -0.77492,-0.77492 -4.77778,-1.2 -11.3,-1.2 -6.522222,0 -10.525083,0.42508 -11.3,1.2 -1.728886,1.72889 -1.728886,97.87111 0,99.6 0.774917,0.77492 4.777778,1.2 11.3,1.2 6.52222,0 10.52508,-0.42508 11.3,-1.2 z m 319,0 c 1.72889,-1.72889 1.72889,-97.87111 0,-99.6 -0.77492,-0.77492 -4.77778,-1.2 -11.3,-1.2 -6.52222,0 -10.52508,0.42508 -11.3,1.2 -1.72889,1.72889 -1.72889,97.87111 0,99.6 0.77492,0.77492 4.77778,1.2 11.3,1.2 6.52222,0 10.52508,-0.42508 11.3,-1.2 z M 176.3333,347.75 c -0.28187,-3.9875 -0.0903,-9.8375 0.42572,-13 l 0.93821,-5.75 -2.59862,-0.002 c -7.71279,-0.007 -29.75032,-2.26121 -37.37632,-3.82285 l -8.77771,-1.7975 0.27771,13.03857 0.27771,13.03857 7.5,1.77383 c 10.47687,2.4779 18.92192,3.49818 30.17289,3.64531 L 176.84577,355 Z m 196.1667,4.01546 10,-2.26546 0.27771,-13.06139 0.27771,-13.06139 -8.77771,1.7975 c -7.626,1.56164 -29.66353,3.81565 -37.37632,3.82285 l -2.59862,0.002 0.93821,5.75 c 0.51601,3.1625 0.70245,9.08038 0.41432,13.15085 l -0.52389,7.40084 13.6843,-0.63539 c 8.40559,-0.39029 17.54178,-1.50928 23.68429,-2.90084 z M 64,312.68422 v -25.31577 l -9.75,-5.82866 C 42.572721,274.55898 34.692226,268.6698 26.151801,260.54171 L 19.803603,254.5 20.205158,273 c 0.328242,15.12242 0.74157,19.32157 2.263917,23 5.144706,12.43108 17.16117,26.07914 32.030925,36.38009 4.4,3.04808 8.3375,5.5595 8.75,5.58094 0.4125,0.0214 0.75,-11.35313 0.75,-25.27681 z m 392.69108,20.18684 c 10.15389,-6.85177 22.39948,-18.70179 27.11559,-26.23966 7.12945,-11.39518 7.54334,-13.13776 7.98817,-33.6314 l 0.40156,-18.5 -6.3482,6.04171 c -8.54043,8.12809 -16.42092,14.01727 -28.0982,20.99808 l -9.75,5.82866 v 25.31577 C 448,326.6079 448.24532,338 448.54516,338 c 0.29984,0 3.9655,-2.30802 8.14592,-5.12894 z M 184.55217,307.25 c 0.8537,-0.9625 3.32605,-4.50277 5.49411,-7.86728 5.10545,-7.92286 16.88939,-19.07319 25.58626,-24.21051 8.81397,-5.2065 20.43984,-9.06104 31.5648,-10.46527 16.05515,-2.02653 34.69328,1.94752 49.30266,10.51241 8.69528,5.09768 23.10745,19.28603 27.46286,27.03637 2.20406,3.92205 4.03375,5.95631 5.74328,6.38537 5.6763,1.42466 33.20074,-1.0922 46.54386,-4.25602 l 6.75,-1.60051 v -14.73335 c 0,-21.50414 2.63586,-28.19925 13.16838,-33.44783 C 401.05398,252.16878 402.3073,252 415.5,252 c 13.25084,0 14.42967,0.16064 19.41709,2.64597 3.24086,1.61499 6.33709,4.13288 7.94634,6.46205 1.45011,2.09884 3.03615,3.83316 3.52452,3.85403 1.51987,0.065 16.89995,-10.6654 22.58399,-15.75637 l 5.41065,-4.84612 -6.9413,-5.74094 c -34.5859,-28.60498 -91.48648,-47.25952 -165.36415,-54.21374 -22.74476,-2.14099 -70.05271,-2.10762 -92.57714,0.0653 -74.58481,7.19519 -133.085471,26.55017 -165.893118,54.88585 l -5.893118,5.08983 5.393118,4.85791 c 5.599608,5.0439 20.950304,15.72466 22.504536,15.65828 0.48872,-0.0209 2.075039,-1.75519 3.525152,-3.85403 1.609254,-2.32917 4.705477,-4.84706 7.946344,-6.46205 C 82.070328,252.16064 83.249156,252 96.5,252 c 13.1927,0 14.44602,0.16878 19.33162,2.60338 C 126.36213,259.85096 129,266.54839 129,288.03736 v 14.71949 l 6.25,1.54973 c 10.64878,2.64044 24.49067,4.24657 39,4.52532 7.21525,0.13861 9.02225,-0.13885 10.30217,-1.5819 z M 33.859241,221.67504 C 57.037332,202.80907 90.472974,187.70356 132.88677,176.93652 147.82568,173.14417 177.277,167.77465 191.5,166.25025 l 7,-0.75025 0.26616,-27.29834 0.26616,-27.29835 -3.26616,0.51804 c -1.79639,0.28493 -8.21616,1.23224 -14.26616,2.10514 -54.44655,7.85562 -100.581407,24.04979 -130.5,45.80788 -8.704921,6.33059 -20.35975,18.69041 -24.259271,25.7267 -7.833952,14.13557 -8.748365,25.89981 -3.046082,39.18893 0.885006,2.0625 1.785694,3.75 2.00153,3.75 0.215836,0 3.889215,-2.84623 8.163064,-6.32496 z M 488.30535,224.25 c 9.02898,-21.04196 0.67998,-42.62775 -24.14921,-62.4362 C 435.64235,139.06581 383.97298,120.62159 327.5,113.03217 c -4.4,-0.59132 -9.4625,-1.31085 -11.25,-1.59896 L 313,110.90937 v 27.0767 c 0,20.80631 0.28947,27.1585 1.25,27.42992 0.6875,0.19427 7.325,1.11632 14.75,2.04898 61.16469,7.68301 120.18472,29.37797 150.5,55.32175 3.3,2.82413 6.26916,5.15245 6.59813,5.17403 0.32896,0.0216 1.32222,-1.64825 2.20722,-3.71075 z M 292.5,136.30073 V 109.5 l -12,-0.80351 c -12.24313,-0.8198 -58.94677,-0.15644 -60.59242,0.86063 -0.87266,0.53933 -1.35078,52.66631 -0.49095,53.52621 0.22914,0.22917 16.76664,0.327 36.75,0.2174 L 292.5,163.10146 Z"
       id="path1" />
  </g>
</svg>
