<?xml version="1.0" encoding="UTF-8" standalone="no"?>
<!-- Created with Inkscape (http://www.inkscape.org/) -->

<svg
   version="1.1"
   id="svg1"
   width="512"
   height="512"
   viewBox="0 0 512 512"
   xmlns="http://www.w3.org/2000/svg"
   xmlns:svg="http://www.w3.org/2000/svg">
  <defs
     id="defs1" />
  <g
     id="g1">
    <path
       style="fill:#000000"
       d="m 249.42707,510.58359 c -3.82607,-1.6661 -58.46313,-58.21251 -62.99556,-65.19702 -11.94415,-18.40601 -9.20218,-42.59319 6.62466,-58.43684 6.09238,-6.09885 12.10209,-9.84512 20.00339,-12.46951 7.10565,-2.36012 21.54796,-1.70693 28.19044,1.27497 l 4.75,2.13235 V 358.94377 340 l -3.25,-0.005 C 240.9625,339.9928 232.075,339.54074 223,338.99078 107.51778,331.99238 21.57112,295.14219 3.1410328,244.72481 L 0.5,237.5 V 170 102.5 L 2.7641559,96.239524 C 13.818774,65.673093 48.238243,40.064291 101.71172,22.620477 219.30421,-15.739878 387.35961,-3.5598563 468.11953,49.176336 c 23.8874,15.598458 39.65067,35.646928 42.8155,54.454764 0.81296,4.83122 1.0682,25.55808 0.86041,69.8689 l -0.29544,63 -2.78757,7.88297 c -16.1185,45.58153 -89.08991,81.08445 -189.21243,92.05789 -13.07559,1.43309 -42.91778,3.54401 -50.25,3.55449 L 266,340 v 18.94377 18.94377 l 4.75,-2.19377 c 3.98293,-1.8395 6.53476,-2.19377 15.80186,-2.19377 10.7999,0 11.22885,0.0875 18.81503,3.83676 9.64421,4.76643 16.92492,11.85455 21.77398,21.19801 4.76413,9.17981 6.25265,15.92545 5.59496,25.35514 -0.58895,8.44408 -2.50138,14.13071 -7.26753,21.61009 -4.88259,7.66212 -59.67151,64.02659 -63.55167,65.37922 -4.20985,1.46756 -8.68369,1.36166 -12.48956,-0.29563 z m 32.67422,-47.06952 c 16.23997,-16.93515 26.39036,-28.33518 28.14871,-31.6142 8.88363,-16.56637 -4.95449,-39.28241 -23.8267,-39.11282 -6.70602,0.0602 -10.42231,2.02293 -18.51524,9.77842 -6.85595,6.57008 -10.07206,8.11215 -14.56612,6.98422 -1.46193,-0.36692 -5.62443,-3.50982 -9.25,-6.98422 -8.10287,-7.76501 -12.04205,-9.85118 -18.60137,-9.85118 -18.92326,0 -32.65113,22.64043 -23.74057,39.15369 1.72979,3.20568 12.17713,14.93413 28.16097,31.61419 C 243.887,478.06698 255.63258,490 256.01226,490 c 0.37968,0 12.11975,-11.91867 26.08903,-26.48593 z M 282.25,319.34829 289,318.71079 V 272.6054 226.5 h -33 -33 v 46.19521 46.19521 l 4.75,0.37454 c 8.56622,0.67546 47.59847,0.73513 54.5,0.0833 z m -79.65563,-93.96186 c -0.23479,-0.61246 -4.17708,-1.43914 -8.76063,-1.83706 C 182.32519,222.55027 156.90198,218.5162 142.5,215.4039 92.149,204.52296 52.608766,187.36586 27.582059,165.53929 L 20,158.92674 v 35.8187 c 0,26.63772 0.342246,37.13809 1.335237,40.96617 5.537777,21.34869 34.369016,43.79456 76.164763,59.29625 27.35548,10.14592 65.98689,18.50522 103,22.28775 1.97028,0.20135 2.00387,-0.47175 2.26063,-45.29561 0.14334,-25.025 0.0685,-46.00111 -0.16626,-46.61357 z M 327,315.45804 C 410.46147,305.54742 478.99943,272.62339 490.02498,237.14466 491.83711,231.31348 492,227.82591 492,194.85803 v -35.93129 l -7.58206,6.61255 C 459.5631,187.21596 419.02806,204.8754 370,215.38644 c -12.33734,2.64498 -40.74199,7.12465 -53,8.35858 l -7.5,0.75498 -0.2598,46.6132 -0.2598,46.6132 2.2598,-0.33265 c 1.24289,-0.18296 8.3348,-1.05403 15.7598,-1.93571 z m -18,-110.9196 c 48.25348,-4.98419 88.0322,-14.36449 119.5,-28.17954 12.79704,-5.61818 13.47223,-6.04927 11.5,-7.34242 -3.48405,-2.28441 -21.28719,-9.60436 -33.31978,-13.69979 C 316.1957,124.51933 183.81182,125.909 96.141615,158.57651 84.396945,162.95279 71,169.04564 71,170.01077 c 0,1.22985 20.593448,10.00882 34.43337,14.6789 35.21551,11.88298 68.86224,17.87259 122.06663,21.72963 12.15892,0.88146 67.01291,-0.38446 81.5,-1.88086 z M 61.706438,152.06584 C 101.30266,132.24516 148.50772,120.40451 210,114.86871 c 18.39783,-1.65625 74.04535,-1.66794 92,-0.0193 62.29871,5.72031 108.40125,17.30037 148.09642,37.19895 l 12.10222,6.06666 7.15068,-5.92389 c 17.92673,-14.85117 25.47214,-31.86439 21.17407,-47.74275 C 477.76347,57.309378 374.17699,20.012892 255.98293,20.001664 148.09741,19.991416 50.722127,51.282122 25.786547,93.97329 c -11.162013,19.11002 -5.245456,39.99753 16.414027,57.94725 4.014684,3.32707 7.378541,6.05602 7.475237,6.06433 0.0967,0.008 5.510479,-2.65524 12.030627,-5.91903 z"
       id="path1" />
  </g>
</svg>
