<?xml version="1.0" encoding="UTF-8" standalone="no"?>
<!-- Created with Inkscape (http://www.inkscape.org/) -->

<svg
   version="1.1"
   id="svg1"
   width="512"
   height="512"
   viewBox="0 0 512 512"
   xmlns="http://www.w3.org/2000/svg"
   xmlns:svg="http://www.w3.org/2000/svg">
  <defs
     id="defs1" />
  <g
     id="g1">
    <path
       style="fill:#000000"
       d="M 36.5,498.33511 C 8.6912,490.78021 5.2169097,489.60727 2.75,486.94085 1.2375,485.30603 0,482.99575 0,481.80689 0,480.61804 11.015011,438.553 24.477802,388.32903 l 24.477802,-91.31631 -2.780709,-4.75636 c -13.301797,-22.75251 -13.302583,-49.75875 -0.0021,-72.50914 l 2.778599,-4.75278 -24.475692,-91.31103 C 11.014061,73.462338 0,31.395688 0,30.201962 0,29.008237 1.2375,26.695651 2.75,25.062882 5.2277371,22.388122 8.6576735,21.248006 37.394179,13.547105 54.935977,8.8461972 70.818932,5 72.689633,5 c 4.55267,0 7.797416,3.3907491 9.709631,10.146531 0.83341,2.944408 11.6798,43.378469 24.103086,89.853469 12.42329,46.475 22.81444,85.26103 23.09144,86.19118 0.27701,0.93015 3.4598,3.34435 7.07287,5.3649 3.61308,2.02055 9.83093,6.77202 13.81745,10.55882 L 157.73233,214 H 256 354.26767 l 7.24822,-6.8851 c 3.98652,-3.7868 10.21815,-8.54598 13.84807,-10.57595 5.61448,-3.13979 6.74581,-4.23939 7.57747,-7.3649 C 434.30829,-3.8704147 431.58527,5 439.47872,5 c 1.85196,0 17.68936,3.8325618 35.19424,8.516804 28.85787,7.722265 32.08359,8.79658 34.57704,11.515776 1.5125,1.649435 2.75,3.971673 2.75,5.160529 0,1.188855 -11.01501,43.253895 -24.4778,93.477861 l -24.4778,91.31631 2.78071,4.75636 c 13.3027,22.75406 13.3027,49.75866 0,72.51272 l -2.78071,4.75636 24.4778,91.31631 C 500.98499,438.553 512,480.61804 512,481.80689 c 0,1.18886 -1.2375,3.51109 -2.75,5.16053 -2.49345,2.7192 -5.71917,3.79351 -34.57704,11.51578 -17.50488,4.68424 -33.34228,8.5168 -35.19424,8.5168 -2.0699,0 -4.34936,-0.86687 -5.91646,-2.25 -2.55375,-2.25395 -4.75295,-10.15809 -50.61741,-181.92405 -0.83417,-3.12402 -1.96909,-4.2266 -7.58089,-7.3649 -3.62992,-2.02997 -9.86155,-6.78915 -13.84807,-10.57595 L 354.26767,298 H 326.13383 298 v 10.33264 10.33263 l 3.96038,3.18265 c 2.17821,1.75046 5.99664,6.03621 8.48541,9.5239 15.69302,21.9918 17.88828,47.36746 6.15334,71.12818 -7.95298,16.10306 -21.12298,27.70763 -38.48138,33.90734 -8.00665,2.85965 -9.57506,3.07791 -22.11775,3.07791 -12.54269,0 -14.1111,-0.21826 -22.11775,-3.07791 -44.39988,-15.85784 -60.08286,-69.10874 -31.35035,-106.4488 2.53053,-3.28861 6.14605,-7.21212 8.0345,-8.71891 l 3.43354,-2.73963 3e-5,-10.25 L 214,298 h -28.13383 -28.13384 l -7.24822,6.8851 c -3.98652,3.7868 -10.20437,8.53827 -13.81745,10.55882 -3.61307,2.02055 -6.79586,4.43475 -7.07287,5.3649 -0.277,0.93015 -10.66815,39.71618 -23.09144,86.19118 -12.423286,46.475 -23.269676,86.90906 -24.103086,89.85347 -2.074559,7.32933 -5.090839,10.18097 -10.603809,10.02501 C 69.432955,506.81164 53.55,502.96712 36.5,498.33511 Z M 65.401308,483.25 C 69.210905,470.81387 76.920677,439.54852 76.307257,439.02323 75.353506,438.2065 37.863035,428 35.816762,428 c -1.849465,0 -14.115451,45.28891 -12.438838,45.92712 1.996627,0.76002 39.083492,10.8463 40.304688,10.96141 0.650437,0.0613 1.42385,-0.67603 1.718696,-1.63853 z m 403.373922,-3.78797 c 11.34873,-3.04589 20.71238,-5.63339 20.80811,-5.75 0.6178,-0.75254 -12.20228,-45.71663 -13.03998,-45.73539 -1.80232,-0.0403 -40.00116,10.29287 -40.87352,11.05675 C 434.67695,439.90281 446.42222,485 447.64155,485 c 0.2748,0 9.78495,-2.49209 21.13368,-5.53797 z M 270.38481,417.96286 c 13.35528,-4.12502 25.71973,-15.68942 30.61993,-28.63863 2.70142,-7.13873 3.68018,-19.90332 2.09346,-27.30194 -1.75266,-8.17236 -6.82144,-17.521 -12.7856,-23.58123 L 284.95777,333 h -28.84314 -28.84315 l -5.04025,4.96137 c -10.24141,10.08115 -14.85253,22.31008 -13.966,37.03863 0.63545,10.55726 3.39542,18.12257 9.58439,26.27165 12.00438,15.80628 33.39599,22.60271 52.53519,16.69121 z M 86.974859,402.86236 c 2.361283,-8.8757 4.345419,-16.80977 4.409192,-17.63126 0.08643,-1.11336 -4.848605,-2.85714 -19.384051,-6.84927 -18.43297,-5.06258 -23,-6.03399 -23,-4.89207 0,0.26936 -2.034798,7.98457 -4.521772,17.14489 -2.486975,9.16033 -4.253502,16.92744 -3.925617,17.26024 0.813584,0.8258 37.425762,10.89541 40.038197,11.01189 1.872057,0.0835 2.53999,-1.59519 6.384051,-16.04442 z m 364.378321,11.00746 c 10.53075,-2.82159 19.49732,-5.44459 19.92571,-5.82889 0.42839,-0.38429 -1.25911,-8.20532 -3.75,-17.38006 C 465.038,381.48612 463,373.75912 463,373.48976 463,373.22039 462.36098,373 461.57995,373 c -2.02097,0 -39.93158,10.13095 -40.80236,10.90372 -0.39732,0.3526 1.35406,8.39351 3.89197,17.86869 3.30478,12.33826 5.02908,17.22759 6.07559,17.22759 0.80367,0 10.07728,-2.30858 20.60803,-5.13018 z m -348.08772,-71.6268 c 3.171,-11.95866 5.7585,-22.2752 5.75,-22.92563 -0.0183,-1.39823 1.328,-0.9593 -22.436426,-7.31507 -10.406532,-2.78321 -19.216065,-4.70982 -19.576742,-4.28135 -1.229052,1.46006 -12.219951,44.39464 -11.542216,45.08823 0.829786,0.84919 37.261132,10.92149 40.039924,11.06997 1.777773,0.095 2.64062,-2.30907 7.76546,-21.63615 z m 332.97793,16.6467 c 10.59113,-2.81066 19.64564,-5.47219 20.12113,-5.91452 0.81057,-0.75406 -9.9414,-43.56087 -11.36667,-45.25409 -0.3606,-0.42839 -8.04513,1.21939 -17.07674,3.66173 -9.03161,2.44234 -18.33361,4.94769 -20.67111,5.56744 -2.3375,0.61974 -4.25599,1.67196 -4.26331,2.33826 -0.0402,3.66394 11.67094,44.7105 12.7567,44.71095 0.68386,2.8e-4 9.90886,-2.29912 20.5,-5.10977 z M 278,274 v -40 h -22 -22 v 40 40 h 22 22 z m -152.10626,24.55385 c 2.65499,-1.34539 7.36503,-4.76554 10.46676,-7.60035 L 142,285.79931 V 256 226.20069 l -5.6395,-5.15419 c -3.10173,-2.83481 -7.72819,-6.21261 -10.28102,-7.50622 l -4.64151,-2.35204 -28.158535,7.55386 -28.158532,7.55386 -2.976258,5.60202 c -8.07951,15.20754 -8.078523,32.99839 0.0027,48.20905 l 2.978932,5.60704 27.686875,7.53266 c 15.227788,4.14297 27.814338,7.5823 27.970118,7.64297 0.15579,0.0607 2.45551,-0.99047 5.1105,-2.33585 z m 294.09119,-5.60975 c 14.56671,-3.89747 26.86388,-7.61682 27.32704,-8.26521 0.46316,-0.64839 2.10294,-3.87889 3.64396,-7.17889 5.14479,-11.0173 6.26489,-21.69539 3.50429,-33.40693 -1.40838,-5.97486 -6.97741,-18.06025 -8.34955,-18.11939 -0.33587,-0.0145 -12.96407,-3.351 -28.06268,-7.41448 l -27.45201,-7.38816 -4.96531,2.51612 c -2.73093,1.38386 -7.36503,4.78565 -10.298,7.55953 L 370,226.29011 v 29.7546 29.7546 l 5.63429,5.14943 c 6.15852,5.62854 14.00289,10.18734 16.36571,9.51103 0.825,-0.23614 13.41822,-3.61819 27.98493,-7.51567 z M 214,256 v -22 h -26 -26 v 22 22 h 26 26 z m 136,0 v -22 h -26 -26 v 22 22 h 26 26 z M 84.5,200.4932 c 21.48136,-5.57989 24.49877,-6.54167 24.51546,-7.81416 0.0446,-3.39901 -11.674017,-44.66602 -12.685512,-44.67206 -2.066153,-0.0123 -39.797563,10.22629 -40.699688,11.04407 -0.481674,0.43664 1.662639,10.30572 4.805857,22.11869 6.971032,26.19881 6.215556,24.06538 8.308957,23.46409 C 69.710283,204.3566 76.8,202.49331 84.5,200.4932 Z m 366.66456,-18.01582 c 3.23234,-12.05971 5.69157,-22.40992 5.46496,-23.00045 -0.35716,-0.93075 -38.42982,-11.57969 -41.12952,-11.50396 -0.88815,0.0249 -12.54661,41.70708 -12.51331,44.73849 0.007,0.6663 1.70081,1.66401 3.76331,2.21713 2.0625,0.55313 11.175,3.01249 20.25,5.46525 9.075,2.45276 16.90221,4.35848 17.3938,4.23493 0.49158,-0.12355 3.53843,-10.09167 6.77076,-22.15139 z M 71.316646,133.8593 c 10.550845,-2.82739 19.509229,-5.42576 19.907521,-5.77417 C 92.479816,126.98675 82.827961,93 81.260385,93 c -2.061197,0 -39.629353,10.16563 -40.539275,10.96959 -0.428389,0.37851 1.259111,8.1948 3.75,17.36954 C 46.962,130.51388 49,138.24088 49,138.51024 c 0,1.09194 3.986366,0.26116 22.316646,-4.65094 z M 463,138.51024 c 0,-0.26936 2.038,-7.99636 4.52889,-17.17111 2.49089,-9.17474 4.17839,-17.00759 3.75,-17.40632 C 470.36833,103.08529 433.01588,93 430.7875,93 c -1.10251,0 -2.64151,4.238369 -5.71899,15.75 -2.31581,8.6625 -4.2911,16.59775 -4.38953,17.63389 -0.15434,1.62454 2.4366,2.60614 18.82102,7.13046 17.92465,4.94964 23.5,6.13491 23.5,4.99589 z M 56.170052,78.868687 C 66.801523,76.046464 75.863457,73.410508 76.307682,73.011005 77.015729,72.37424 65.904609,28.571276 64.739494,27.406161 64.376267,27.042934 22.817816,37.762996 22.371295,38.335098 22.300508,38.425794 24.980998,48.7375 28.32794,61.25 32.025702,75.074036 34.88937,84 35.626697,84 c 0.667374,0 9.911884,-2.309091 20.543355,-5.131313 z M 479.78963,75.75 c 1.20511,-4.5375 3.94421,-14.836345 6.08689,-22.886322 l 3.89579,-14.636323 -20.99626,-5.670238 c -11.54795,-3.118631 -21.21759,-5.448908 -21.48811,-5.178394 -0.81933,0.819334 -12.30459,44.050566 -11.97137,45.060985 0.29003,0.879463 37.35346,11.333522 40.73269,11.489007 1.11416,0.05127 2.16464,-2.245722 3.74037,-8.178715 z"
       id="path1" />
  </g>
</svg>
