<?xml version="1.0" encoding="UTF-8" standalone="no"?>
<!-- Created with Inkscape (http://www.inkscape.org/) -->

<svg
   version="1.1"
   id="svg1"
   width="512"
   height="512"
   viewBox="0 0 512 512"
   xmlns="http://www.w3.org/2000/svg"
   xmlns:svg="http://www.w3.org/2000/svg">
  <defs
     id="defs1" />
  <g
     id="g1">
    <path
       style="fill:#000000"
       d="M 3.3057637,508.58825 0.5,506.1765 0.23716774,482.83825 C 0.0412223,465.43923 0.29924739,458.86379 1.2510792,457 3.0632888,453.4515 8.572542,451.00338 14.75,451.00155 L 20,451 V 349.0147 247.0294 l -3.25,1.98156 c -1.7875,1.08986 -4.305569,1.98325 -5.595708,1.9853 -3.2352436,0.005 -7.7647977,-2.846 -9.0690796,-5.70858 C 1.3771524,243.73365 1,231.78378 1,210.90329 1,185.19842 1.2793341,178.36928 2.4194646,176.20034 3.3935198,174.34733 11.079798,169.10698 26.914686,159.5 l 23.075756,-14 0.0048,-42.25 L 50,61 44.75,60.998446 C 38.572542,60.996617 33.063289,58.548499 31.251079,55 30.299247,53.136212 30.041222,46.56077 30.237168,29.16175 L 30.5,5.8235006 33.305764,3.4117503 36.111527,1 h 59.02116 59.021163 L 157.07692,3.9230769 160,6.8461538 V 30.4073 53.968447 l -2.80119,3.135071 c -2.52829,2.829652 -3.50249,3.18525 -10,3.650144 L 140,61.268735 v 14.472621 c 0,11.170548 0.28532,14.363133 1.25053,13.992747 0.6878,-0.263931 26.12435,-15.612076 56.52567,-34.106989 C 242.58299,28.368509 253.71508,22 256.55607,22 c 2.85844,0 17.19141,8.324323 77.72433,45.140827 40.82078,24.827455 96.87562,58.914953 124.56632,75.750003 36.43025,22.14841 50.7346,31.35558 51.75,33.30951 1.12058,2.15635 1.40328,9.27775 1.40328,35.35 V 244.2 l -3.4,3.4 c -4.14748,4.14748 -7.30076,4.35145 -13.26214,0.85785 L 491,245.91569 V 348.45785 451 l 5.25,0.002 c 6.17746,0.002 11.68671,2.44995 13.49892,5.99845 0.95183,1.86379 1.20986,8.43923 1.01391,25.83825 L 510.5,506.1765 507.69424,508.58825 504.88847,511 H 255.5 6.1115274 Z M 490.78498,481.25 491.06997,471 H 255.53498 20 v 9.83333 c 0,5.40834 0.300941,10.13428 0.668758,10.5021 0.367818,0.36781 106.230322,0.55531 235.250002,0.41666 L 490.5,491.5 Z M 80.235373,353.91779 80.5,256.83558 l 3.288253,-2.93787 3.288253,-2.93788 69.048654,0.27009 69.04865,0.27008 2.4131,2.80576 L 230,257.11153 V 354.05576 451 H 350.50444 471.00889 L 470.75444,342.28261 470.5,233.56523 l -14,-8.5722 C 387.28749,182.6142 258.56823,104.70489 257.20883,104.36898 256.19303,104.11798 211.90261,130.47615 148,169.36148 L 40.5,234.77622 40.245537,342.88811 39.991074,451 H 59.980909 79.970745 Z M 273.92308,428.07692 271,425.15385 l 0.007,-57.32693 c 0.007,-53.79077 0.12989,-57.83952 1.99921,-65.63697 5.44102,-22.69602 21.44974,-42.55706 42.49378,-52.71945 11.46687,-5.53746 18.52901,-7.37636 31,-8.07204 22.15211,-1.23572 42.58247,6.22456 58.70979,21.43826 8.10596,7.64675 13.61942,15.34759 18.40703,25.70975 6.75027,14.61007 6.69545,14.02191 7.12048,76.39261 0.21153,31.04149 0.11398,57.51734 -0.21679,58.83523 -0.33077,1.31788 -1.77391,3.4828 -3.20698,4.81092 L 424.70795,431 h -73.9309 -73.9309 z M 411,391 v -20 h -60 -60 v 20 20 h 60 60 z m -0.22719,-60.25 c -0.39659,-18.56721 -0.65256,-20.91481 -3.08027,-28.25 -9.50077,-28.7061 -38.34801,-45.7954 -68.25888,-40.43701 -3.26351,0.58464 -10.06702,3.05549 -15.11889,5.49079 -14.28541,6.88637 -24.77914,18.5673 -30.55703,34.01406 -1.99133,5.32367 -2.25374,8.16316 -2.55826,27.68216 L 290.86016,351 h 60.17259 60.17259 z M 244.60448,229.40682 c -12.3685,-2.99284 -23.31445,-11.96259 -29.17391,-23.90682 -11.19033,-22.81096 -1.87831,-49.22286 21.24765,-60.2652 7.566,-3.61267 8.18149,-3.7348 18.82178,-3.7348 10.29728,0 11.43086,0.2041 17.74441,3.19484 8.98077,4.25422 13.27042,7.65557 18.35467,14.5538 5.55266,7.53377 8.52938,16.56657 8.56636,25.9944 0.0502,12.80536 -4.40166,23.65904 -13.35924,32.56979 -6.16346,6.13123 -12.51332,9.67071 -20.89283,11.64589 -7.80908,1.84071 -13.54504,1.82674 -21.30889,-0.0519 z m 21.96791,-21.20826 c 2.16019,-1.11282 5.3673,-3.52524 7.12693,-5.36093 9.06865,-9.4607 8.77596,-25.2085 -0.64359,-34.62805 -5.46022,-5.46022 -8.66945,-6.68165 -17.55573,-6.68165 -8.88628,0 -12.09551,1.22143 -17.55573,6.68165 -9.41947,9.41947 -9.71225,25.17157 -0.64359,34.62574 3.23334,3.37078 7.10773,5.78625 11.69285,7.28985 3.97434,1.30331 13.29114,0.28221 17.57886,-1.92661 z M 210,361 v -90 h -55 -55 v 90 90 h 55 55 z M 120,162.97272 C 260.87108,77.309318 252.96658,82 256.45121,82 c 3.61742,0 1.75756,-1.071301 65.04879,37.46896 69.85895,42.53959 161.78829,98.42807 169.75,103.19959 0.4125,0.24722 0.75,-7.80606 0.75,-17.89617 V 186.42673 L 374.47473,114.96336 C 309.83583,75.658514 256.69683,43.548354 256.38807,43.607454 c -0.30877,0.0591 -53.3974,32.230512 -117.97473,71.492026 L 21,186.48406 v 18.31699 c 0,10.07434 0.3375,18.12443 0.75,17.8891 0.4125,-0.23534 44.625,-27.10818 98.25,-59.71743 z m -22.5,-46.32223 22,-13.46874 0.26989,-21.090877 L 120.03978,61 H 95.019888 70 v 36.02568 36.02568 l 2.75,-1.46606 c 1.5125,-0.80633 12.65,-7.52699 24.75,-14.93481 z M 140,30.489705 V 19.97941 L 95.25,20.239705 50.5,20.5 50.215017,30.75 49.930034,41 H 94.965017 140 Z"
       id="path1" />
  </g>
</svg>
