<?xml version="1.0" encoding="UTF-8" standalone="no"?>
<!-- Created with Inkscape (http://www.inkscape.org/) -->

<svg
   version="1.1"
   id="svg1"
   width="512"
   height="512"
   viewBox="0 0 512 512"
   xmlns="http://www.w3.org/2000/svg"
   xmlns:svg="http://www.w3.org/2000/svg">
  <defs
     id="defs1" />
  <g
     id="g1">
    <path
       style="fill:#000000"
       d="M 238.5,472.16347 C 217.28482,460.31136 213.1359,457.7811 191.5,443.50011 125.75231,400.1027 73.806743,351.31949 41.359581,302.5 20.791436,271.55349 8.4305466,241.59146 2.3734473,208 -0.10299483,194.26615 -0.08499828,164.76741 2.4076118,152 13.982443,92.712483 58.588572,47.37545 118,34.513544 c 10.17152,-2.202019 37.40817,-3.110017 48.10822,-1.6038 32.27796,4.543681 60.10871,17.915659 83.11929,39.936738 l 6.7275,6.438211 6.78804,-6.403488 C 286.52817,50.443528 313.22295,37.617934 345.89178,32.93212 356.56652,31.401002 383.75026,32.294592 394,34.513544 466.04715,50.110942 514.88817,112.99886 511.64982,186 c -1.29214,29.12821 -7.92603,54.24129 -22.05743,83.5 -25.06595,51.89843 -68.39848,100.63139 -131.9456,148.38968 -36.33475,27.30707 -93.28871,62.12056 -101.59837,62.10269 -2.55977,-0.005 -7.44907,-2.18678 -17.54842,-7.8289 z m 26.39857,-17.83804 c 23.8886,-12.9826 57.23279,-34.66856 81.85917,-53.23851 91.46918,-68.97393 141.47071,-143.20473 144.92977,-215.15847 1.10456,-22.97659 -2.82713,-42.44032 -12.61877,-62.46887 C 471.91348,108.82368 464.19588,98.261703 452.40615,86.970301 428.17677,63.765064 398.77071,52 365,52 c -21.6902,0 -39.36372,4.143676 -57.81132,13.554259 -15.79151,8.055641 -28.76003,18.496511 -41.76775,33.626935 -6.60372,7.681366 -12.24554,7.681366 -18.83031,0 C 219.54218,67.628247 186.55389,52 147,52 111.6782,52 80.960652,64.982144 56.269019,90.345597 45.690012,101.21244 39.827089,109.30014 33.684618,121.5 c -10.030419,19.9219 -13.217227,34.27766 -13.097302,59 0.101567,20.93795 2.41852,34.48583 9.409727,55.02136 23.540588,69.14662 92.078917,142.1462 190.728707,203.14348 10.77746,6.66394 34.42148,20.33329 35.17282,20.33451 0.21921,3.6e-4 4.26921,-2.10291 9,-4.67392 z"
       id="path1" />
  </g>
</svg>
