<?xml version="1.0" encoding="UTF-8" standalone="no"?>
<!-- Created with Inkscape (http://www.inkscape.org/) -->

<svg
   version="1.1"
   id="svg1"
   width="512"
   height="512"
   viewBox="0 0 512 512"
   xmlns="http://www.w3.org/2000/svg"
   xmlns:svg="http://www.w3.org/2000/svg">
  <defs
     id="defs1" />
  <g
     id="g1">
    <path
       style="fill:#000000"
       d="M 71.5,464.15793 C 39.05,452.23048 10.352917,441.64965 7.7287047,440.64498 -0.74702643,437.4001 0,457.41257 0,233.59671 0,81.050924 0.28119241,33.476956 1.1946853,31.472058 2.4639991,28.686217 6.672585,26 9.7679402,26 10.794933,26 38.717856,35.9 71.818879,48 104.9199,60.1 132.49414,70 133.09497,70 c 0.60083,0 28.14041,-9.9 61.19908,-22 33.05866,-12.1 60.83441,-22 61.7239,-22 0.88949,0 28.69991,9.9 61.80093,22 33.10102,12.1 60.67526,22 61.27609,22 0.60083,0 28.14041,-9.9 61.19908,-22 33.05866,-12.1 60.93884,-22 61.95596,-22 3.0791,0 7.28892,2.692639 8.5553,5.472058 C 511.71881,33.476956 512,81.050924 512,233.59671 c 0,172.73085 -0.19545,199.88057 -1.45649,202.31915 -0.98358,1.90204 -3.17522,3.50244 -6.75,4.92905 C 489.58297,446.51601 380.52312,486 379.06937,486 c -0.91777,0 -28.71666,-9.9 -61.77532,-22 -33.05867,-12.1 -60.60659,-22 -61.21762,-22 -0.61102,0 -28.16668,9.9 -61.2348,22 -33.06811,12.1 -61.07284,21.96495 -62.23273,21.92211 C 131.449,485.87927 103.95,476.08539 71.5,464.15793 Z m 51.05055,-144.94072 c -0.25458,-0.25457 -4.60981,-0.87882 -9.67828,-1.38721 -11.13943,-1.11733 -19.459819,-3.78556 -26.615448,-8.5352 -6.66271,-4.42245 -8.745264,-7.16507 -15.289582,-20.13559 -5.482658,-10.86636 -8.753444,-14.14789 -14.109107,-14.15547 -1.453026,-0.002 -8.180724,1.82814 -14.950439,4.06711 -6.769715,2.23897 -14.471396,4.32701 -17.114846,4.64009 l -4.806272,0.56923 0.256712,69.96417 L 20.5,424.20852 60,438.66032 c 21.725,7.94849 44.675,16.35843 51,18.68876 l 11.5,4.23696 0.25671,-70.95298 c 0.14119,-39.02414 0.0484,-71.16127 -0.20616,-71.41585 z M 205.59493,439 c 0.87403,0 0.29898,-7.8367 -1.03788,-14.14398 -2.11883,-9.99656 -4.80576,-14.24991 -15.99179,-25.3146 -15.64926,-15.47949 -18.71675,-24.07654 -16.71226,-46.83833 0.62085,-7.05002 0.7194,-13.75432 0.23339,-15.8766 -1.08236,-4.72631 -4.25935,-9.15223 -8.41173,-11.71854 C 160.00084,322.8374 150.06608,320 145.7899,320 H 143 v 70.88581 70.88582 l 31.09493,-11.38582 C 191.19713,444.12362 205.37213,439 205.59493,439 Z M 369,394.24123 v -67.75876 l -9.60936,-10.99124 c -31.84563,-36.42521 -48.35122,-62.05004 -54.98237,-85.35981 -2.4418,-8.5834 -2.62119,-10.42722 -2.14045,-22 0.3856,-9.28282 1.10723,-14.35457 2.72206,-19.13142 9.27554,-27.43791 30.78302,-47.01945 58.27783,-53.0592 l 5.76772,-1.26699 -0.26772,-23.47788 -0.26771,-23.477886 -9,-3.27119 C 354.55,82.647699 331.48632,74.215361 308.24739,65.708325 L 265.99477,50.240986 266.24739,237.22469 266.5,424.20838 306,438.66025 c 30.8951,11.3036 54.60167,20.08461 62.75,23.24285 0.1375,0.0533 0.25,-30.39454 0.25,-67.66187 z m 108,35.31454 14.5,-5.27837 0.25261,-187.00522 0.25261,-187.005228 -31.25261,11.447272 C 443.56368,68.010223 420.5,76.452313 409.5,80.474423 l -20,7.312927 -0.26771,23.44323 -0.26772,23.44323 5.76772,1.26699 c 23.44827,5.15085 43.1312,20.48039 53.262,41.48174 6.4649,13.40184 8.3855,22.50971 7.78649,36.92508 -0.37883,9.11653 -1.05013,12.88659 -3.6774,20.65238 -7.32424,21.64925 -21.98874,43.93874 -50.98808,77.5 l -12.09701,14 -0.009,67.63251 -0.009,67.6325 36.75,-13.46544 c 20.2125,-7.40599 43.275,-15.8407 51.25,-18.7438 z m -240.5,-1.96757 9,-3.30384 0.25261,-187.00871 0.25261,-187.008698 -31.25261,11.447272 C 197.56368,68.010223 174.5,76.452553 163.5,80.474956 l -20,7.31346 L 143.24546,193.89421 142.99091,300 l 3.25455,0.0174 c 6.2113,0.0331 17.29251,2.97539 24.42615,6.48556 8.01279,3.94275 14.5881,10.43359 18.45414,18.21704 2.27066,4.57149 2.3747,5.69626 2.3846,25.78004 0.009,18.36957 0.23743,21.41862 1.82329,24.34207 0.99712,1.83813 6.44527,7.91313 12.10701,13.5 8.02032,7.91425 10.98023,11.61313 13.40057,16.74613 3.32453,7.05059 6.11989,17.36111 6.144,22.6618 0.009,1.9547 0.51297,3.22849 1.26478,3.19602 0.6875,-0.0297 5.3,-1.5407 10.25,-3.35782 z M 389.59906,295.36737 c 32.2923,-37.94029 46.4471,-63.31568 46.59088,-83.52372 0.0696,-9.77647 -1.48823,-16.46383 -6.02014,-25.84365 -7.24033,-14.98553 -22.81241,-26.95635 -39.6698,-30.4956 -8.82624,-1.8531 -14.17376,-1.8531 -23,0 -21.3413,4.48066 -39.45301,21.97807 -44.4487,42.94112 -5.85196,24.55618 6.83498,51.67089 45.34964,96.92185 C 373.84645,301.76532 378.61603,307 379,307 c 0.38397,0 5.15355,-5.23468 10.59906,-11.63263 z M 367.35655,241.91775 C 360.67143,239.34684 354.17752,233.55571 350.4663,226.85541 347.76188,221.9728 347.5,220.66129 347.5,212 c 0,-11.12974 1.92429,-16.17396 8.81252,-23.10055 12.49375,-12.56332 33.30792,-12.53631 45.53134,0.0591 6.76746,6.9734 8.65614,12.00081 8.65614,23.04145 0,8.66129 -0.26188,9.9728 -2.9663,14.85541 -7.96795,14.38547 -25.16895,20.8341 -40.17715,15.06234 z m 18.32963,-19.86798 c 1.7524,-1.06851 3.69343,-2.89056 4.31341,-4.049 1.68482,-3.14811 1.4587,-9.65239 -0.4361,-12.54422 -2.14167,-3.26859 -7.35125,-6.44907 -10.56349,-6.44907 -3.21224,0 -8.42182,3.18048 -10.56349,6.44907 -1.8948,2.89183 -2.12092,9.39611 -0.4361,12.54422 1.65111,3.08512 6.98707,5.99175 10.99959,5.99175 1.925,0 4.93378,-0.87423 6.68618,-1.94275 z M 122.75457,193.35955 122.5,87.719106 l -9,-3.271721 C 108.55,82.647938 85.4875,74.215791 62.25,65.70928 L 20,50.242896 V 157.12145 C 20,263.98701 20.000248,264 22.037383,264 c 1.12056,0 7.75806,-1.89283 14.75,-4.20629 21.13446,-6.99288 31.592394,-5.69709 42.239257,5.23364 3.298182,3.38612 6.486488,8.26096 9.400352,14.37292 7.057438,14.80328 12.446408,17.99995 32.827578,19.47293 1.66396,0.12025 1.74142,-5.32783 1.5,-105.51365 z"
       id="path1" />
  </g>
</svg>
