<?xml version="1.0" encoding="UTF-8" standalone="no"?>
<!-- Created with Inkscape (http://www.inkscape.org/) -->

<svg
   version="1.1"
   id="svg1"
   width="512"
   height="512"
   viewBox="0 0 512 512"
   xmlns="http://www.w3.org/2000/svg"
   xmlns:svg="http://www.w3.org/2000/svg">
  <defs
     id="defs1" />
  <g
     id="g1">
    <path
       style="fill:#000000"
       d="M 59.734467,510.91942 C 50.413209,508.70486 42.159762,502.03776 37.284152,492.78415 L 34.5,487.5 34.23587,352.82528 33.97174,218.15056 36.148497,212.33265 C 40.153805,201.62751 53.830367,191 63.601532,191 c 2.196163,0 1.228869,-1.27482 -7.39799,-9.75 C 50.745069,175.8875 44.405049,168.69568 42.114608,165.26818 22.72783,136.25708 18.214472,102.83256 29.315343,70.480824 34.378598,55.724766 43.281348,41.924991 55.158905,30.421818 69.319866,16.707214 84.176565,8.2399254 102.79419,3.2730083 111.31612,0.9994774 114.45162,0.6836356 128.5,0.6836356 c 14.14821,0 17.15737,0.30775765 26,2.6591166 11.33813,3.0149419 23.61754,8.5873978 33.71435,15.2997458 12.49703,8.308012 27.41343,25.121017 33.37092,37.613994 C 222.5671,58.315421 223.65373,60 224,60 c 0.34627,0 1.4329,-1.684579 2.41473,-3.743508 5.9054,-12.38375 20.81272,-29.117419 33.55637,-37.667478 9.77666,-6.559427 22.36169,-12.258267 33.82309,-15.3160057 8.52193,-2.2735309 11.65743,-2.5893727 25.70581,-2.5893727 14.04838,0 17.18388,0.3158418 25.70581,2.5893727 11.23889,2.9983762 23.80888,8.6402107 32.91302,14.7724747 13.57763,9.145461 28.45401,26.105682 35.90576,40.935341 8.25399,16.426171 12.21672,38.906266 10.05119,57.019176 -3.14061,26.26868 -13.18909,46.60498 -32.24103,65.25 -8.64982,8.46507 -9.62983,9.75 -7.43628,9.75 9.75311,0 23.44807,10.62844 27.4389,21.29489 1.86294,4.97915 2.16263,7.85357 2.16263,20.74262 0,8.22937 0.3851,14.96249 0.85579,14.96249 0.47068,0 14.60777,-5.85 31.41575,-13 16.80798,-7.15 31.71578,-13 33.12844,-13 1.42496,0 4.02242,1.29906 5.83424,2.91786 l 3.26578,2.91786 0.26128,127.60998 c 0.23464,114.59877 0.10042,127.92106 -1.31642,130.66092 -1.97767,3.8244 -7.12306,6.13899 -11.07675,4.98274 -1.57746,-0.46133 -15.63539,-6.29516 -31.23984,-12.96407 C 429.52383,471.45638 416.18611,466 415.4889,466 c -0.92072,0 -1.37444,2.94205 -1.65785,10.75 -0.36111,9.94876 -0.64394,11.22209 -3.79463,17.08383 -3.74858,6.9741 -9.09556,11.9288 -16.61608,15.39705 L 388.5,511.5 226,511.65702 c -92.72077,0.0896 -164.11696,-0.22714 -166.265533,-0.7376 z M 386.95392,489.90574 C 394.60137,485.60763 394,497.41641 394,351.54605 c 0,-144.27423 0.44538,-134.47452 -6.29855,-138.58653 -3.14001,-1.91458 -6.27775,-1.95212 -163.50111,-1.95578 -177.065596,-0.004 -164.104446,-0.48908 -168.240824,6.29481 -1.909744,3.13208 -1.952121,6.03654 -1.955778,134.04716 -0.0042,145.8322 -0.584185,134.18211 6.89647,138.52061 L 64.5,491.95406 223.86385,491.97703 383.22769,492 Z M 89.923077,446.07692 87,443.15385 V 352.5 261.84615 L 89.923077,258.92308 92.846154,256 h 82.021156 82.02116 l 2.80577,2.41321 2.80576,2.41322 0.26677,89.83678 c 0.19689,66.30577 -0.0365,90.56945 -0.89086,92.63395 C 259.43262,449.20089 262.52918,449 173.97274,449 H 92.846154 Z M 243,352.5 V 276 H 174.5 106 v 76.5 76.5 h 68.5 68.5 z m 80.65049,54.39793 c -10.80259,-1.69429 -19.81185,-8.50573 -24.89572,-18.82236 -1.83685,-3.72749 -2.25306,-6.24371 -2.24556,-13.57557 0.008,-7.89142 0.35101,-9.65088 2.78415,-14.28415 5.97471,-11.37728 15.05475,-17.28799 27.63535,-17.98943 6.04501,-0.33704 8.72067,0.0116 13.27292,1.72947 16.69699,6.3009 25.24059,24.85674 19.35822,42.04411 -2.57774,7.53175 -11.9757,17.02267 -19.05985,19.24838 -6.77743,2.12934 -11.09526,2.55205 -16.84951,1.64955 z m 8.53523,-19.93276 c 2.02715,-0.56303 4.82175,-2.37376 6.21021,-4.02386 7.39228,-8.78523 1.44012,-20.92756 -10.26358,-20.93757 -3.74262,-0.003 -4.92322,0.55184 -8.25,3.87861 -3.26764,3.26764 -3.88235,4.54219 -3.88235,8.04966 0,5.9313 2.38666,9.88647 7.31632,12.12461 4.95926,2.25158 4.2832,2.18233 8.8694,0.90855 z m -28.90159,-65.66643 c -1.21872,-0.23589 -3.35622,-1.78414 -4.75,-3.44054 L 296,314.84655 v -26.5002 -26.5002 l 2.92308,-2.92307 L 301.84615,256 h 26.88837 c 25.91673,0 26.96966,0.0757 29.13818,2.09603 1.2374,1.15281 2.67225,3.20711 3.18856,4.5651 0.51631,1.35799 0.93874,13.02923 0.93874,25.93609 0,35.13035 1.65733,33.47059 -33.21788,33.2666 -12.80517,-0.0749 -24.27926,-0.32919 -25.49799,-0.56508 z M 342,289 v -13 h -13 -13 v 13 13 h 13 13 z m 127,67.44098 c 0,-60.25746 -0.3375,-109.37386 -0.75,-109.14757 -0.4125,0.2263 -12.78997,5.50131 -27.50549,11.72226 l -26.75549,11.31081 0.25549,86.56262 0.25549,86.56263 26,11.17495 c 14.3,6.14622 26.5625,11.21959 27.25,11.27414 0.993,0.0788 1.25,-22.42639 1.25,-109.45984 z M 138.85427,189.95904 C 183.19592,184.39907 215.88035,145.74722 213.65622,101.5 212.53814,79.256624 204.23316,60.435531 188.8361,45.251606 177.1966,33.773217 166.14765,27.323655 150.39503,22.812534 139.97513,19.828557 118.05928,19.60596 108,22.381932 82.070856,29.537373 62.141589,46.270876 51.101472,70.15648 45.277731,82.756308 43.50694,91.243159 43.622681,106 c 0.119223,15.20071 2.29992,24.43428 8.856398,37.5 12.748586,25.40533 37.329174,42.70972 65.992951,46.45811 8.81327,1.15252 11.19731,1.15263 20.38224,9.3e-4 z M 119.9506,161.98333 C 96.546733,158.35095 77.408866,139.8457 72.395283,116 66.59767,88.425285 83.99034,59.357706 111.45847,50.715461 120.73089,47.7981 136.82201,47.644204 145,50.394667 c 14.54516,4.8919 27.4279,15.301741 33.77456,27.291381 12.24012,23.123152 8.50256,49.012112 -9.7345,67.427912 -13.40022,13.53155 -31.19504,19.64666 -49.08946,16.86937 z m 22.43714,-22.02721 c 7.71697,-2.88729 15.72632,-10.4111 19.72103,-18.52549 C 172.2976,100.73418 160.84796,75.511937 138.52039,69.468147 111.24076,62.083894 85.490631,86.94622 92.416902,113.9821 c 5.737149,22.39428 28.255298,34.09884 49.970838,25.97402 z M 245.67553,179.75 c -8.34331,-8.39891 -12.44268,-13.45656 -16.17553,-19.95676 -2.75,-4.78871 -5.225,-8.70675 -5.5,-8.70675 -0.275,0 -2.75,3.91804 -5.5,8.70675 -3.73285,6.5002 -7.83222,11.55785 -16.17553,19.95676 L 191.14894,191 H 224 256.85106 Z M 340,187.91403 c 23.32052,-5.46088 44.45964,-22.37115 55.52092,-44.41403 6.6927,-13.33719 8.76776,-22.27917 8.8182,-38 0.0486,-15.155291 -1.51326,-22.586663 -7.42833,-35.34352 C 383.26468,40.726321 356.34551,22.204756 324.5,20.334695 307.66364,19.346016 291.85672,22.996878 277,31.305583 266.74038,37.043331 251.04333,52.740384 245.30558,63 c -26.38553,47.17974 -4.11154,105.48368 47.03294,123.11243 15.11591,5.21023 30.6048,5.79571 47.66148,1.8016 z m -28.59789,-25.87338 c -12.8741,-1.98278 -22.7418,-7.13126 -32.44217,-16.92669 -14.75105,-14.89562 -20.03542,-33.76904 -14.9845,-53.517949 2.67469,-10.457902 7.33893,-18.859686 14.52456,-26.163344 24.69167,-25.097244 65.5491,-22.472757 86.58958,5.562102 6.25056,8.328409 9.82938,17.305095 11.16511,28.005231 3.2753,26.23754 -14.19666,53.00623 -39.75469,60.90796 -7.31496,2.26155 -18.23577,3.18955 -25.09789,2.13269 z m 20.71003,-21.56491 c 10.61115,-3.61974 20.54506,-14.81155 23.48637,-26.46038 7.01991,-27.801881 -20.45049,-53.217033 -47.58969,-44.029172 -26.17439,8.861227 -34.45986,40.380972 -15.90593,60.509602 10.2888,11.16204 25.45444,14.94497 40.00925,9.97995 z"
       id="path1" />
  </g>
</svg>
