<?xml version="1.0" encoding="UTF-8" standalone="no"?>
<!-- Created with Inkscape (http://www.inkscape.org/) -->

<svg
   version="1.1"
   id="svg1"
   width="512"
   height="512"
   viewBox="0 0 512 512"
   xmlns="http://www.w3.org/2000/svg"
   xmlns:svg="http://www.w3.org/2000/svg">
  <defs
     id="defs1" />
  <g
     id="g1">
    <path
       style="fill:#000000"
       d="M 240.5,443.94546 C 152.81889,439.61154 73.203933,396.58446 20.216387,324.89544 9.1890581,309.97612 0.83072871,296.15688 0.25979072,291.90022 -0.2055643,288.43074 0.16214568,287.69023 4.6258194,283.10775 15.049019,272.40713 143.99261,154.36827 152.36711,147.86091 c 17.31731,-13.45632 34.21551,-19.63506 50.45138,-18.44728 16.92079,1.23789 31.32504,8.28697 45.8614,22.4434 l 7.17989,6.99224 7.32011,-7.10099 c 9.70548,-9.41496 20.20362,-16.15062 29.99121,-19.24252 4.36268,-1.37817 8.80891,-2.50576 9.88052,-2.50576 1.58217,0 1.95116,-0.70484 1.96316,-3.75 0.0501,-12.70231 7.76474,-29.091067 18.95648,-40.270409 C 336.20001,73.764373 349.37851,68 365.07617,68 c 14.08459,0 25.67053,4.572224 36.68901,14.478788 L 407,87.185339 l 5.23482,-4.706551 c 11.00949,-9.898483 22.62235,-14.486138 36.62052,-14.466919 16.69823,0.02293 28.23338,5.057436 41.18027,17.973103 C 503.07069,98.988622 509,112.69253 509,129.81575 c 0,19.59811 -4.60439,28.31354 -27.91282,52.83487 -9.67295,10.17629 -22.27153,23.44993 -27.99686,29.49696 l -10.40967,10.99461 2.90967,2.77227 c 1.60033,1.52475 16.9161,15.64708 34.03505,31.38294 17.11895,15.73586 31.40645,29.34315 31.75,30.23842 1.39179,3.62694 0.33899,6.67808 -5.79434,16.7927 -25.90136,42.71456 -64.89516,80.01888 -109.24624,104.51295 -36.00049,19.88222 -80.7887,32.89765 -119.33479,34.67862 -6.325,0.29224 -13.975,0.6632 -17,0.82435 -3.025,0.16116 -11.8,-0.0184 -19.5,-0.39898 z m 49.92915,-21.54782 c 65.32587,-8.03768 126.75629,-40.65258 169.90036,-90.20423 8.85578,-10.171 22.80375,-28.39348 22.19732,-28.99991 -0.19493,-0.19494 -5.45571,0.15571 -11.69063,0.77922 -33.86063,3.38612 -68.94112,3.00732 -97.44916,-1.05227 l -15.37203,-2.189 -4.2691,3.93511 c -13.41506,12.36557 -36.25102,23.30943 -58.80258,28.18042 -50.32988,10.87092 -106.99803,-0.81202 -136.68924,-28.18042 l -4.2691,-3.93511 -15.37203,2.189 c -28.50804,4.05959 -63.588533,4.43839 -97.449164,1.05227 -6.234912,-0.62351 -11.49453,-0.97532 -11.688039,-0.78181 -0.550132,0.55013 13.233193,18.74424 21.37405,28.21393 26.814719,31.19168 65.882223,58.91298 104.194133,73.93349 27.55803,10.80436 54.24668,16.62253 87.45606,19.06558 8.70736,0.64056 35.54885,-0.48301 47.92915,-2.00627 z M 285,314.54361 c 12.82294,-2.48491 24.4986,-6.24427 34.5,-11.10839 8.79409,-4.27695 18.54241,-10.71773 18.4574,-12.19494 -0.0234,-0.40715 -10.03593,-6.99012 -22.25,-14.62881 -16.85485,-10.54104 -23.2148,-14.00509 -26.38704,-14.37212 -3.11795,-0.36075 -6.84393,0.43649 -14.66823,3.13853 -14.56449,5.02969 -22.30056,5.03046 -37.16119,0.004 -15.33388,-5.18685 -14.90483,-5.30017 -40.02455,10.57088 -11.53152,7.28579 -21.57188,13.82361 -22.31192,14.52847 -1.11406,1.0611 -0.51195,1.92019 3.5,4.99373 12.59776,9.65111 36.3729,17.88354 60.34553,20.89535 7.6874,0.96581 37.75092,-0.22784 46,-1.82639 z M 126.88794,284.44708 c 26.29704,-3.40448 23.85875,-2.43967 53.24175,-21.0673 14.49138,-9.18694 28.37799,-17.60367 30.85914,-18.70385 2.51714,-1.11613 7.63297,-2.20244 11.57372,-2.4576 6.1932,-0.401 8.36647,-0.0118 17.65548,3.16219 13.61087,4.65067 18.14629,4.66629 31.28197,0.10773 11.19676,-3.88568 18.03674,-4.40893 26.14767,-2.00024 2.95996,0.87901 16.4022,8.67635 32.84454,19.05188 26.33452,16.61775 28.24257,17.64048 35.42083,18.98593 18.81048,3.52571 32.98948,4.77916 54.58696,4.8256 20.72343,0.0446 53.63225,-1.84584 56.1391,-3.22482 0.97752,-0.53771 -11.45148,-12.42888 -41.79916,-39.99041 l -5.90603,-5.3638 -5.45637,5.16041 c -3.00101,2.83822 -7.02168,5.81444 -8.93484,6.6138 -5.11234,2.13608 -11.55173,1.82239 -16.35266,-0.7966 -4.34815,-2.37199 -75.93485,-76.19059 -82.05761,-84.61597 -1.85217,-2.54872 -4.44972,-6.94644 -5.77235,-9.77271 l -2.40477,-5.13868 -4.22765,0.93208 c -10.11681,2.23047 -16.2899,6.28565 -30.1493,19.80543 C 260.72431,182.4992 260.04921,183 256,183 c -4.04921,0 -4.72431,-0.5008 -17.57836,-13.03985 -15.0117,-14.64385 -21.08876,-18.32291 -33.41793,-20.23129 -13.06337,-2.02202 -26.28961,2.49742 -40.61162,13.8771 -12.98651,10.31854 -130.179023,118.88479 -129.027297,119.5299 0.624364,0.34972 8.785207,1.14948 18.135207,1.77725 9.35,0.62777 19.025,1.30849 21.5,1.51272 8.695856,0.71756 40.39989,-0.49148 51.88794,-1.97875 z m 307.69801,-81.97142 c 46.64948,-48.57392 47.76706,-49.80244 50.62912,-55.65505 5.36807,-10.97716 5.33941,-22.76465 -0.0835,-34.35322 -7.65939,-16.367733 -25.93329,-27.349679 -40.81386,-24.527636 -8.58338,1.627804 -14.1495,4.971831 -24.0839,14.469176 -8.52477,8.14973 -9.83852,9.04562 -13.26482,9.04562 -3.43322,0 -4.71029,-0.87708 -13.13595,-9.02164 C 383.92831,92.858661 378.6458,89.639642 370.21505,88.040784 355.05523,85.165783 336.55539,96.159373 328.72161,112.69839 325.72919,119.01612 325.5,120.24699 325.5,130 c 0,10.09746 0.13418,10.74875 3.5,16.98836 2.63077,4.87696 9.2121,12.44444 26.5,30.47076 12.65,13.19032 29.3,30.5867 37,38.65861 7.7,8.07191 14.26368,14.61007 14.58595,14.52924 0.32228,-0.0808 12.69728,-12.75792 27.5,-28.17131 z"
       id="path1" />
  </g>
</svg>
