<?xml version="1.0" encoding="UTF-8" standalone="no"?>
<!-- Created with Inkscape (http://www.inkscape.org/) -->

<svg
   version="1.1"
   id="svg1"
   width="512"
   height="512"
   viewBox="0 0 512 512"
   sodipodi:docname="mandeln.png"
   xmlns:inkscape="http://www.inkscape.org/namespaces/inkscape"
   xmlns:sodipodi="http://sodipodi.sourceforge.net/DTD/sodipodi-0.dtd"
   xmlns="http://www.w3.org/2000/svg"
   xmlns:svg="http://www.w3.org/2000/svg">
  <defs
     id="defs1" />
  <sodipodi:namedview
     id="namedview1"
     pagecolor="#ffffff"
     bordercolor="#000000"
     borderopacity="0.25"
     inkscape:showpageshadow="2"
     inkscape:pageopacity="0.0"
     inkscape:pagecheckerboard="0"
     inkscape:deskcolor="#d1d1d1" />
  <g
     inkscape:groupmode="layer"
     inkscape:label="Image"
     id="g1">
    <path
       style="fill:#000000"
       d="M 229.65842,490.43102 C 124.32635,474.04703 31.415711,359.01013 2.554627,209.24346 1.1495821,201.95237 0,195.07845 0,193.96809 0,190.86431 43.02471,105.68534 49.737174,95.5 76.932208,54.234869 112.71712,28.539626 152.74079,21.538576 c 11.23088,-1.964538 31.2965,-1.962969 42.53748,0.0033 17.65031,3.087426 36.21604,10.639167 51.79963,21.06986 C 251.50546,45.575293 255.46823,48 255.88407,48 c 0.41584,0 4.47311,-2.445463 9.01616,-5.434361 16.20415,-10.660803 34.18373,-18.000574 51.48514,-21.017688 11.37641,-1.98388 31.85285,-1.98388 43.22926,0 38.67565,6.744469 74.36108,31.913822 100.59407,70.950174 5.68918,8.465845 14.55446,25.004005 30.11282,56.175335 l 22.0499,44.17722 -2.3078,12.82466 c -15.41736,85.67563 -54.70146,165.61757 -107.55865,218.87855 -36.75736,37.03816 -78.08919,59.40228 -121.77022,65.88828 -12.8763,1.91195 -38.74911,1.9063 -51.07633,-0.0111 z M 287.5,469.17549 c 60.54481,-13.6298 115.5065,-60.52008 155.97711,-133.07106 20.66909,-37.05312 38.01023,-85.76202 46.3694,-130.24534 l 1.81169,-9.64091 -18.20323,-37.01184 c -10.01178,-20.35651 -20.58699,-40.9931 -23.50046,-45.85909 -23.5013,-39.251137 -56.5146,-65.011107 -92.04462,-71.821549 -11.87099,-2.275446 -30.2439,-2.124808 -41.53991,0.340583 -16.87071,3.682085 -33.29196,11.435151 -47.87045,22.601375 -3.89328,2.982013 -8.31991,5.89375 -9.83694,6.470526 -3.6616,1.392137 -7.01206,-0.129118 -16.97845,-7.70896 C 227.54733,52.47761 210.18923,44.661826 193.24961,41.420741 182.63975,39.39074 163.49228,39.612919 152.5,41.893582 128.31415,46.911628 107.8214,59.069764 86.699327,80.932438 70.627317,97.56798 63.059221,109.79526 40.035156,156.32472 l -19.706375,39.82472 1.828254,9.67528 c 16.105045,85.22932 56.578829,163.68505 109.658115,212.56496 31.10726,28.6462 63.73907,45.64004 100.18485,52.17382 11.42002,2.04731 43.84182,1.23647 55.5,-1.38801 z m -45,-32.23833 C 188.77415,431.62965 136.93478,395.59645 97.286184,336 75.003476,302.5065 57.52195,262.35016 46.99343,220.47387 44.197307,209.35253 43.343861,204.29377 43.924681,202.28402 45.83252,195.6825 75.404745,138.50164 82.052337,128.56037 99.31914,102.73839 123.97851,84.368288 150.88112,77.286069 c 13.80916,-3.63532 32.46097,-3.626441 46.32469,0.02205 17.8886,4.70771 30.7406,11.896268 48.80388,27.297651 l 9.99031,8.51809 10.25,-8.74188 c 17.58493,-14.997594 30.93995,-22.438642 48.63112,-27.095912 13.80916,-3.63532 32.46097,-3.626441 46.32469,0.02205 26.88359,7.074905 51.44761,25.389242 68.74185,51.252252 6.64759,9.94127 36.21982,67.12213 38.12766,73.72365 1.51303,5.2354 -8.68239,41.4886 -19.18427,68.21598 -5.79518,14.7488 -20.25072,43.66717 -27.99294,56 -41.98417,66.87798 -94.4678,104.83732 -152.80015,110.51431 -10.83543,1.05452 -14.24659,1.04424 -25.59796,-0.0772 z m 36.4522,-21.48758 c 27.92763,-5.29778 55.52821,-20.58551 82.53335,-45.71454 l 7.98556,-7.43078 -5.67091,-7.01877 c -22.45807,-27.79592 -62.4975,-35.18534 -92.49136,-17.0696 l -5.19117,3.13537 -0.30883,18.80404 -0.30884,18.80405 -2.75,2.7476 c -4.09257,4.08899 -9.9431,3.87974 -13.85234,-0.49545 L 246,377.96845 v -18.27294 -18.27294 l -5.25,-3.17102 c -15.83576,-9.56488 -35.87567,-12.40272 -54.42333,-7.70686 -14.17626,3.58912 -30.54719,14.42068 -39.26017,25.97586 l -4.4335,5.87972 7.9335,7.38277 c 30.61407,28.48891 61.53777,43.98916 94.9335,47.58463 6.76219,0.72804 25.02232,-0.31897 33.4522,-1.91809 z M 142.6583,318.06913 C 134.27915,300.14473 131,285.21788 131,265 c 0,-26.5734 6.97552,-49.22976 22.0267,-71.5423 7.56719,-11.21794 20.97397,-24.42797 28.4733,-28.05546 5.46349,-2.64272 6.9389,-2.90079 16.5,-2.88599 9.7602,0.0151 10.96316,0.24177 17.07366,3.21693 8.02151,3.90561 15.9508,11.94892 19.73045,20.01418 2.84912,6.07962 3.10227,10.10477 2.06469,32.83008 -0.34502,7.55653 -0.18416,8.34439 2.49426,12.21689 C 242.71051,235.63414 250.60072,240 256,240 c 5.45776,0 13.66523,-4.53746 16.81715,-9.29729 2.96278,-4.4742 3.28982,-9.28346 1.71723,-25.25247 -1.71747,-17.44032 6.81647,-31.99296 23.34224,-39.8047 5.97437,-2.82409 7.559,-3.1316 16.17178,-3.13821 9.02736,-0.007 9.96332,0.19764 17.15189,3.74881 5.98979,2.95896 9.2352,5.49066 15.29187,11.92893 22.83391,24.27259 34.52007,53.6388 34.50029,86.69592 -0.0121,20.15888 -3.39249,35.61048 -11.63622,53.18814 l -0.99078,2.11259 -3.49704,7.45653 9.00749,9.18069 9.00749,9.18069 4.4045,-5.74981 C 412.28105,307.62274 433.03197,263.83519 444.98512,218.5 l 3.16394,-12 -12.09389,-24.88201 C 414.70742,137.69704 405.32417,124.62475 384.42658,109.69153 370.33209,99.61974 355.03154,94.648373 338,94.606874 c -13.25812,-0.0323 -22.72776,2.167714 -34.27504,7.962896 -9.40393,4.7195 -13.19698,7.43701 -29.14399,20.88004 -13.81897,11.64914 -16.60527,13.26288 -20.99675,12.16068 -1.32868,-0.33347 -8.53681,-5.76623 -16.01807,-12.0728 -7.48126,-6.30656 -15.56976,-12.82013 -17.97444,-14.47459 -7.07328,-4.86655 -17.68912,-9.817424 -26.17645,-12.207836 -11.04518,-3.110818 -27.73749,-3.12464 -38.71367,-0.03206 -24.52357,6.909616 -45.63702,24.435736 -61.322856,50.903656 -3.007493,5.07478 -10.8824,20.37478 -17.499795,34 L 63.847314,206.5 66.551603,217 c 11.57544,44.9442 33.072012,90.49828 58.160507,123.24982 l 4.4045,5.74981 9.00749,-9.18069 9.00749,-9.18069 z M 267,318.25259 c 11.63367,-5.81397 18.10882,-7.74411 31.55519,-9.40609 11.62488,-1.43684 25.99518,0.2009 37.61793,4.2872 4.57978,1.61015 9.03444,3.17035 9.89924,3.4671 2.00604,0.68837 8.79541,-13.55446 11.96608,-25.10259 3.11355,-11.34015 3.87227,-34.89122 1.50168,-46.61304 C 355.90169,226.89432 347.71964,210.04294 335.8617,196.11815 326.26265,184.84598 322.48092,182.5 313.90917,182.5 c -5.87224,0 -7.28356,0.38504 -10.99626,3 -2.34265,1.65 -5.34773,5.025 -6.67795,7.5 -2.21204,4.11572 -2.35106,5.14047 -1.62793,12 0.43486,4.125 0.79462,11.32846 0.79946,16.00768 0.008,7.46261 -0.37823,9.33476 -3.14197,15.24075 -5.70493,12.19115 -16.63088,20.50687 -30.04932,22.87048 -24.64915,4.34186 -48.10569,-17.21219 -45.83658,-42.11891 0.3257,-3.575 0.87858,-8.83722 1.22861,-11.69382 0.89357,-7.2923 -0.19867,-11.77126 -3.89798,-15.98454 -6.23955,-7.10646 -16.12313,-9.23606 -24.35978,-5.24877 -7.88324,3.81621 -20.80498,19.75702 -27.89476,34.41217 -13.40557,27.71039 -14.30181,59.40231 -2.48277,87.79293 4.87878,11.71934 4.50876,11.4671 12.26804,8.3629 24.52157,-9.81017 53.03985,-8.02682 76.26002,4.76881 4.4,2.42465 8.225,4.33687 8.5,4.24939 0.275,-0.0875 5.225,-2.52041 11,-5.40648 z"
       id="path1"
       sodipodi:nodetypes="ssssssssssssscsssssssscssssssssssscsssssssssssscsssssssssssscsscccsscccssscsssssssssssssssscssssccccsscsssssssssssscsscccsssssssssssscssssssssssss" />
  </g>
</svg>
