<?xml version="1.0" encoding="UTF-8" standalone="no"?>
<!-- Created with Inkscape (http://www.inkscape.org/) -->

<svg
   version="1.1"
   id="svg2"
   width="512"
   height="512"
   viewBox="0 0 512 512"
   sodipodi:docname="mask.png"
   xmlns:inkscape="http://www.inkscape.org/namespaces/inkscape"
   xmlns:sodipodi="http://sodipodi.sourceforge.net/DTD/sodipodi-0.dtd"
   xmlns="http://www.w3.org/2000/svg"
   xmlns:svg="http://www.w3.org/2000/svg">
  <defs
     id="defs6" />
  <sodipodi:namedview
     id="namedview4"
     pagecolor="#ffffff"
     bordercolor="#000000"
     borderopacity="0.25"
     inkscape:showpageshadow="2"
     inkscape:pageopacity="0.0"
     inkscape:pagecheckerboard="0"
     inkscape:deskcolor="#d1d1d1"
     showgrid="false" />
  <g
     inkscape:groupmode="layer"
     inkscape:label="Image"
     id="g8">
    <path
       style="fill:#000000"
       d="M 104,425.65273 C 90.488363,420.47764 74.034622,411.43024 62.816239,403.00707 16.743419,368.41391 -5.0264224,313.98635 1.0167705,248.5 8.6180053,166.13012 49.566999,103.78231 107.5,86.371562 c 8.03337,-2.414289 10.61105,-2.706607 24,-2.721693 12.37997,-0.01395 16.39735,0.366264 23,2.17677 8.92612,2.44762 22.15481,8.463745 29.06524,13.218251 11.55698,7.95141 25.07866,23.27763 32.58789,36.93692 L 219.46165,142 H 256 292.53835 l 3.30852,-6.01819 C 309.601,110.96306 331.81506,92.893866 357.5,85.832384 c 6.6123,-1.817899 10.60194,-2.196484 23,-2.182515 13.41612,0.01512 15.93981,0.302613 23.90039,2.722718 C 465.91894,105.07491 508.0469,173.67699 511.63762,261 514.11352,321.21161 492.38909,370.56693 449.10531,403.06597 433.79673,414.56021 404.4178,429 396.3404,429 c -1.57362,0 -3.88246,-1.34206 -6.06694,-3.52654 -4.50914,-4.50914 -4.15823,-7.48898 2.00809,-17.0521 9.68895,-15.02623 14.13965,-26.8549 15.58536,-41.42136 0.46399,-4.675 0.74074,-8.63051 0.615,-8.79002 -0.12574,-0.15951 -4.2231,2.23175 -9.10526,5.3139 -13.507,8.5271 -25.10866,13.87621 -30.21323,13.93023 -3.54289,0.0375 -4.7783,-0.46763 -6.75,-2.75987 C 359.57275,371.39177 359.32348,367.10888 361.5,359 c 1.52358,-5.6763 1.97195,-14.60655 0.87667,-17.46081 -1.06642,-2.77903 -7.3357,-5.17785 -22.29979,-8.53258 -34.4316,-7.71907 -42.57951,-13.5834 -55.22801,-39.74952 -10.40724,-21.52957 -15.01829,-25.6254 -28.84887,-25.6254 -13.83058,0 -18.44163,4.09583 -28.84887,25.6254 -12.6485,26.16612 -20.79641,32.03045 -55.22801,39.74952 -14.96409,3.35473 -21.23337,5.75355 -22.29979,8.53258 -1.09528,2.85426 -0.64691,11.78451 0.87667,17.46081 2.17652,8.10888 1.92725,12.39177 -0.91342,15.69424 -1.9717,2.29224 -3.20711,2.79736 -6.75,2.75987 -5.13118,-0.0543 -16.88467,-5.48511 -30.06003,-13.88952 C 107.97865,360.50406 103.91017,358 103.73549,358 c -0.17468,0 0.0272,3.93249 0.4486,8.73886 1.27298,14.51874 5.71601,26.4553 15.4889,41.61222 2.42959,3.76809 4.67055,8.11663 4.97991,9.66341 1.05317,5.26587 -4.21584,11.05899 -9.94995,10.93967 C 113.49133,428.92895 108.675,427.4433 104,425.65273 Z M 88.485929,389.75205 C 85.188506,379.3684 84.204676,372.3213 83.424863,353.5 c -0.638462,-15.4097 -0.583142,-16.10009 1.49944,-18.71282 5.048871,-6.33412 13.016337,-4.47748 31.230657,7.27763 l 12.34504,7.96721 0.65184,-6.35554 c 0.77587,-7.56491 4.41519,-15.28822 9.049,-19.20366 5.11398,-4.32117 12.21602,-7.01441 27.36356,-10.37681 30.68317,-6.81095 33.56396,-8.86892 45.17765,-32.27381 9.32818,-18.79893 14.55976,-25.09946 24.91562,-30.00653 11.4457,-5.42347 29.14451,-5.43834 40.68466,-0.0342 10.29082,4.81911 15.55272,11.16284 24.91768,30.04071 11.61057,23.40456 14.49136,25.46262 45.17559,32.27381 15.14754,3.3624 22.24958,6.05564 27.36356,10.37681 4.63381,3.91544 8.27313,11.63875 9.049,19.20366 l 0.65184,6.35554 12.42892,-8.02131 c 18.03621,-11.64011 24.88982,-13.28288 30.79202,-7.38068 l 2.5487,2.5487 -0.70241,17.16064 c -0.7245,17.70059 -2.15924,27.25513 -5.59015,37.22724 -1.09024,3.16885 -1.85973,5.88407 -1.70998,6.03382 0.14975,0.14975 4.62202,-2.63202 9.93837,-6.18172 C 472.99726,363.51455 493.94634,318.32789 491.66916,261 488.86829,190.48847 458.45999,132.83595 412.5,110.89952 373.03651,92.063828 332.16535,107.97001 310.74604,150.5 c -6.07307,12.05862 -0.80443,11 -54.74604,11 -53.94161,0 -48.67297,1.05862 -54.74604,-11 -5.33943,-10.60193 -10.83958,-18.25782 -18.75604,-26.10733 -8.37917,-8.3083 -17.81879,-14.18009 -28.99792,-18.03776 -7.09102,-2.44696 -9.47709,-2.76598 -21,-2.80777 -10.92702,-0.0396 -14.18809,0.32596 -20.45067,2.2926 C 59.770441,122.25688 23.397846,183.78844 20.330845,261 c -2.277181,57.32789 18.6719,102.51455 60.463685,130.41871 5.316352,3.5497 9.769256,6.35084 9.895342,6.22475 0.126086,-0.12608 -0.865688,-3.67722 -2.203943,-7.89141 z M 106,273.63708 c -20.344062,-5.42675 -39.611077,-19.43272 -54.333335,-39.49709 -5.978511,-8.14787 -6.152054,-11.46101 -1.00098,-19.10992 5.42552,-8.05643 19.461711,-22.17935 27.650763,-27.82162 9.650179,-6.64898 15.879562,-9.67764 26.376082,-12.82377 7.31627,-2.1929 10.83921,-2.64955 20.80747,-2.69708 17.90132,-0.0853 31.40077,4.10965 47.35419,14.71547 7.70119,5.11974 23.00519,20.49719 28.45892,28.59551 5.44638,8.08741 5.13705,10.95383 -2.23839,20.74176 -11.08479,14.71063 -26.40977,27.43845 -40.6496,33.7606 -15.38199,6.82925 -36.17819,8.46999 -52.42512,4.13614 z m 33.5,-18.77257 c 12.46195,-2.66478 28.5555,-13.08741 38.89415,-25.18893 l 4.79057,-5.60742 -2.02305,-2.84111 c -3.7553,-5.27384 -16.87118,-16.96099 -23.1915,-20.66523 -11.00348,-6.44896 -19.90789,-8.93855 -31.97017,-8.93855 -12.06436,0 -20.88457,2.46724 -32.096371,8.97818 C 87.574666,204.27682 69,221.6289 69,223.86593 c 0,0.63139 3.9375,5.11554 8.75,9.96479 19.021182,19.16643 38.86785,25.92677 61.75,21.03379 z m 227.23655,19.08235 c -19.76927,-4.85949 -40.33497,-19.72525 -55.06988,-39.80687 -5.97852,-8.14787 -6.15206,-11.46101 -1.00099,-19.10992 5.42553,-8.05643 19.46172,-22.17935 27.65077,-27.82162 9.65018,-6.64898 15.87956,-9.67764 26.37608,-12.82377 7.31627,-2.1929 10.83921,-2.64955 20.80747,-2.69708 17.90132,-0.0853 31.40077,4.10965 47.35419,14.71547 7.70119,5.11974 23.00519,20.49719 28.45892,28.59551 5.44638,8.08741 5.13705,10.95383 -2.23839,20.74176 -11.08479,14.71063 -26.40977,27.43845 -40.6496,33.7606 -14.82184,6.58056 -35.69911,8.37629 -51.68857,4.44592 z M 399.5,254.86451 c 12.46195,-2.66478 28.5555,-13.08741 38.89415,-25.18893 l 4.79057,-5.60742 -2.02305,-2.84111 c -3.7553,-5.27384 -16.87118,-16.96099 -23.1915,-20.66523 -11.00348,-6.44896 -19.90789,-8.93855 -31.97017,-8.93855 -12.06436,0 -20.88457,2.46724 -32.09637,8.97818 C 347.57467,204.27682 329,221.6289 329,223.86593 c 0,0.63139 3.9375,5.11554 8.75,9.96479 19.02118,19.16643 38.86785,25.92677 61.75,21.03379 z"
       id="path239" />
  </g>
</svg>
