<?xml version="1.0" encoding="UTF-8" standalone="no"?>
<!-- Created with Inkscape (http://www.inkscape.org/) -->

<svg
   version="1.1"
   id="svg1"
   width="512"
   height="512"
   viewBox="0 0 512 512"
   xmlns="http://www.w3.org/2000/svg"
   xmlns:svg="http://www.w3.org/2000/svg">
  <defs
     id="defs1" />
  <g
     id="g1">
    <path
       style="fill:#000000"
       d="M 18.765777,491.08218 15.5,488.16436 15.234641,364.7105 14.969282,241.25664 l -4.7022,-0.53 c -3.6203464,-0.40807 -5.3423684,-1.24648 -7.4846415,-3.6441 L 0,233.96845 v -26.54997 c 0,-27.55876 0.23254451,-29.29717 4.36704,-32.64624 1.9332943,-1.56603 5.573116,-1.72985 38.88296,-1.75 L 80,173 V 111.40113 C 80,43.514721 80.16518,45.389996 73.785376,40.847174 70.097781,38.221375 63.021526,37.33423 59.011969,38.995042 c -5.005743,2.073447 -8.851493,7.314513 -9.620409,13.11089 -0.876942,6.610708 -3.634796,9.84875 -9.001276,10.568546 -3.56024,0.477528 -4.553435,0.151554 -7.465246,-2.450149 C 29.744718,57.382714 29.575535,56.89321 29.73873,51.005277 30.076086,38.83384 38.37296,26.586913 50,21.097833 c 4.652406,-2.196383 6.88928,-2.596629 14.514981,-2.597181 8.154848,-5.9e-4 9.647311,0.310359 15.642387,3.259033 7.720554,3.797348 13.008611,9.220353 16.694278,17.120304 2.449694,5.250738 2.645771,6.753454 2.984116,22.870011 L 100.1979,79 H 144.09895 188 l -0.004,-15.25 c -0.003,-13.452949 -0.2379,-15.634055 -1.99086,-18.50914 -2.7988,-4.590394 -7.58429,-7.232636 -13.10752,-7.237122 -8.10409,-0.0066 -13.95197,5.825287 -15.43899,15.396725 -1.38421,8.909724 -10.58689,12.625378 -16.53581,6.67646 C 138.39589,57.549737 138,56.403609 138,51.614436 c 0,-11.945199 8.31847,-24.677085 19.80991,-30.3202 5.04459,-2.477249 6.7678,-2.789649 15.19009,-2.753797 7.57545,0.03225 10.46409,0.481639 14.25895,2.218299 6.61158,3.025689 13.8464,10.113602 17.31529,16.963703 L 207.5,43.5 l 0.27803,64.75 0.27802,64.75 h 147.92492 c 112.55729,0 148.55183,0.28564 150.54697,1.19469 5.12747,2.33622 5.47206,4.42944 5.47206,33.23987 v 26.53389 l -2.78244,3.11409 c -2.14227,2.39762 -3.8643,3.23603 -7.48464,3.6441 l -4.7022,0.53 L 496.76536,364.7105 496.5,488.16436 493.23422,491.08218 489.96845,494 H 256 22.031553 Z M 81,357.5 V 241 H 58 35 V 357.5 474 h 23 23 z m 66,0 V 241 H 124 101 V 357.5 474 h 23 23 z m 66,0 V 241 H 190 167 V 357.5 474 h 23 23 z m 66,0 V 241 H 256 233 V 357.5 474 h 23 23 z m 66,41.5 v -75 h -23 -23 v 75 75 h 23 23 z m 66,0 v -75 h -23 -23 v 75 75 h 23 23 z m 66,-41.5 V 241 H 454 431 V 357.5 474 h 23 23 z m -66,-109 V 193 h -56 -56 v 55.5 55.5 h 56 56 z M 279,207 V 193 H 149.5 20 v 14 14 H 149.5 279 Z m 213,0 V 193 H 461.5 431 v 14 14 H 461.5 492 Z M 188,161 v -12 h -44 -44 v 12 12 h 44 44 z m 0,-47.5 V 98 h -44 -44 v 15.5 15.5 h 44 44 z m 121.92308,38.57692 c -4.70516,-4.70516 -4.09838,-8.57773 2.57692,-16.4462 3.025,-3.56569 5.5,-6.95315 5.5,-7.52767 0,-0.57452 -1.43346,-3.07824 -3.18547,-5.56384 -3.6472,-5.17433 -4.88887,-13.75389 -2.87405,-19.85885 1.59746,-4.840372 7.4966,-12.337901 11.22429,-14.265568 6.56072,-3.392676 14.28978,1.241065 14.28978,8.567032 0,2.863283 -0.83896,4.913046 -3.22728,7.884986 -3.63565,4.52409 -3.9682,6.27516 -1.56879,8.26075 2.95611,2.44627 5.29663,9.11743 5.31956,15.16228 0.0283,7.4706 -2.35127,12.1436 -10.36749,20.35934 C 321.90414,154.49763 321.0751,155 317.13006,155 c -3.40151,0 -4.886,-0.60209 -7.20698,-2.92308 z M 273.38812,122.01993 C 270.03918,120.66681 267,116.06936 267,112.35645 c 0,-2.69765 1.10229,-4.57284 5.5,-9.35645 5.73813,-6.241654 6.62863,-8.821128 3.84152,-11.127555 -5.08848,-4.210886 -6.88593,-16.958591 -3.43655,-24.372445 2.19412,-4.715905 9.57736,-11.993538 13.0026,-12.816628 3.97537,-0.955287 8.9727,1.785831 10.67251,5.854043 1.7832,4.267793 1.22977,6.673068 -2.68145,11.653947 C 292.30438,74.221611 291,76.345954 291,76.912125 c 0,0.566171 1.44876,3.084779 3.21947,5.596906 2.69676,3.825924 3.28185,5.671299 3.60362,11.365961 0.31356,5.549144 -0.0227,7.595978 -1.8299,11.138358 -2.88357,5.65227 -11.61859,14.8961 -15.71107,16.62625 -3.64451,1.54076 -3.97663,1.55908 -6.894,0.38033 z m 80,0 C 350.03171,120.66379 347,116.06979 347,112.33992 c 0,-2.76298 1.11767,-4.59178 6.03984,-9.88275 3.92887,-4.223235 5.76378,-6.929732 5.25,-7.743732 -0.43441,-0.688248 -2.11407,-3.196022 -3.73257,-5.572831 -3.71648,-5.457736 -4.62995,-14.043318 -2.17741,-20.465197 1.83188,-4.796704 9.87551,-13.11705 13.52771,-13.993087 3.62498,-0.86951 8.73485,1.725509 10.63565,5.401264 2.06791,3.998895 0.8294,9.278272 -3.0264,12.900613 -2.91559,2.739056 -3.21088,5.19655 -0.85834,7.143355 4.83199,3.998632 6.9197,17.15957 3.87713,24.441475 -1.91415,4.58118 -12.14844,15.328 -16.25349,17.06745 -3.6439,1.54404 -3.97588,1.5625 -6.894,0.38345 z"
       id="path1" />
  </g>
</svg>
