<?xml version="1.0" encoding="UTF-8" standalone="no"?>
<!-- Created with Inkscape (http://www.inkscape.org/) -->

<svg
   version="1.1"
   id="svg1"
   width="512"
   height="512"
   viewBox="0 0 512 512"
   xmlns="http://www.w3.org/2000/svg"
   xmlns:svg="http://www.w3.org/2000/svg">
  <defs
     id="defs1" />
  <g
     id="g1">
    <path
       style="fill:#000000"
       d="M 23.5,511.07493 C 14.883511,508.97541 6.9714967,502.52245 2.8534564,494.23581 L 0.5,489.5 V 344 198.5 l 2.4229112,-4.92291 C 6.0138875,187.29679 11.919762,181.39092 17.850834,178.64917 22.261461,176.61027 24.347087,176.47435 58.5,176 l 36,-0.5 0.266933,-25.77489 c 0.247387,-23.88751 0.137549,-25.8185 -1.5,-26.3705 -9.90425,-3.3386 -18.877898,-11.15336 -23.063137,-20.08469 C 67.840377,98.226368 67.457985,96.020807 67.166251,85.75 L 66.832502,74 H 36.816251 6.8 L 3.4,70.6 0,67.2 V 37.647053 C 0,16.864307 0.35453758,7.3159808 1.1946853,5.4720575 3.8626028,-0.38338373 -14.028145,0 256.55034,0 H 505.2 l 3.4,3.4 3.4,3.4 V 37 67.2 l -3.4,3.4 -3.4,3.4 h -29.99467 -29.99468 l -0.35532,11.75 c -0.31591,10.446606 -0.66678,12.384235 -3.16302,17.46758 -3.83909,7.81794 -10.41277,14.28873 -18.23422,17.94883 l -6.49144,3.03771 0.26667,25.64794 L 417.5,175.5 l 36,0.5 c 34.15291,0.47435 36.23854,0.61027 40.64917,2.64917 5.93107,2.74175 11.83694,8.64762 14.92792,14.92792 L 511.5,198.5 V 344 489.5 l -2.6636,5 c -3.19237,5.99258 -8.70522,11.43393 -14.8364,14.64398 L 489.5,511.5 258,511.65296 C 130.675,511.73708 25.15,511.47697 23.5,511.07493 Z M 488.6,488.6 492,485.2 V 344.50429 c 0,-129.47359 -0.13282,-140.92056 -1.66527,-143.51479 -0.9159,-1.55049 -2.73707,-3.30742 -4.04705,-3.90429 -3.37319,-1.53692 -457.202173,-1.53692 -460.575356,0 -1.30998,0.59687 -3.131153,2.3538 -4.047053,3.90429 C 20.132825,203.58373 20,215.0307 20,344.50429 V 485.2 l 3.4,3.4 3.4,3.4 H 256 485.2 Z M 84,464.30962 c -5.406069,-0.90394 -14.958229,-4.52958 -19.608561,-7.44268 -13.340009,-8.35656 -16.562956,-16.65386 -8.83126,-22.73562 4.334014,-3.40913 8.542158,-2.80326 14.129001,2.03425 11.385283,9.85822 26.408432,11.57624 34.66146,3.9638 4.04691,-3.73279 4.91862,-6.54918 3.25753,-10.52473 -1.76548,-4.22537 -5.18347,-6.27199 -20.982184,-12.56362 -16.085495,-6.40584 -19.458198,-8.13907 -22.765968,-11.69944 -10.633858,-11.44591 -9.582377,-29.11226 2.372462,-39.86069 8.635881,-7.7644 24.040539,-10.64389 36.83602,-6.88551 7.12897,2.09397 16.03537,6.85982 19.41824,10.39078 5.12185,5.34605 3.04511,13.69312 -3.984,16.01293 -3.81257,1.25827 -2.86405,1.57433 -15.75274,-5.24909 -3.341166,-1.76885 -5.891605,-2.25 -11.92667,-2.25 -8.831108,0 -12.668629,1.97819 -14.200723,7.32029 -1.539475,5.36784 0.58988,7.06772 17.00548,13.57562 16.569053,6.56874 22.809963,10.0611 27.475833,15.37523 4.97847,5.67017 6.84925,10.79177 6.87412,18.81914 0.0478,15.42739 -10.84153,27.69195 -27.77726,31.28534 -5.196526,1.10259 -11.234798,1.26435 -16.20078,0.434 z m 75.38812,-0.25184 c -1.16154,-0.49013 -3.07404,-2.11432 -4.25,-3.60932 C 153.02371,457.76043 153,457.21552 153,411.31548 c 0,-49.54725 0.10666,-50.69664 4.94461,-53.28584 2.47038,-1.3221 7.6404,-1.3221 10.11078,0 4.23608,2.26708 4.94461,5.83806 4.94461,24.9207 V 401 h 20.5 20.5 v -18.04966 c 0,-19.08264 0.70853,-22.65362 4.94461,-24.9207 2.47038,-1.3221 7.6404,-1.3221 10.11078,0 4.83912,2.58982 4.94461,3.72915 4.94461,53.40492 v 46.53389 l -2.89766,3.24305 c -2.39795,2.68376 -3.62279,3.24305 -7.10234,3.24305 -3.47955,0 -4.70439,-0.55929 -7.10234,-3.24305 L 214,457.96845 V 439.48422 421 H 193.5 173 v 18.48422 18.48423 l -2.75,3.01826 c -2.95177,3.23971 -7.44891,4.51122 -10.86188,3.07107 z M 301,463.43725 C 291.36416,461.35628 282.47281,456.43971 274.89103,449 c -10.68015,-10.48003 -15.89991,-22.9488 -15.87916,-37.9315 0.0222,-16.01391 4.50549,-26.75794 15.90833,-38.12355 17.07714,-17.0214 40.11497,-20.80406 61.95551,-10.17271 27.95816,13.60924 38.24187,50.66287 21.31474,76.79989 -7.89266,12.18696 -20.59495,20.94442 -34.69045,23.91695 -8.53133,1.79913 -13.98742,1.78656 -22.5,-0.0518 z m 25.21413,-21.67774 c 7.53488,-3.44958 13.141,-8.78139 16.68025,-15.86406 8.50392,-17.01785 1.84865,-36.75579 -15.39438,-45.65604 -7.17838,-3.70522 -18.79925,-4.26343 -26.70163,-1.2826 -9.91149,3.73868 -18.83929,13.63514 -21.23878,23.54319 -1.32276,5.46196 -0.69562,15.12053 1.3275,20.44496 6.8737,18.0901 27.87149,26.80596 45.32704,18.81455 z m 69.89594,21.89468 c -5.04234,-2.8996 -5.03672,-2.84036 -5.07463,-53.48111 L 391,362.84615 393.92308,359.92308 396.84615,357 h 17.53941 c 15.1844,0 18.26881,0.2729 22.97175,2.0325 14.42916,5.39864 22.84056,17.33602 22.87748,32.4675 0.0239,9.80282 -3.04609,17.44955 -9.63858,24.00761 -8.08036,8.03817 -12.80072,9.81946 -27.28023,10.2946 l -12.18401,0.39981 -0.31599,16.37894 c -0.30936,16.03584 -0.36947,16.43237 -2.86973,18.93001 -3.06693,3.06372 -8.51876,4.0509 -11.83618,2.14322 z m 37.7759,-59.96003 c 7.84315,-5.19035 8.95116,-15.57884 2.36505,-22.17433 C 432.37319,377.63647 430.07559,377 419.9349,377 H 411 v 15.13626 15.13626 l 9.4894,-0.49636 c 8.03916,-0.4205 10.08653,-0.89152 13.39657,-3.082 z M 213.36032,334.53983 c -2.72793,-1.91072 -4.74116,-6.8863 -3.99281,-9.86798 0.32674,-1.30183 7.04521,-11.54807 14.92992,-22.76941 7.88472,-11.22134 15.12906,-21.61543 16.09854,-23.09798 l 1.76269,-2.69555 -13.2497,-18.77569 c -7.28734,-10.32663 -13.69174,-19.94678 -14.232,-21.3781 -2.66327,-7.0558 4.30882,-14.43043 11.85269,-12.53703 3.24419,0.81423 4.8037,2.65919 17.24165,20.39747 5.66315,8.07644 10.61884,14.47921 11.01266,14.22838 0.39382,-0.25083 5.78991,-7.66608 11.99131,-16.47834 6.2014,-8.81226 12.2764,-16.57858 13.5,-17.25851 6.58068,-3.65671 14.72473,1.39173 14.72473,9.12775 0,2.48266 -1.35348,4.60613 -17.66228,27.71025 C 271.65197,269.19989 267,276.04243 267,276.35073 c 0,0.30831 6.98019,10.46488 15.51153,22.57015 8.53135,12.10528 15.96985,23.21506 16.53002,24.6884 1.2957,3.40796 -0.35832,8.79876 -3.34058,10.88762 -2.77018,1.9403 -8.65016,1.92741 -11.43773,-0.0251 -1.19997,-0.84049 -7.78935,-9.50299 -14.64307,-19.25 -6.85371,-9.74701 -13.09254,-18.5627 -13.86404,-19.59043 -1.2927,-1.72201 -2.41391,-0.42756 -14.29175,16.5 C 225.70449,334.59141 224.39644,336 219.29943,336 c -2.11993,0 -4.79253,-0.65708 -5.93911,-1.46017 z M 132.93117,319.609 c -4.56238,-1.47462 -7.60103,-7.24867 -6.09231,-11.5766 0.56181,-1.61159 5.32789,-8.99538 10.5913,-16.40842 C 142.69357,284.21095 147,277.84725 147,277.48243 c 0,-0.36482 -3.825,-6.08552 -8.5,-12.71268 -8.02267,-11.37272 -8.97151,-13.39729 -8.56237,-18.26975 0.26985,-3.21357 5.61682,-7.5 9.35564,-7.5 4.57837,0 6.77978,1.86329 13.3112,11.26671 3.14526,4.52831 6.01756,8.58239 6.38287,9.00906 0.36531,0.42668 3.70628,-3.51569 7.42438,-8.76081 C 173.50982,240.50167 175.21456,239 179.48392,239 c 6.44806,0 11.74443,6.51195 9.95056,12.2343 -0.39065,1.24614 -4.47322,7.57203 -9.07238,14.05753 -4.59915,6.48551 -8.3621,11.96149 -8.3621,12.16883 0,0.20735 4.5096,6.78593 10.02133,14.61907 5.51173,7.83313 10.28771,15.30339 10.61328,16.60057 0.74649,2.97426 -1.26996,7.95088 -3.99493,9.85953 -2.7156,1.90207 -8.61284,1.8677 -11.37402,-0.0663 -1.19865,-0.83956 -5.62696,-6.50137 -9.8407,-12.5818 -4.21374,-6.08043 -7.99138,-10.68102 -8.39475,-10.22353 -0.40338,0.4575 -3.89565,5.33181 -7.76061,10.83181 -9.7645,13.8953 -11.67666,15.26219 -18.33843,13.109 z m 189.3147,-0.14766 c -4.32765,-1.81965 -6.63545,-5.67321 -5.94513,-9.92717 0.34641,-2.13469 4.22856,-8.59935 10.29437,-17.1425 5.35602,-7.54347 9.73822,-14.23091 9.73822,-14.86097 0,-0.63007 -3.64337,-6.31536 -8.09638,-12.634 -4.453,-6.31863 -8.40398,-12.71402 -8.77994,-14.21197 C 318.01675,244.94629 322.88868,239 329.03056,239 c 4.81504,0 6.3309,1.2981 13.46534,11.531 l 6.65561,9.54611 1.72663,-2.28856 c 0.94965,-1.2587 3.84962,-5.30687 6.44437,-8.99594 2.59475,-3.68906 5.7088,-7.40156 6.92011,-8.25 6.04233,-4.2322 14.75738,0.59677 14.75738,8.177 0,3.23729 -1.33119,5.75455 -8.10529,15.32692 -4.45791,6.29941 -8.32183,11.99195 -8.5865,12.65009 -0.26467,0.65815 4.1027,7.75648 9.70528,15.77407 8.19684,11.73012 10.18651,15.26085 10.18651,18.07628 0,8.18408 -8.14918,12.41974 -15.30118,7.95303 -0.88065,-0.55 -5.09869,-5.95 -9.37343,-12 -4.27474,-6.05 -7.89128,-11.13707 -8.03676,-11.30461 -0.14548,-0.16753 -3.90646,4.86317 -8.35773,11.17934 -4.45127,6.31617 -8.56636,11.77636 -9.14463,12.13376 -2.89152,1.78706 -6.83818,2.17313 -9.7404,0.95285 z M 65.388117,289.05083 c -6.526716,-2.73258 -8.354224,-11.23857 -3.46504,-16.12775 L 64.846154,270 H 85 105.15385 l 2.92307,2.92308 c 3.98976,3.98976 3.99241,8.8477 0.007,13.31114 l -2.91583,3.26578 -18.834171,0.21751 c -10.358793,0.11963 -19.784516,-0.18037 -20.946052,-0.66668 z m 342.000003,0 c -6.52672,-2.73258 -8.35423,-11.23857 -3.46504,-16.12775 L 406.84615,270 H 427 447.15385 l 2.92307,2.92308 c 3.98976,3.98976 3.99241,8.8477 0.007,13.31114 l -2.91583,3.26578 -18.83417,0.21751 c -10.35879,0.11963 -19.78452,-0.18037 -20.94605,-0.66668 z M 397,149.60841 v -26.39159 l -2.75,-0.67921 c -4.63615,-1.14504 -12.29115,-6.64851 -16.2974,-11.71679 -5.5816,-7.06125 -7.98529,-14.418151 -8.67183,-26.541584 L 368.69866,74 H 256 143.30134 l -0.58211,10.279236 c -0.67139,11.855931 -2.9909,19.169624 -8.27384,26.088484 -3.91439,5.12653 -10.61469,10.10343 -16.20799,12.0391 l -3.7374,1.2934 -0.26798,24.88185 c -0.14738,13.68502 -0.049,25.45247 0.21862,26.14989 C 114.84042,175.74772 142.99612,176 255.96862,176 H 397 Z M 114.78352,101.76196 c 5.45219,-3.60809 7.50011,-8.459521 8.02549,-19.01196 L 123.24464,74 H 104.5 85.755361 l 0.421679,8.819775 c 0.348361,7.286261 0.886571,9.613054 3.095436,13.382196 5.188364,8.853279 16.732614,11.369279 25.511044,5.559989 z m 300.91489,1.14199 c 6.63051,-3.209774 9.43048,-8.760598 10.06913,-19.961655 L 426.27741,74 H 407.63871 389 l 0.006,6.75 c 0.0101,12.211228 2.92789,18.523094 10.23466,22.13988 5.40693,2.67638 10.94878,2.68112 16.45817,0.0141 z M 492,37 V 20 H 256 20 v 17 17 h 236 236 z"
       id="path1" />
  </g>
</svg>
