<?xml version="1.0" encoding="UTF-8" standalone="no"?>
<!-- Created with Inkscape (http://www.inkscape.org/) -->

<svg
   version="1.1"
   id="svg1"
   width="512"
   height="512"
   viewBox="0 0 512 512"
   xmlns="http://www.w3.org/2000/svg"
   xmlns:svg="http://www.w3.org/2000/svg">
  <defs
     id="defs1" />
  <g
     id="g1">
    <path
       style="fill:#000000"
       d="M 231,510.89154 C 202.58582,508.3988 176.79507,501.79488 155.24655,491.49429 129.80518,479.33284 112.81393,462.76619 107.56061,445 c -1.90683,-6.44873 -2.17075,-18.99961 -0.52918,-25.16594 3.34938,-12.5815 15.70662,-28.29179 29.59278,-37.62258 6.33516,-4.25691 18.28405,-10.59319 26.71113,-14.16443 l 4.83533,-2.04913 -7.91576,-9.24896 C 109.92135,297.93804 77.947992,242.45645 71.508647,202.75248 64.670219,160.58784 81.048772,106.31029 112.02008,68.5 119.241,59.684587 135.53024,43.94089 143.85456,37.731701 217.47703,-17.18404 318.15709,-11.407639 383.82977,51.5 c 12.21332,11.699091 19.50189,20.378279 28.13248,33.5 22.80961,34.67911 34.30631,82.13117 28.5291,117.75248 -6.43124,39.65399 -38.48044,95.26504 -88.75665,154.00855 l -7.92614,9.26103 3.84572,1.57394 c 25.20298,10.31481 44.30788,25.24814 52.61459,41.12612 4.62579,8.84204 5.85721,13.75035 5.83631,23.26287 -0.0302,13.73882 -4.84683,24.52406 -16.37094,36.6572 C 360.48855,499.43347 296.01156,516.59492 231,510.89154 Z m 60.5679,-21.76817 c 39.33483,-5.95358 70.04502,-18.28355 84.75204,-34.02747 13.79921,-14.7721 13.35254,-32.1819 -1.20742,-47.06178 -8.90244,-9.09805 -25.15662,-18.71651 -40.61877,-24.03627 l -5.10652,-1.7569 -14.44362,15.4746 c -20.42161,21.87932 -53.27196,52.97802 -56.7747,53.74735 -1.5518,0.34083 -3.96639,0.1844 -5.36574,-0.34763 -3.56138,-1.35404 -37.34089,-33.71908 -55.23684,-52.92389 l -14.93367,-16.02587 -5.56633,2.0438 c -23.99284,8.80951 -42.07077,21.92471 -48.59122,35.25204 -7.51485,15.3598 -0.47032,32.41066 18.63896,45.11449 17.95059,11.93352 49.15615,21.83218 79.88593,25.34046 5.225,0.59651 10.85,1.27387 12.5,1.50524 7.17206,1.0057 39.73554,-0.43159 52.0679,-2.29817 z M 282.59797,401.75 c 27.04594,-27.32477 42.56516,-44.23342 60.80604,-66.25 43.58212,-52.60321 69.50658,-97.09982 76.6393,-131.54333 5.08289,-24.54493 -0.38756,-59.95281 -13.55817,-87.75623 C 369.2151,37.522621 280.00327,0.52995128 199,30.164439 140.31337,51.634539 98.855205,104.1775 91.052854,166.97377 c -3.337222,26.85921 1.092817,48.32495 16.206026,78.52623 17.10754,34.18663 44.09377,71.55419 84.13435,116.5 11.94027,13.40303 63.42694,66 64.60677,66 0.33871,0 12.3078,-11.8125 26.59797,-26.25 z M 236.5,299.54457 c -55.42703,-8.71277 -99.55333,-51.85924 -108.88867,-106.47079 -2.0561,-12.02811 -2.08703,-33.07858 -0.0657,-44.69279 7.99417,-45.93233 40.88733,-84.815497 85.22066,-100.739755 26.4493,-9.500425 60.02676,-9.500023 86.46734,10e-4 31.5191,11.325958 58.8826,35.524939 73.71068,65.186245 4.54337,9.08833 9.70753,25.16091 11.62197,36.17149 2.45301,14.10803 1.5403,38.93662 -1.92992,52.5 -6.86416,26.82859 -20.20002,48.81836 -40.53986,66.84697 -28.51017,25.27056 -68.37565,37.04848 -105.59654,31.19759 z m 47,-21.94203 c 30.93035,-8.02585 58.07711,-30.31809 71.97313,-59.10254 7.4768,-15.48759 10.65311,-29.66797 10.63968,-47.5 -0.019,-25.25817 -7.21752,-47.07197 -22.01324,-66.70737 C 304.41215,51.623445 228.1365,45.229278 180.09989,90.544582 167.42768,102.4989 157.06194,118.64723 151.42832,135.21074 c -7.4084,21.7816 -7.51143,48.46685 -0.2714,70.28926 12.50316,37.68615 45.76356,66.46101 85.49835,73.96794 12.21001,2.30679 34.12962,1.43393 46.84473,-1.8654 z M 218.23622,219.75 C 199.90312,201.4625 183.38456,184.22572 181.52832,181.44604 176.39997,173.76645 174,165.53869 174,155.63688 c 0,-13.78693 4.41985,-24.83772 13.60951,-34.02737 9.87016,-9.87017 21.13287,-14.0533 36.20709,-13.44784 8.62705,0.34651 10.5453,0.78815 17.24696,3.97075 4.14717,1.96948 9.19473,5.03347 11.21679,6.80887 l 3.67648,3.22799 4.32833,-3.54675 c 2.38058,-1.9507 7.4528,-5.01218 11.27159,-6.80326 5.99951,-2.8139 8.26101,-3.31028 16.63828,-3.652 15.04256,-0.6136 26.67607,3.69936 36.26816,13.44591 9.84754,10.00611 13.97827,21.18707 13.37514,36.20342 -0.35072,8.73195 -0.7698,10.5088 -4.17347,17.69502 -3.63845,7.68192 -5.11457,9.32151 -38.47734,42.73838 L 260.49378,253 h -4.46232 -4.46232 z m 66.98794,-19.5 c 30.95187,-31.02946 32.72055,-33.357 33.07602,-43.52718 0.30751,-8.79805 -1.95093,-14.49464 -8.23964,-20.78336 -6.23521,-6.2352 -11.92161,-8.52695 -20.63144,-8.31494 -7.35465,0.17903 -13.41061,3.3127 -21.86335,11.31324 C 260.81397,145.32835 259.71401,146 256,146 c -3.71401,0 -4.81397,-0.67165 -11.56575,-7.06224 -9.25629,-8.7611 -14.62732,-11.33388 -23.43425,-11.22526 -7.84308,0.0967 -12.67527,2.02522 -18.47881,7.37473 -6.00729,5.53733 -8.78058,11.78384 -8.84075,19.91277 -0.0857,11.58117 1.02335,13.09755 33.0954,45.25 C 242.5488,216.0625 255.69967,229 256,229 c 0.30033,0 13.4512,-12.9375 29.22416,-28.75 z"
       id="path1" />
  </g>
</svg>
