<?xml version="1.0" encoding="UTF-8" standalone="no"?>
<!-- Created with Inkscape (http://www.inkscape.org/) -->

<svg
   version="1.1"
   id="svg1"
   width="512"
   height="512"
   viewBox="0 0 512 512"
   xmlns="http://www.w3.org/2000/svg"
   xmlns:svg="http://www.w3.org/2000/svg">
  <defs
     id="defs1" />
  <g
     id="g1">
    <path
       style="fill:#000000"
       d="m 236.5,511.38123 c -61.94317,-5.02131 -110.75048,-31.35802 -122.66505,-66.19079 -3.2227,-9.42171 -3.20386,-23.0128 0.0451,-32.51631 8.87892,-25.97187 38.47363,-47.57509 80.24516,-58.57649 6.25615,-1.64769 14.29982,-3.47897 17.87482,-4.06952 3.575,-0.59056 7.5125,-1.29704 8.75,-1.56998 l 2.25,-0.49624 -0.002,-40.23095 -0.002,-40.23095 -9.06012,-2.86334 c -4.98306,-1.57483 -13.25329,-4.99821 -18.37827,-7.6075 C 136.16595,226.79119 107.37804,160.37391 126.09338,96.767323 138.2525,55.442918 172.0701,20.659454 213.24525,7.12631 229.28601,1.8541508 237.79309,0.54455209 256,0.54455209 c 18.47932,0 26.65794,1.30415191 43.67149,6.96379391 28.55226,9.498056 52.24394,27.872189 69.48097,53.886117 15.28209,23.063571 22.1115,46.112107 22.10601,74.605537 -0.003,17.4615 -1.96483,29.33914 -7.37985,44.68841 -13.94356,39.52408 -46.60795,71.38815 -86.12645,84.01623 l -8.74784,2.79536 -0.002,40.23095 -0.002,40.23095 2.25,0.46424 c 1.2375,0.25533 6.97576,1.37111 12.75169,2.47951 39.61509,7.60212 71.96396,25.30806 86.82071,47.52075 7.05869,10.55362 9.63112,18.71969 9.63112,30.5736 0,7.28347 -0.53394,11.061 -2.28847,16.19044 -10.80245,31.58143 -51.3706,56.15652 -106.16505,64.31192 -10.1672,1.51325 -45.32695,2.70353 -55.5,1.87887 z m 56,-22.29313 c 33.67627,-5.75429 58.79537,-16.58133 74.44548,-32.0881 10.25742,-10.16347 13.43622,-16.63671 13.50435,-27.5 0.042,-6.69166 -0.39695,-8.95442 -2.68383,-13.83589 -3.71765,-7.93556 -7.85748,-12.91807 -16.32225,-19.64471 -15.46177,-12.2869 -45.00066,-24.06937 -66.75126,-26.62572 L 289,368.72464 v 36.1219 36.12191 l -2.91797,3.26577 -2.91797,3.26578 H 256 228.83594 L 225.91797,444.23422 223,440.96845 V 404.98422 369 h -2.62959 c -4.31113,0 -25.07889,4.95507 -34.29178,8.18183 -12.84516,4.49893 -28.74273,13.13137 -37.04127,20.11354 -21.26039,17.88793 -23.68019,38.24243 -6.79815,57.18366 16.76082,18.80521 51.68619,32.47955 94.26079,36.90593 10.40884,1.08219 44.37853,-0.3111 56,-2.29686 z M 269,349.5 V 271 h -13 -13 v 78.5 78.5 h 13 13 z m 8,-100.1469 c 22.93498,-4.02603 44.13555,-15.25377 61,-32.30536 C 383.86392,170.67487 382.67313,96.915029 335.3339,51.904574 325.56021,42.61168 317.78341,37.245835 305.7202,31.471684 273.77892,16.182728 238.13478,16.221456 206.05581,31.57997 172.61707,47.589503 148.48555,79.341401 141.89639,116 c -1.65574,9.21165 -1.63859,31.22846 0.0311,39.95582 4.46901,23.35879 15.61359,44.55914 32.08318,61.03186 27.59916,27.60441 64.33871,39.15019 102.9893,32.36542 z"
       id="path1" />
  </g>
</svg>
