<?xml version="1.0" encoding="UTF-8" standalone="no"?>
<!-- Created with Inkscape (http://www.inkscape.org/) -->

<svg
   version="1.1"
   id="svg1"
   width="512"
   height="512"
   viewBox="0 0 512 512"
   xmlns="http://www.w3.org/2000/svg"
   xmlns:svg="http://www.w3.org/2000/svg">
  <defs
     id="defs1" />
  <g
     id="g1">
    <path
       style="fill:#000000"
       d="m 22.356999,511.01175 c -5.574317,-2.25819 -7.173869,-10.78587 -2.946002,-15.70599 2.391013,-2.7825 2.523641,-2.80847 16,-3.13324 L 49,491.84504 V 395.42252 C 49,342.39013 48.622,299 48.16,299 c -0.462,0 -3.633754,-2.79375 -7.048343,-6.20834 -11.74437,-11.74437 -16.064852,-24.66507 -16.094293,-48.1311 L 25,230.82113 45.011136,186.67721 c 11.006124,-24.27916 20.917362,-45.05141 22.024973,-46.16057 1.80702,-1.80954 3.551739,-2.04971 16.988864,-2.33869 L 99,137.85591 V 71.983719 6.1115274 L 101.41342,3.3057637 103.82683,0.5 H 256 408.17317 L 410.58658,3.3057637 413,6.1115274 V 72.055764 138 l 13.75,0.004 c 11.63848,0.003 14.21817,0.28923 16.79867,1.86286 2.62528,1.60094 5.85413,8.05314 23.25,46.46032 L 487,230.92812 l -0.0174,13.78594 c -0.0295,23.40811 -4.35944,36.34274 -16.0943,48.0776 C 467.47375,296.20625 464.302,299 463.84,299 463.378,299 463,342.39013 463,395.42252 v 96.42252 l 13.589,0.32748 c 13.47636,0.32477 13.60899,0.35074 16,3.13324 3.27084,3.80639 3.26981,9.58427 -0.002,13.38848 L 490.17323,511.5 257.33662,511.68995 C 127.49104,511.79588 23.552082,511.49589 22.356999,511.01175 Z M 102,417.92308 v -74.07693 l 2.92308,-2.92307 L 107.84615,338 h 50.94056 50.94056 l 2.63637,2.63636 L 215,343.27273 V 417.63636 492 h 114 114 v -91.83463 -91.83462 l -7.75,0.43196 c -15.04839,0.83875 -28.45419,-4.30654 -40.31295,-15.47255 l -6.5951,-6.20984 -6.42097,6.21813 c -13.25606,12.83727 -30.14447,18.00837 -48.03449,14.70778 -8.73912,-1.61231 -20.93003,-8.20977 -27.72376,-15.0035 l -5.96241,-5.96241 -6.4889,6.36241 c -21.16582,20.7532 -54.27259,20.73794 -75.45832,-0.0348 l -6.52438,-6.39719 -4.74934,4.95347 c -9.71663,10.13426 -22.09995,15.90358 -35.97938,16.7626 -15.81035,0.97853 -29.23204,-4.06871 -40.92098,-15.38837 l -6.42097,-6.21813 -6.83652,6.44923 C 105.18548,304.50641 91.78471,309.6007 76.75,308.76271 L 69,308.33075 V 400.16537 492 H 85.5 102 Z m 223.94327,41.60621 c -1.4062,-0.76485 -13.91679,-13.23433 -27.80132,-27.70996 -22.03118,-22.96911 -25.71541,-27.26786 -28.94327,-33.77097 -3.526,-7.10375 -3.69856,-7.92075 -3.69617,-17.5 0.002,-9.23463 0.26267,-10.59803 3.21506,-16.83596 4.26195,-9.00484 12.71932,-17.81756 21.0214,-21.90466 12.07513,-5.94457 26.98457,-4.89624 38.25769,2.69001 2.86237,1.92624 5.33888,3.50225 5.50334,3.50225 0.16446,0 2.57742,-1.53325 5.36212,-3.40721 7.78309,-5.23764 13.94027,-6.91001 23.50497,-6.38425 6.15609,0.3384 9.52996,1.11396 13.88057,3.19077 23.68781,11.30766 32.77183,41.75443 18.46124,61.87623 -5.16918,7.26826 -50.90941,54.57419 -54.36003,56.22078 -3.9082,1.86495 -11.00758,1.88119 -14.4056,0.033 z m 29.21524,-42.54821 c 24.41308,-25.18802 27.34122,-29.37341 26.49438,-37.87023 -1.00091,-10.04271 -9.46866,-19.60581 -18.42373,-20.80694 -7.52454,-1.00925 -10.92477,0.33586 -18.25721,7.22243 -10.27343,9.64874 -12.84073,9.69007 -22.62133,0.36416 -3.38216,-3.22492 -7.43216,-6.35433 -9,-6.95425 -7.1909,-2.75152 -15.76503,-0.33049 -22.04994,6.22612 -6.55895,6.84251 -8.22105,16.97123 -4.05068,24.68456 2.05835,3.80703 44.38864,49.11968 45.90851,49.14298 0.36218,0.006 10.26218,-9.89843 22,-22.00883 z M 196,463.5 V 435 h -5.54966 C 181.11432,435 177,431.70865 177,424.24006 177,418.28457 180.3956,415.63193 188.82801,415 L 195.5,414.5 195.76557,386.25 196.03115,358 H 159.01557 122 v 67 67 h 37 37 z M 94.440799,285.48566 c 6.265061,-3.16983 12.345481,-9.18626 15.466251,-15.30345 2.419,-4.74165 4.33841,-15.96524 3.90237,-22.8188 L 113.5,242.5 h -34 -34 l -0.29516,7.92199 c -0.669156,17.9599 8.493073,32.09021 24.119335,37.19769 6.885891,2.25067 18.380762,1.27402 25.116624,-2.13402 z m 87.887961,0.14192 c 12.95476,-6.33817 20.06298,-19.1936 19.4664,-35.20559 L 201.5,242.5 h -34 -34 l 0.21605,9.62174 c 0.40952,18.23805 7.98592,29.71202 23.28934,35.27018 6.84511,2.48612 18.2615,1.69071 25.32337,-1.76434 z m 87.8192,0.19841 c 7.1771,-3.33177 13.32452,-9.46961 16.70408,-16.67803 2.24194,-4.78193 2.69986,-7.29631 2.98644,-16.39796 L 290.17695,242 H 256.08848 222 l 0.006,9.25 c 0.007,10.93571 0.85425,14.45238 5.22618,21.68175 3.9595,6.54736 8.52447,10.35395 16.36129,13.64316 8.00203,3.35855 18.33461,3.06714 26.55491,-0.74892 z M 358.5,285.94264 c 2.75,-1.30098 7.29329,-4.64675 10.09621,-7.43503 6.93138,-6.89518 9.40114,-13.62191 9.68774,-26.38587 L 378.5,242.5 l -34.379,-0.26328 -34.379,-0.26328 0.49568,10.76328 c 0.57952,12.58406 2.43862,17.78705 8.83506,24.72636 7.92196,8.59432 15.40665,11.70281 26.92726,11.18324 5.26352,-0.23738 8.99099,-1.04361 12.5,-2.70368 z m 88.82876,-0.31506 c 12.95476,-6.33817 20.06298,-19.1936 19.4664,-35.20559 L 466.5,242.5 h -34 -34 l -0.30942,4.86341 c -0.43419,6.82445 1.47995,18.07044 3.87465,22.76444 4.16179,8.1578 11.75208,14.71134 20.25895,17.49183 6.71489,2.19478 18.33991,1.26862 25.00458,-1.9921 z M 460.57506,221.25 c -0.30784,-0.9625 -6.791,-15.475 -14.40701,-32.25 l -13.8473,-30.5 H 255.96634 79.611936 L 65.329525,190 c -7.855325,17.325 -14.293011,31.8375 -14.305967,32.25 -0.01296,0.4125 92.256762,0.75 205.043832,0.75 194.84883,0 205.03949,-0.0872 204.50767,-1.75 z M 394,79 V 20 H 256 118 v 59 59 h 138 138 z m -249.31291,37.19528 c -5.00322,-5.22224 -4.06642,-8.36222 7.38327,-24.747347 6.33889,-9.071295 9.79011,-14.881203 9.31403,-15.67958 -0.41599,-0.697594 -4.27265,-6.263406 -8.57036,-12.368471 C 146.44543,54.353056 145,51.610382 145,48.572959 c 0,-7.12235 7.45855,-11.599303 14.204,-8.52587 1.26396,0.575898 4.95971,4.87043 8.21278,9.543403 3.25306,4.672974 6.27003,8.715949 6.70438,8.984389 0.43435,0.26844 3.31724,-3.118972 6.40644,-7.527583 3.08919,-4.408611 6.76993,-8.922776 8.17942,-10.031477 C 194.80684,36.217695 204,40.760559 204,48.572959 c 0,3.050131 -1.46059,5.793714 -8.04422,15.110378 -4.42432,6.260965 -8.25823,11.941249 -8.51978,12.622853 -0.26156,0.681604 1.47699,3.929049 3.86343,7.216545 16.8507,23.213015 18.14702,26.416375 13.11168,32.400535 -2.13984,2.54305 -3.31067,3.07121 -6.75,3.04493 -2.28861,-0.0175 -4.96098,-0.63865 -5.9386,-1.38035 -0.97762,-0.7417 -5.02762,-5.98575 -9,-11.65344 -3.97238,-5.6677 -7.65137,-10.334045 -8.17552,-10.369659 -0.52416,-0.03561 -3.79568,3.985249 -7.27004,8.935249 -9.30356,13.255 -10.64942,14.5 -15.67462,14.5 -3.32715,0 -4.80076,-0.59767 -6.91524,-2.80472 z m 83.06289,1.72461 c -2.68447,-1.56356 -5.01622,-6.83868 -4.39528,-9.94341 0.30212,-1.51058 5.03939,-9.14115 10.52727,-16.956811 l 9.97797,-14.210292 -8.44968,-11.878253 C 226.13756,51.895904 224.97615,48.880579 227.41305,44.168143 229.35412,40.414525 231.76233,39 236.21175,39 c 4.62712,0 6.40217,1.520572 13.28825,11.383162 3.3,4.726426 6.25596,8.598753 6.5688,8.60517 0.31284,0.0064 3.22344,-3.856526 6.468,-8.584319 C 269.27204,40.589785 271.11937,39 275.78825,39 c 4.44942,0 6.85763,1.414525 8.7987,5.168143 2.43926,4.717004 1.26534,7.777412 -7.97338,20.786605 l -8.41547,11.849969 9.92635,14.274731 c 5.45948,7.851102 10.19089,15.328772 10.51422,16.617052 0.74293,2.96004 -1.27972,7.93867 -3.99899,9.84333 -2.65927,1.86262 -8.59434,1.88066 -11.23062,0.0341 -1.11977,-0.78432 -5.35187,-6.18432 -9.40465,-12 C 259.95162,99.758284 256.34964,95 256,95 c -0.34964,0 -3.95162,4.758284 -8.00441,10.57396 -4.05278,5.81568 -8.28488,11.21568 -9.40465,12 -2.34938,1.64557 -8.28446,1.83496 -10.84096,0.34593 z m 79.83891,-1.99662 c -4.67616,-5.55729 -3.85035,-8.2589 7.48147,-24.475337 6.33889,-9.071295 9.79011,-14.881203 9.31403,-15.67958 -0.41599,-0.697594 -4.27265,-6.263406 -8.57036,-12.368471 C 309.44543,54.353056 308,51.610382 308,48.572959 c 0,-7.8124 9.19316,-12.355264 15.29298,-7.557138 1.40949,1.108701 5.09023,5.622866 8.17942,10.031477 3.0892,4.408611 5.93417,7.817041 6.32216,7.57429 0.38799,-0.242752 3.40544,-4.285902 6.70544,-8.984779 3.3,-4.698877 7.03367,-9.014426 8.29705,-9.590111 C 359.51782,36.984245 367,41.451959 367,48.527479 c 0,2.977631 -1.49467,5.811835 -7.81926,14.826923 -4.3006,6.130079 -8.15726,11.716357 -8.57036,12.413951 -0.47099,0.795334 3.00453,6.642858 9.31926,15.67958 11.33182,16.216437 12.15763,18.918047 7.48147,24.475337 -2.15628,2.5626 -3.31185,3.07673 -6.91524,3.07673 -5.13759,0 -6.42812,-1.18638 -15.77282,-14.5 -3.47436,-4.95 -6.74588,-8.970862 -7.27004,-8.935249 -0.52415,0.03561 -4.20314,4.701959 -8.17552,10.369659 -3.97238,5.66769 -8.02238,10.91174 -9,11.65344 -0.97762,0.7417 -3.64999,1.36285 -5.9386,1.38035 -3.43933,0.0263 -4.61016,-0.50188 -6.75,-3.04493 z"
       id="path1" />
  </g>
</svg>
