<?xml version="1.0" encoding="UTF-8" standalone="no"?>
<!-- Created with Inkscape (http://www.inkscape.org/) -->

<svg
   version="1.1"
   id="svg1"
   width="512"
   height="512"
   viewBox="0 0 512 512"
   xmlns="http://www.w3.org/2000/svg"
   xmlns:svg="http://www.w3.org/2000/svg">
  <defs
     id="defs1" />
  <g
     id="g1">
    <path
       style="fill:#000000"
       d="m 310.66013,499.93471 c -10.1704,-1.40575 -25.73081,-5.56658 -35.51011,-9.49537 C 253.5754,481.77185 235.94567,469.89108 217.36837,451.5 199.54388,433.85418 187.7839,417.60873 176.42768,394.94376 171.33999,384.78968 162,362.344 162,360.27148 c 0,-0.48481 -3.37345,-1.44832 -7.49656,-2.14112 C 135.85466,354.99681 113.97405,345.86693 95.285124,333.42098 82.848296,325.13863 63.946029,307.68306 53.765768,295.07932 30.500128,266.27514 13.255343,228.43962 5.6293857,189.46682 1.383563,167.76835 0.55652738,158.69376 0.57427786,134 0.59865474,100.08784 4.0609096,77.82491 13.954735,47.961221 22.965104,20.764173 28.49742,11 34.896717,11 c 1.575841,0 5.956241,1.182309 9.734224,2.627353 C 57.671994,18.615439 74.756945,23.572701 92,27.371663 164.15607,43.26897 249.2452,38.578981 314.91798,15.084748 c 12.46255,-4.45844 13.71702,-4.663807 17.6215,-2.884805 6.24851,2.847013 20.02367,39.364993 25.44402,67.452148 4.95091,25.654649 6.49394,61.880379 3.66733,86.097909 -0.658,5.6375 -0.83582,10.25 -0.39515,10.25 0.44066,0 7.37497,-0.69034 15.40958,-1.5341 29.70088,-3.11903 58.07071,-9.17319 81.85644,-17.46826 19.33424,-6.74265 18.72003,-6.62394 22.5937,-4.36677 2.74284,1.59825 4.27307,3.95335 8.07037,12.42067 31.69927,70.68401 29.99212,159.64156 -4.38162,228.32053 C 456.12099,450.68123 411.02817,488.0668 358,498.50289 c -10.05658,1.97917 -37.39715,2.8061 -47.33987,1.43182 z M 358,478.13761 C 412.54192,465.49916 457.62775,419.62834 479.03035,355 c 9.33405,-28.18556 12.44835,-48.49398 12.42134,-81 -0.0248,-29.87971 -2.74011,-48.99499 -10.57782,-74.46681 -2.70399,-8.78769 -8.49786,-24.47712 -9.36165,-25.35074 -0.17269,-0.17465 -4.52108,1.10059 -9.6631,2.83386 -14.17956,4.77966 -37.61738,10.53122 -54.34912,13.3371 -13.61543,2.28329 -20.8553,3.18811 -43.35094,5.41794 L 356.79812,196.5 353.47764,208 c -15.88467,55.01433 -45.15214,98.29457 -84.57259,125.06448 -24.38177,16.55734 -46.7942,24.25519 -80.08934,27.50773 l -5.68429,0.55528 4.4593,10.64366 c 24.2439,57.86648 70.31606,98.69767 121.50601,107.68401 11.68124,2.05063 37.35249,1.359 48.90327,-1.31755 z M 249.88805,421.54474 c -3.36883,-1.88817 -5.29427,-6.56588 -4.48289,-10.89087 0.34869,-1.8587 2.687,-7.6037 5.19624,-12.76667 17.21923,-35.42994 44.12083,-56.56005 74.60074,-58.59582 34.83532,-2.32667 65.87581,19.40609 85.14769,59.6155 6.26204,13.06531 6.60396,16.95821 1.86167,21.19546 -1.78368,1.59371 -4.28034,2.89766 -5.54813,2.89766 -1.26779,0 -7.07848,-1.79879 -12.91266,-3.99731 -23.64594,-8.91062 -45.54265,-12.59096 -69.61713,-11.70105 -19.08121,0.70533 -34.42731,3.69725 -52.77461,10.28909 -15.01456,5.39444 -17.93978,5.93314 -21.47092,3.95401 z m 35.53413,-29.05007 c 20.02619,-5.08006 46.134,-6.85083 65.60405,-4.44961 7.19923,0.88787 24.51367,4.37575 32.8802,6.62351 2.34863,0.63098 2.3266,0.52864 -0.91739,-4.26103 C 377.27927,381.9772 364.19621,369.83352 356.5,365.82043 330.96299,352.50449 303.96753,358.90935 283.4478,383.15256 278.7674,388.68227 274.37794,395 275.2164,395 c 0.1812,0 4.77381,-1.1274 10.20578,-2.50533 z m 88.04062,-84.08602 c -13.6684,-4.85312 -19.65568,-19.62151 -14.61919,-36.06015 6.26242,-20.43999 28.38556,-39.59501 48.45458,-41.95373 8.08611,-0.95036 19.18214,1.13397 27.39779,5.14654 11.51204,5.62253 17.6276,14.40987 19.64622,28.22931 3.04256,20.82935 -9.89867,38.9718 -31.88375,44.69819 -8.01693,2.08814 -43.06634,2.04511 -48.99565,-0.0602 z m 46.78923,-19.8354 c 16.95084,-6.04916 20.21806,-27.9535 5.30007,-35.53314 -6.9735,-3.54314 -18.99596,-3.61 -25.53192,-0.14199 -6.86841,3.64442 -16.59688,13.56716 -20.02241,20.42225 -3.50894,7.02202 -4.06384,13.95932 -1.24777,15.59953 2.70358,1.57469 36.91891,1.2889 41.50203,-0.34665 z M 205.9752,338.4961 C 266.91761,326.41515 317.61792,270.7808 335.99108,195.82738 341.68792,172.58711 342.5,164.93562 342.5,134.5 c 0,-29.76055 -0.8052,-37.812517 -5.99998,-60 C 332.93327,59.26608 324.16115,34 322.43884,34 322.0911,34 316.11261,35.78982 309.1533,37.977378 265.01193,51.852566 214.21571,58.045617 162,55.918239 132.75775,54.726847 108.2792,51.534285 82,45.484408 71.569093,43.083053 51.07359,37.226309 45.6849,35.107096 40.883248,33.218747 40.257319,33.707561 37.178628,41.75 25.101834,73.298115 20.502574,98.914278 20.525808,134.5 c 0.02767,42.38251 7.469626,75.5324 24.694346,110 26.568334,53.16468 69.916206,87.84855 118.779846,95.03916 11.2106,1.64971 30.85384,1.16159 41.9752,-1.04306 z m -33.58503,-38.56786 c -8.36107,-0.996 -21.39036,-5.53612 -28.70376,-10.00198 -18.67062,-11.40101 -36.11651,-32.94762 -44.748875,-55.26724 -2.666885,-6.89543 -2.895503,-8.25635 -1.895819,-11.28542 2.531292,-7.66989 7.774584,-7.98638 25.608084,-1.54571 40.8797,14.76394 81.91919,14.28936 122.70055,-1.41889 11.12688,-4.28588 14.83052,-4.38198 18.72657,-0.48592 3.76254,3.76253 3.74314,6.81318 -0.10261,16.13922 -8.05998,19.54566 -21.82141,37.7213 -37.40102,49.39803 -15.08018,11.30241 -35.34104,16.71244 -54.18312,14.46791 z m 27.08726,-22.46581 c 8.72937,-3.02788 18.8224,-9.85873 25.9631,-17.57154 C 230.35087,254.58714 237,245.85154 237,244.70411 c 0,-0.23955 -2.95763,0.38458 -6.5725,1.38695 -29.67095,8.22751 -64.36654,8.40848 -95.17104,0.49641 l -9.24354,-2.37419 1.63146,2.76185 c 0.89731,1.51902 4.03903,5.6063 6.98162,9.08283 18.27357,21.58948 41.86746,29.37673 64.85143,21.40447 z M 93,169.00996 C 78.120607,166.21981 66.66379,157.73044 60.597415,145 c -2.812223,-5.90152 -3.091679,-7.3747 -3.035113,-16 0.04834,-7.37177 0.56444,-10.7773 2.303752,-15.20163 C 65.623169,99.153855 80.879054,90 99.528598,90 113.35258,90 125.44141,95.492878 136.97644,107.01541 148.70997,118.73624 155,131.24187 155,142.84929 c 0,11.3088 -4.67684,19.3713 -13.84985,23.87601 -5.52329,2.7124 -6.07675,2.77867 -24.65015,2.9516 -10.45,0.0973 -21.025,-0.20283 -23.5,-0.66694 z m 39.77749,-20.56666 c 5.36721,-3.75934 0.88164,-16.75422 -9.31868,-26.99661 -7.64427,-7.6758 -13.849,-10.76832 -22.62524,-11.27674 -15.70415,-0.90977 -24.912318,7.25151 -23.599308,20.91626 0.782208,8.1406 6.621454,14.52109 15.955727,17.43468 6.566164,2.04955 36.634721,1.99062 39.587501,-0.0776 z M 228.5,169.06961 c -9.4147,-2.27732 -16.53881,-8.95543 -19.15541,-17.9562 -3.9876,-13.71686 3.1687,-31.02731 18.88393,-45.67856 12.48078,-11.635793 24.13349,-16.143159 39.23132,-15.175002 14.87541,0.953895 25.92651,6.728509 32.64371,17.057572 4.64531,7.14311 6.23785,13.84805 5.76132,24.25651 -0.299,6.53079 -0.9571,9.17237 -3.64544,14.6326 -5.80335,11.78706 -18.14326,20.49708 -32.21943,22.74181 -7.26777,1.15899 -36.85254,1.24544 -41.5,0.12127 z m 45.92322,-22.07409 c 2.67494,-1.37746 6.24125,-4.2067 7.92513,-6.28719 2.55422,-3.15583 3.13052,-4.86514 3.4775,-10.31427 0.83642,-13.13578 -5.30711,-19.34744 -19.97503,-20.19655 -7.29172,-0.42212 -8.36117,-0.22082 -14.26292,2.6846 -11.0387,5.43434 -21.96285,19.03889 -23.30143,29.0188 -0.41432,3.08895 -0.0744,4.31116 1.68962,6.07518 2.14696,2.14696 2.72721,2.19878 20.89594,1.8661 17.63097,-0.32284 18.96267,-0.48381 23.55119,-2.84667 z"
       id="path1" />
  </g>
</svg>
