<?xml version="1.0" encoding="UTF-8" standalone="no"?>
<!-- Created with Inkscape (http://www.inkscape.org/) -->

<svg
   version="1.1"
   id="svg1"
   width="512"
   height="512"
   viewBox="0 0 512 512"
   xmlns="http://www.w3.org/2000/svg"
   xmlns:svg="http://www.w3.org/2000/svg">
  <defs
     id="defs1" />
  <g
     id="g1">
    <path
       style="fill:#000000"
       d="M 40.5,511.02684 C 29.11056,508.50432 20.64063,503.66969 13.03867,495.35193 -1.403043,479.5504 -3.8862201,454.6394 7.1371968,436.14891 8.3336427,434.14201 21.603863,420.125 36.626575,405 l 27.314021,-27.5 -2.44826,-6.73478 c -9.340469,-25.69414 -9.28128,-59.7493 0.14947,-85.99889 3.484137,-9.69776 9.518056,-21.58583 15.61175,-30.75839 C 84.458981,243.16195 243.16195,84.458981 254.00794,77.253556 c 9.17256,-6.093694 21.06063,-12.127613 30.75839,-15.61175 26.24959,-9.43075 60.30475,-9.489939 85.99889,-0.14947 L 377.5,63.940596 405,36.599574 c 15.59951,-15.509331 29.44735,-28.4300313 32,-29.8575363 8.14106,-4.5526846 14.76651,-6.19428145 25,-6.19428145 21.97692,0 39.61439,12.35719475 47.14806,33.03296875 1.68765,4.631643 2.16187,8.203361 2.18004,16.419275 0.0249,11.250959 -1.71567,17.745659 -7.10183,26.5 -1.35357,2.2 -14.54478,16.15 -29.3138,31 l -26.85278,27 2.44812,6.73478 c 6.76279,18.60446 8.93069,46.51775 5.12865,66.03512 C 451.8892,226.50605 444.21433,244.48889 433.13187,260 424.3188,272.33484 268.64065,427.65821 257.99206,434.74067 234.53551,450.34182 211.38699,457.36046 183.5,457.3267 c -16.33615,-0.0198 -29.32722,-2.11575 -42.26522,-6.81904 L 134.5,448.0594 107,475.37343 C 91.875,490.39614 77.857993,503.66636 75.851094,504.8628 66.694747,510.32151 50.256712,513.18775 40.5,511.02684 Z m 20.212487,-21.1417 c 5.510093,-2.01349 9.70292,-6.02409 87.470433,-83.66875 58.8122,-58.7193 82.44208,-82.94873 84.39428,-86.53556 3.621,-6.65298 4.3864,-16.26362 1.89308,-23.7703 C 230.55413,284.12011 218.78902,276 205.62221,276 c -12.61375,0 -9.24462,-2.96245 -99.75735,87.71568 -78.591905,78.73553 -81.717669,82.00799 -83.849151,87.78432 -8.969821,24.30828 14.2333,47.32454 38.696778,38.38514 z M 208.30038,435.02206 c 11.43468,-2.54275 23.84626,-7.65293 34.58859,-14.24104 7.32884,-4.49467 14.19481,-10.82389 46.11103,-42.50625 l 37.5,-37.22523 -21.251,-21.27283 -21.251,-21.27283 -66.749,66.77001 c -50.33189,50.34774 -66.40272,66.9876 -65.34108,67.65468 1.25092,0.78602 13.44958,3.31876 21.59208,4.48305 6.16895,0.88209 26.30576,-0.5006 34.80038,-2.38956 z m -61.30044,-140.522 66.4943,-66.49994 -21.24587,-21.24587 -21.24588,-21.24587 -34.55949,34.49581 c -41.259042,41.18301 -46.630373,47.82489 -54.430703,67.30589 -5.274729,13.17341 -7.316321,24.31927 -7.361604,40.18992 -0.03721,13.04199 0.728071,19.76547 3.363958,29.55441 0.58434,2.17007 1.383861,3.94559 1.776713,3.94559 0.392851,0 30.636706,-29.92497 67.208576,-66.49994 z M 377.67502,289.75 c 38.67789,-38.82481 43.60101,-44.78433 50.85506,-61.56085 6.61737,-15.30406 10.23296,-35.55246 9.05114,-50.68915 -0.7015,-8.98481 -3.35165,-23.52277 -4.67048,-25.62093 -0.64316,-1.02321 -18.09553,15.84421 -67.63385,65.36693 l -66.76702,66.746 20.98613,21.004 c 11.54238,11.5522 21.22915,21.004 21.52617,21.004 0.29701,0 16.7908,-16.3125 36.65285,-36.25 z M 277.24128,277.25893 C 288.65857,265.85134 298,256.23385 298,255.88674 c 0,-0.34712 -1.72676,-0.90724 -3.83724,-1.24472 -6.31329,-1.00954 -17.92919,-7.45141 -23.50768,-13.03674 -5.28051,-5.28699 -10.48411,-13.99582 -12.61058,-21.10528 -0.65802,-2.2 -1.40711,-4.65112 -1.66464,-5.44693 -0.306,-0.94562 -7.72852,5.8072 -21.42404,19.49107 C 223.43012,246.06004 214,255.76615 214,256.11326 c 0,0.34712 1.72676,0.90724 3.83724,1.24472 6.378,1.01989 17.92891,7.45165 23.64102,13.16376 5.71211,5.71211 12.14387,17.26302 13.16376,23.64102 0.33748,2.11048 0.88966,3.83724 1.22706,3.83724 0.33741,0 9.9549,-9.33348 21.3722,-20.74107 z m 42.37828,-44.64839 c 3.66683,-1.99574 27.29721,-25.03419 86.59683,-84.42762 C 484.7365,69.538577 487.85264,66.276802 489.98429,60.5 498.87741,36.399588 475.60041,13.122593 451.5,22.015709 c -5.77609,2.131392 -9.05241,5.260548 -87.79271,83.849151 -92.89958,92.72061 -88.36398,87.44032 -87.50237,101.86916 0.54553,9.13563 2.63132,13.83011 8.89589,20.02197 6.10564,6.03476 12.49499,8.34441 21.9375,7.93006 5.9147,-0.25955 8.62447,-0.92196 12.58125,-3.07551 z m -24.65982,-86.07028 c 36.54976,-36.55286 66.18254,-66.73131 65.85063,-67.063226 -1.22319,-1.223183 -11.54243,-3.448111 -21.19938,-4.570792 -26.85183,-3.121691 -56.01723,4.915797 -77.81436,21.444316 -4.01315,3.043122 -22.8184,21.083372 -41.78945,40.089442 l -34.49281,34.5565 20.98388,21.00175 C 218.03939,203.54921 227.71243,213 227.99389,213 c 0.28146,0 30.4161,-29.90688 66.96585,-66.45974 z m 34.92174,313.00607 c -3.05084,-1.71553 -3.71362,-3.025 -11.79816,-23.31015 C 314.73749,427.84108 312,419.63568 312,418.00196 c 0,-4.60616 4.64819,-9.20196 9.30685,-9.20196 2.05643,0 4.77595,0.67946 6.04338,1.50991 2.98522,1.95599 16.95729,35.51683 17.04421,40.94009 0.11193,6.98372 -8.29786,11.79117 -14.51296,8.29633 z M 402,414.25058 c -3.40259,-0.61571 -30.66238,-27.8321 -31.55082,-31.50058 -1.86048,-7.68222 4.6186,-14.1613 12.30082,-12.30082 3.65809,0.88592 30.80083,28.1401 31.42188,31.55089 1.40326,7.70666 -4.49219,13.64019 -12.17188,12.25051 z m 29,-76.7385 c -10.43389,-4.23761 -19.26301,-8.43357 -20.25,-9.62362 -1.69395,-2.04244 -2.16296,-4.21326 -1.81237,-8.38846 0.25735,-3.06476 5.61768,-7.5 9.06433,-7.5 2.80481,0 28.93639,9.88725 36.98841,13.99509 6.39261,3.26126 7.71007,11.11935 2.65968,15.86394 -4.3592,4.09526 -6.87329,3.68518 -26.65005,-4.34695 z M 75,193.62757 c -8.525,-3.45559 -16.899116,-7.01422 -18.609146,-7.90807 -7.955789,-4.15857 -6.13519,-16.02181 2.79901,-18.23869 3.386406,-0.84027 39.370642,13.38806 42.060136,16.63078 1.06827,1.28801 1.75,3.78522 1.75,6.4103 0,3.57434 -0.51942,4.73738 -3.076725,6.88922 -1.942831,1.63478 -4.246202,2.57239 -6.25,2.54412 C 91.927974,199.93061 83.525,197.08316 75,193.62757 Z m 51.5,-53.49896 c -1.65,-1.02516 -8.66555,-7.66098 -15.59011,-14.74627 -8.77845,-8.98222 -12.762354,-13.79051 -13.159065,-15.88208 -0.84389,-4.44924 1.59105,-9.32733 5.463445,-10.945319 5.99305,-2.504058 8.32889,-1.177344 22.62971,12.853239 C 139.12313,124.4364 142,128.08593 142,131.90329 c 0,5.29618 -4.8566,10.10166 -10.20034,10.09297 -1.26481,-0.002 -3.64966,-0.8425 -5.29966,-1.86765 z M 184.10794,101.25 c -3.23609,-2.679351 -17.31982,-37.999531 -16.62842,-41.701925 1.7847,-9.556957 14.08497,-11.242401 18.52539,-2.538444 C 190.07001,64.977884 200,91.179166 200,93.937092 c 0,1.671106 -1.10191,4.219002 -2.58889,5.986183 C 195.25927,102.48058 194.09623,103 190.52189,103 c -2.62369,0 -5.1244,-0.6823 -6.41395,-1.75 z"
       id="path1" />
  </g>
</svg>
